Badami-Regular.ufo
<glyph name="exclam" format="2">
  <advance width="210"/>
  <unicode hex="0021"/>
  <outline>
    <contour>
      <point x="136" y="571" type="line"/>
      <point x="69" y="600" type="line"/>
      <point x="85" y="174" type="line"/>
      <point x="127" y="157" type="line"/>
    </contour>
    <contour>
      <point x="107" y="81" type="curve" smooth="yes"/>
      <point x="80" y="81"/>
      <point x="60" y="67"/>
      <point x="60" y="48" type="curve" smooth="yes"/>
      <point x="60" y="28"/>
      <point x="83" y="16"/>
      <point x="107" y="16" type="curve" smooth="yes"/>
      <point x="130" y="16"/>
      <point x="154" y="25"/>
      <point x="154" y="48" type="curve" smooth="yes"/>
      <point x="154" y="70"/>
      <point x="129" y="81"/>
    </contour>
  </outline>
</glyph>
<glyph name="quotedbl" format="2">
  <advance width="313"/>
  <unicode hex="0022"/>
  <outline>
    <contour>
      <point x="242" y="290" type="curve"/>
      <point x="260" y="507" type="line"/>
      <point x="245" y="516" type="line"/>
      <point x="235" y="514"/>
      <point x="193" y="499"/>
      <point x="183" y="493" type="curve"/>
      <point x="205" y="283" type="line"/>
      <point x="216" y="283"/>
      <point x="235" y="287"/>
    </contour>
    <contour>
      <point x="112" y="290" type="curve"/>
      <point x="130" y="507" type="line"/>
      <point x="114" y="516" type="line"/>
      <point x="104" y="514"/>
      <point x="63" y="499"/>
      <point x="53" y="493" type="curve"/>
      <point x="75" y="283" type="line"/>
      <point x="85" y="283"/>
      <point x="105" y="287"/>
    </contour>
  </outline>
</glyph>
<glyph name="numbersign" format="2">
  <advance width="343"/>
  <unicode hex="0023"/>
  <outline>
    <contour>
      <point x="349" y="328" type="curve"/>
      <point x="340" y="336" type="line"/>
      <point x="78" y="336" type="line"/>
      <point x="74" y="327"/>
      <point x="67" y="311"/>
      <point x="65" y="301" type="curve"/>
      <point x="74" y="293" type="line"/>
      <point x="336" y="293" type="line"/>
      <point x="340" y="300"/>
      <point x="347" y="318"/>
    </contour>
    <contour>
      <point x="208" y="59" type="curve"/>
      <point x="317" y="442" type="line"/>
      <point x="308" y="450" type="line"/>
      <point x="297" y="446"/>
      <point x="283" y="443"/>
      <point x="273" y="436" type="curve"/>
      <point x="163" y="51" type="line"/>
      <point x="172" y="44" type="line"/>
      <point x="185" y="48"/>
      <point x="200" y="53"/>
    </contour>
    <contour>
      <point x="101" y="59" type="curve"/>
      <point x="211" y="442" type="line"/>
      <point x="201" y="450" type="line"/>
      <point x="191" y="446"/>
      <point x="177" y="443"/>
      <point x="167" y="436" type="curve"/>
      <point x="57" y="51" type="line"/>
      <point x="66" y="44" type="line"/>
      <point x="78" y="48"/>
      <point x="93" y="53"/>
    </contour>
    <contour>
      <point x="311" y="198" type="curve"/>
      <point x="303" y="207" type="line"/>
      <point x="40" y="207" type="line"/>
      <point x="36" y="198"/>
      <point x="30" y="181"/>
      <point x="28" y="172" type="curve"/>
      <point x="36" y="163" type="line"/>
      <point x="299" y="163" type="line"/>
      <point x="303" y="171"/>
      <point x="309" y="189"/>
    </contour>
  </outline>
</glyph>
<glyph name="dollar" format="2">
  <advance width="343"/>
  <unicode hex="0024"/>
  <outline>
    <contour>
      <point x="188" y="-48" type="curve"/>
      <point x="188" y="474" type="line"/>
      <point x="178" y="482" type="line"/>
      <point x="164" y="479"/>
      <point x="166" y="478"/>
      <point x="153" y="471" type="curve"/>
      <point x="153" y="-52" type="line"/>
      <point x="163" y="-60" type="line"/>
      <point x="175" y="-57"/>
      <point x="179" y="-55"/>
    </contour>
    <contour>
      <point x="157" y="-3" type="curve" smooth="yes"/>
      <point x="262" y="-3"/>
      <point x="311" y="68"/>
      <point x="311" y="130" type="curve" smooth="yes"/>
      <point x="311" y="272"/>
      <point x="85" y="243"/>
      <point x="85" y="333" type="curve" smooth="yes"/>
      <point x="85" y="359"/>
      <point x="107" y="386"/>
      <point x="161" y="386" type="curve" smooth="yes"/>
      <point x="194" y="386"/>
      <point x="223" y="369"/>
      <point x="247" y="335" type="curve"/>
      <point x="264" y="332" type="line"/>
      <point x="277" y="343"/>
      <point x="299" y="383"/>
      <point x="294" y="390" type="curve"/>
      <point x="275" y="409"/>
      <point x="228" y="423"/>
      <point x="181" y="423" type="curve" smooth="yes"/>
      <point x="67" y="423"/>
      <point x="32" y="360"/>
      <point x="32" y="316" type="curve" smooth="yes"/>
      <point x="32" y="184"/>
      <point x="255" y="226"/>
      <point x="255" y="112" type="curve" smooth="yes"/>
      <point x="255" y="67"/>
      <point x="214" y="41"/>
      <point x="174" y="41" type="curve" smooth="yes"/>
      <point x="121" y="41"/>
      <point x="78" y="69"/>
      <point x="53" y="125" type="curve"/>
      <point x="34" y="126" type="line"/>
      <point x="27" y="100"/>
      <point x="27" y="39"/>
      <point x="33" y="35" type="curve"/>
      <point x="76" y="8"/>
      <point x="113" y="-3"/>
    </contour>
  </outline>
</glyph>
<glyph name="percent" format="2">
  <advance width="517"/>
  <unicode hex="0025"/>
  <outline>
    <contour>
      <point x="489" y="113" type="curve"/>
      <point x="489" y="181"/>
      <point x="450" y="236"/>
      <point x="392" y="236" type="curve" smooth="yes"/>
      <point x="336" y="236"/>
      <point x="284" y="180"/>
      <point x="284" y="113" type="curve" smooth="yes"/>
      <point x="284" y="45"/>
      <point x="325" y="-10"/>
      <point x="382" y="-10" type="curve" smooth="yes"/>
      <point x="439" y="-10"/>
      <point x="489" y="45"/>
    </contour>
    <contour>
      <point x="131" y="6" type="curve"/>
      <point x="445" y="440" type="line"/>
      <point x="435" y="453" type="line"/>
      <point x="420" y="449"/>
      <point x="399" y="443"/>
      <point x="386" y="435" type="curve"/>
      <point x="72" y="0" type="line"/>
      <point x="81" y="-12" type="line"/>
      <point x="93" y="-8"/>
      <point x="122" y="0"/>
    </contour>
    <contour>
      <point x="233" y="328" type="curve"/>
      <point x="233" y="396"/>
      <point x="193" y="451"/>
      <point x="135" y="451" type="curve" smooth="yes"/>
      <point x="78" y="451"/>
      <point x="27" y="395"/>
      <point x="27" y="328" type="curve" smooth="yes"/>
      <point x="27" y="261"/>
      <point x="68" y="204"/>
      <point x="125" y="204" type="curve" smooth="yes"/>
      <point x="183" y="204"/>
      <point x="233" y="261"/>
    </contour>
    <contour>
      <point x="437" y="105" type="curve"/>
      <point x="437" y="48"/>
      <point x="416" y="18"/>
      <point x="392" y="18" type="curve" smooth="yes"/>
      <point x="360" y="18"/>
      <point x="338" y="50"/>
      <point x="338" y="121" type="curve" smooth="yes"/>
      <point x="338" y="179"/>
      <point x="360" y="206"/>
      <point x="382" y="206" type="curve" smooth="yes"/>
      <point x="410" y="206"/>
      <point x="437" y="174"/>
    </contour>
    <contour>
      <point x="180" y="321" type="curve"/>
      <point x="180" y="264"/>
      <point x="158" y="234"/>
      <point x="135" y="234" type="curve" smooth="yes"/>
      <point x="103" y="234"/>
      <point x="80" y="266"/>
      <point x="80" y="336" type="curve" smooth="yes"/>
      <point x="80" y="394"/>
      <point x="103" y="422"/>
      <point x="125" y="422" type="curve" smooth="yes"/>
      <point x="153" y="422"/>
      <point x="180" y="390"/>
    </contour>
  </outline>
</glyph>
<glyph name="ampersand" format="2">
  <advance width="500"/>
  <unicode hex="0026"/>
  <outline>
    <contour>
      <point x="492" y="273" type="curve"/>
      <point x="484" y="287" type="line"/>
      <point x="321" y="287" type="line"/>
      <point x="312" y="283"/>
      <point x="299" y="274"/>
      <point x="294" y="268" type="curve"/>
      <point x="302" y="258" type="line"/>
      <point x="331" y="258"/>
      <point x="361" y="224"/>
      <point x="361" y="183" type="curve" smooth="yes"/>
      <point x="361" y="122"/>
      <point x="296" y="30"/>
      <point x="193" y="30" type="curve" smooth="yes"/>
      <point x="139" y="30"/>
      <point x="88" y="68"/>
      <point x="88" y="136" type="curve" smooth="yes"/>
      <point x="88" y="193"/>
      <point x="120" y="241"/>
      <point x="226" y="308" type="curve"/>
      <point x="284" y="344"/>
      <point x="317" y="390"/>
      <point x="317" y="440" type="curve" smooth="yes"/>
      <point x="317" y="488"/>
      <point x="296" y="531"/>
      <point x="234" y="531" type="curve" smooth="yes"/>
      <point x="173" y="531"/>
      <point x="116" y="471"/>
      <point x="116" y="392" type="curve" smooth="yes"/>
      <point x="116" y="226"/>
      <point x="360" y="-10"/>
      <point x="395" y="-10" type="curve" smooth="yes"/>
      <point x="406" y="-10"/>
      <point x="437" y="-2"/>
      <point x="479" y="16" type="curve"/>
      <point x="476" y="32" type="line"/>
      <point x="447" y="25"/>
      <point x="427" y="30"/>
      <point x="408" y="46" type="curve"/>
      <point x="317" y="119"/>
      <point x="162" y="295"/>
      <point x="162" y="413" type="curve" smooth="yes"/>
      <point x="162" y="452"/>
      <point x="180" y="491"/>
      <point x="215" y="491" type="curve" smooth="yes"/>
      <point x="249" y="491"/>
      <point x="266" y="462"/>
      <point x="266" y="428" type="curve" smooth="yes"/>
      <point x="266" y="396"/>
      <point x="252" y="358"/>
      <point x="184" y="320" type="curve" smooth="yes"/>
      <point x="86" y="265"/>
      <point x="29" y="194"/>
      <point x="29" y="128" type="curve" smooth="yes"/>
      <point x="29" y="37"/>
      <point x="91" y="-10"/>
      <point x="182" y="-10" type="curve" smooth="yes"/>
      <point x="306" y="-10"/>
      <point x="405" y="113"/>
      <point x="405" y="198" type="curve" smooth="yes"/>
      <point x="405" y="227"/>
      <point x="404" y="239"/>
      <point x="393" y="256" type="curve"/>
      <point x="410" y="255"/>
      <point x="438" y="249"/>
      <point x="456" y="241" type="curve"/>
      <point x="468" y="249"/>
      <point x="480" y="258"/>
    </contour>
  </outline>
</glyph>
<glyph name="quotesingle" format="2">
  <advance width="187"/>
  <unicode hex="0027"/>
  <outline>
    <contour>
      <point x="113" y="305" type="curve"/>
      <point x="128" y="534" type="line"/>
      <point x="113" y="541" type="line"/>
      <point x="102" y="539"/>
      <point x="69" y="528"/>
      <point x="58" y="522" type="curve"/>
      <point x="78" y="297" type="line"/>
      <point x="89" y="297"/>
      <point x="105" y="301"/>
    </contour>
  </outline>
</glyph>
<glyph name="asterisk" format="2">
  <advance width="318"/>
  <unicode hex="002A"/>
  <outline>
    <contour>
      <point x="171" y="418" type="line"/>
      <point x="187" y="535" type="line"/>
      <point x="174" y="544" type="line"/>
      <point x="164" y="541"/>
      <point x="140" y="531"/>
      <point x="130" y="525" type="curve"/>
      <point x="145" y="417" type="line"/>
      <point x="51" y="490" type="line"/>
      <point x="37" y="482" type="line"/>
      <point x="34" y="473"/>
      <point x="32" y="447"/>
      <point x="31" y="436" type="curve"/>
      <point x="133" y="395" type="line"/>
      <point x="23" y="350" type="line"/>
      <point x="23" y="333" type="line"/>
      <point x="29" y="326"/>
      <point x="50" y="311"/>
      <point x="60" y="305" type="curve"/>
      <point x="146" y="372" type="line"/>
      <point x="130" y="255" type="line"/>
      <point x="144" y="247" type="line"/>
      <point x="154" y="249"/>
      <point x="177" y="259"/>
      <point x="187" y="265" type="curve"/>
      <point x="172" y="372" type="line"/>
      <point x="265" y="300" type="line"/>
      <point x="280" y="308" type="line"/>
      <point x="283" y="318"/>
      <point x="285" y="343"/>
      <point x="286" y="354" type="curve"/>
      <point x="185" y="395" type="line"/>
      <point x="294" y="441" type="line"/>
      <point x="295" y="457" type="line"/>
      <point x="287" y="464"/>
      <point x="267" y="478"/>
      <point x="257" y="484" type="curve"/>
    </contour>
  </outline>
</glyph>
<glyph name="plus" format="2">
  <advance width="295"/>
  <unicode hex="002B"/>
  <outline>
    <contour>
      <point x="275" y="207" type="curve"/>
      <point x="265" y="217" type="line"/>
      <point x="32" y="217" type="line"/>
      <point x="28" y="208"/>
      <point x="22" y="193"/>
      <point x="20" y="184" type="curve"/>
      <point x="29" y="174" type="line"/>
      <point x="262" y="174" type="line"/>
      <point x="266" y="182"/>
      <point x="272" y="198"/>
    </contour>
    <contour>
      <point x="169" y="81" type="curve"/>
      <point x="169" y="314" type="line"/>
      <point x="160" y="323" type="line"/>
      <point x="150" y="320"/>
      <point x="134" y="314"/>
      <point x="126" y="312" type="curve"/>
      <point x="126" y="77" type="line"/>
      <point x="135" y="69" type="line"/>
      <point x="145" y="71"/>
      <point x="160" y="76"/>
    </contour>
  </outline>
</glyph>
<glyph name="comma" format="2">
  <advance width="270"/>
  <unicode hex="002C"/>
  <outline>
    <contour>
      <point x="169" y="86" type="curve" smooth="yes"/>
      <point x="139" y="86"/>
      <point x="126" y="69"/>
      <point x="121" y="62" type="curve"/>
      <point x="146" y="27"/>
      <point x="159" y="6"/>
      <point x="159" y="-2" type="curve" smooth="yes"/>
      <point x="159" y="-34"/>
      <point x="107" y="-89"/>
      <point x="99" y="-97" type="curve"/>
      <point x="111" y="-128" type="line"/>
      <point x="182" y="-44"/>
      <point x="217" y="10"/>
      <point x="217" y="33" type="curve" smooth="yes"/>
      <point x="217" y="64"/>
      <point x="204" y="86"/>
    </contour>
  </outline>
</glyph>
<glyph name="hyphen" format="2">
  <advance width="245"/>
  <unicode hex="002D"/>
  <outline>
    <contour>
      <point x="224" y="191" type="curve"/>
      <point x="215" y="200" type="line"/>
      <point x="32" y="200" type="line"/>
      <point x="28" y="191"/>
      <point x="22" y="176"/>
      <point x="20" y="166" type="curve"/>
      <point x="29" y="156" type="line"/>
      <point x="212" y="156" type="line"/>
      <point x="215" y="164"/>
      <point x="221" y="181"/>
    </contour>
  </outline>
</glyph>
<glyph name="period" format="2">
  <advance width="210"/>
  <unicode hex="002E"/>
  <outline>
    <contour>
      <point x="107" y="84" type="curve" smooth="yes"/>
      <point x="80" y="84"/>
      <point x="60" y="70"/>
      <point x="60" y="51" type="curve" smooth="yes"/>
      <point x="60" y="31"/>
      <point x="83" y="19"/>
      <point x="107" y="19" type="curve" smooth="yes"/>
      <point x="130" y="19"/>
      <point x="154" y="28"/>
      <point x="154" y="51" type="curve" smooth="yes"/>
      <point x="154" y="73"/>
      <point x="129" y="84"/>
    </contour>
  </outline>
</glyph>
<glyph name="slash" format="2">
  <advance width="336"/>
  <unicode hex="002F"/>
  <outline>
    <contour>
      <point x="77" y="-98" type="curve"/>
      <point x="320" y="549" type="line"/>
      <point x="306" y="558" type="line"/>
      <point x="293" y="554"/>
      <point x="272" y="548"/>
      <point x="259" y="540" type="curve"/>
      <point x="15" y="-107" type="line"/>
      <point x="29" y="-116" type="line"/>
      <point x="40" y="-113"/>
      <point x="67" y="-104"/>
    </contour>
  </outline>
</glyph>
<glyph name="zero" format="2">
  <advance width="343"/>
  <unicode hex="0030"/>
  <outline>
    <contour>
      <point x="319" y="209" type="curve"/>
      <point x="319" y="331"/>
      <point x="269" y="430"/>
      <point x="177" y="430" type="curve" smooth="yes"/>
      <point x="85" y="430"/>
      <point x="24" y="329"/>
      <point x="24" y="209" type="curve" smooth="yes"/>
      <point x="24" y="89"/>
      <point x="74" y="-10"/>
      <point x="166" y="-10" type="curve" smooth="yes"/>
      <point x="257" y="-10"/>
      <point x="319" y="89"/>
    </contour>
    <contour>
      <point x="250" y="197" type="curve"/>
      <point x="250" y="79"/>
      <point x="224" y="31"/>
      <point x="177" y="31" type="curve" smooth="yes"/>
      <point x="127" y="31"/>
      <point x="93" y="97"/>
      <point x="93" y="224" type="curve" smooth="yes"/>
      <point x="93" y="341"/>
      <point x="119" y="388"/>
      <point x="166" y="388" type="curve" smooth="yes"/>
      <point x="211" y="388"/>
      <point x="250" y="324"/>
    </contour>
  </outline>
</glyph>
<glyph name="one" format="2">
  <advance width="434"/>
  <unicode hex="0031"/>
  <outline>
    <contour>
      <point x="112" y="21" type="curve"/>
      <point x="112" y="0" type="line"/>
      <point x="351" y="0" type="line"/>
      <point x="351" y="21" type="line"/>
      <point x="313" y="21"/>
      <point x="290" y="26"/>
      <point x="280" y="36" type="curve" smooth="yes"/>
      <point x="272" y="45"/>
      <point x="267" y="69"/>
      <point x="267" y="106" type="curve" smooth="yes"/>
      <point x="267" y="477" type="line"/>
      <point x="241" y="477" type="line"/>
      <point x="112" y="455" type="line"/>
      <point x="112" y="434" type="line"/>
      <point x="126" y="434" type="line" smooth="yes"/>
      <point x="158" y="434"/>
      <point x="178" y="429"/>
      <point x="187" y="419" type="curve" smooth="yes"/>
      <point x="194" y="411"/>
      <point x="197" y="391"/>
      <point x="197" y="358" type="curve" smooth="yes"/>
      <point x="197" y="84" type="line" smooth="yes"/>
      <point x="197" y="42"/>
      <point x="197" y="31"/>
    </contour>
  </outline>
</glyph>
<glyph name="two" format="2">
  <advance width="434"/>
  <unicode hex="0032"/>
  <outline>
    <contour>
      <point x="377" y="352" type="curve" smooth="yes"/>
      <point x="377" y="413"/>
      <point x="327" y="489"/>
      <point x="205" y="489" type="curve" smooth="yes"/>
      <point x="99" y="489"/>
      <point x="33" y="419"/>
      <point x="33" y="353" type="curve" smooth="yes"/>
      <point x="33" y="329"/>
      <point x="46" y="295"/>
      <point x="80" y="295" type="curve" smooth="yes"/>
      <point x="97" y="295"/>
      <point x="120" y="310"/>
      <point x="120" y="332" type="curve" smooth="yes"/>
      <point x="120" y="356"/>
      <point x="97" y="358"/>
      <point x="97" y="387" type="curve" smooth="yes"/>
      <point x="97" y="434"/>
      <point x="166" y="454"/>
      <point x="197" y="454" type="curve" smooth="yes"/>
      <point x="257" y="454"/>
      <point x="294" y="417"/>
      <point x="294" y="357" type="curve" smooth="yes"/>
      <point x="294" y="280"/>
      <point x="233" y="210"/>
      <point x="192" y="170" type="curve" smooth="yes"/>
      <point x="142" y="118"/>
      <point x="102" y="91"/>
      <point x="29" y="49" type="curve"/>
      <point x="29" y="0" type="line"/>
      <point x="369" y="0" type="line"/>
      <point x="403" y="131" type="line"/>
      <point x="376" y="138" type="line"/>
      <point x="372" y="128" type="line"/>
      <point x="344" y="65"/>
      <point x="329" y="56"/>
      <point x="256" y="56" type="curve" smooth="yes"/>
      <point x="102" y="56" type="line"/>
      <point x="203" y="114"/>
      <point x="377" y="224"/>
    </contour>
  </outline>
</glyph>
<glyph name="four" format="2">
  <advance width="343"/>
  <unicode hex="0034"/>
  <outline>
    <contour>
      <point x="314" y="151" type="curve"/>
      <point x="305" y="162" type="line"/>
      <point x="261" y="162" type="line"/>
      <point x="261" y="421" type="line"/>
      <point x="247" y="434" type="line"/>
      <point x="232" y="426"/>
      <point x="210" y="416"/>
      <point x="190" y="408" type="curve"/>
      <point x="19" y="132" type="line"/>
      <point x="31" y="120" type="line"/>
      <point x="202" y="120" type="line"/>
      <point x="202" y="43" type="line" smooth="yes"/>
      <point x="202" y="35"/>
      <point x="189" y="28"/>
      <point x="129" y="18" type="curve"/>
      <point x="129" y="0" type="line"/>
      <point x="310" y="0" type="line"/>
      <point x="310" y="18" type="line"/>
      <point x="271" y="27"/>
      <point x="261" y="32"/>
      <point x="261" y="39" type="curve" smooth="yes"/>
      <point x="261" y="120" type="line"/>
      <point x="284" y="120" type="line"/>
      <point x="294" y="128"/>
      <point x="304" y="136"/>
    </contour>
    <contour>
      <point x="202" y="355" type="line"/>
      <point x="202" y="162" type="line"/>
      <point x="78" y="162" type="line"/>
    </contour>
  </outline>
</glyph>
<glyph name="six" format="2">
  <advance width="343"/>
  <unicode hex="0036"/>
  <outline>
    <contour>
      <point x="317" y="143" type="curve"/>
      <point x="317" y="220"/>
      <point x="272" y="270"/>
      <point x="196" y="270" type="curve" smooth="yes"/>
      <point x="167" y="270"/>
      <point x="119" y="252"/>
      <point x="82" y="203" type="curve"/>
      <point x="88" y="166" type="line"/>
      <point x="115" y="208"/>
      <point x="152" y="228"/>
      <point x="179" y="228" type="curve" smooth="yes"/>
      <point x="212" y="228"/>
      <point x="254" y="208"/>
      <point x="254" y="121" type="curve" smooth="yes"/>
      <point x="254" y="78"/>
      <point x="240" y="28"/>
      <point x="193" y="28" type="curve" smooth="yes"/>
      <point x="140" y="28"/>
      <point x="103" y="77"/>
      <point x="103" y="187" type="curve" smooth="yes"/>
      <point x="103" y="282"/>
      <point x="158" y="382"/>
      <point x="289" y="411" type="curve"/>
      <point x="281" y="435" type="line"/>
      <point x="116" y="411"/>
      <point x="36" y="296"/>
      <point x="36" y="164" type="curve" smooth="yes"/>
      <point x="36" y="59"/>
      <point x="101" y="-10"/>
      <point x="181" y="-10" type="curve" smooth="yes"/>
      <point x="271" y="-10"/>
      <point x="317" y="78"/>
    </contour>
  </outline>
</glyph>
<glyph name="seven" format="2">
  <advance width="434"/>
  <unicode hex="0037"/>
  <outline>
    <contour>
      <point x="185" y="418" type="curve" smooth="yes"/>
      <point x="358" y="418" type="line"/>
      <point x="167" y="232"/>
      <point x="125" y="25"/>
      <point x="121" y="0" type="curve"/>
      <point x="213" y="0" type="line"/>
      <point x="213" y="35"/>
      <point x="218" y="72"/>
      <point x="234" y="127" type="curve"/>
      <point x="280" y="238" type="line"/>
      <point x="322" y="322"/>
      <point x="362" y="379"/>
      <point x="410" y="433" type="curve"/>
      <point x="405" y="477" type="line"/>
      <point x="64" y="477" type="line"/>
      <point x="42" y="352" type="line"/>
      <point x="64" y="352" type="line"/>
      <point x="84" y="416"/>
      <point x="117" y="418"/>
    </contour>
  </outline>
</glyph>
<glyph name="nine" format="2">
  <advance width="434"/>
  <unicode hex="0039"/>
  <outline>
    <contour>
      <point x="213" y="489" type="curve" smooth="yes"/>
      <point x="123" y="489"/>
      <point x="26" y="430"/>
      <point x="26" y="322" type="curve" smooth="yes"/>
      <point x="26" y="248"/>
      <point x="85" y="172"/>
      <point x="192" y="172" type="curve" smooth="yes"/>
      <point x="280" y="172"/>
      <point x="316" y="223"/>
      <point x="328" y="246" type="curve"/>
      <point x="328" y="212" type="line" smooth="yes"/>
      <point x="328" y="103"/>
      <point x="289" y="20"/>
      <point x="197" y="20" type="curve" smooth="yes"/>
      <point x="187" y="20"/>
      <point x="176" y="21"/>
      <point x="164" y="24" type="curve" smooth="yes"/>
      <point x="136" y="30"/>
      <point x="128" y="41"/>
      <point x="125" y="62" type="curve" smooth="yes"/>
      <point x="125" y="100"/>
      <point x="97" y="112"/>
      <point x="80" y="112" type="curve" smooth="yes"/>
      <point x="61" y="112"/>
      <point x="47" y="96"/>
      <point x="47" y="76" type="curve" smooth="yes"/>
      <point x="47" y="35"/>
      <point x="111" y="-12"/>
      <point x="192" y="-12" type="curve" smooth="yes"/>
      <point x="227" y="-12"/>
      <point x="258" y="-5"/>
      <point x="287" y="8" type="curve" smooth="yes"/>
      <point x="390" y="57"/>
      <point x="403" y="174"/>
      <point x="403" y="253" type="curve" smooth="yes"/>
      <point x="403" y="464"/>
      <point x="275" y="489"/>
    </contour>
    <contour>
      <point x="206" y="209" type="curve" smooth="yes"/>
      <point x="123" y="209"/>
      <point x="101" y="280"/>
      <point x="101" y="330" type="curve" smooth="yes"/>
      <point x="101" y="448"/>
      <point x="188" y="457"/>
      <point x="213" y="457" type="curve" smooth="yes"/>
      <point x="312" y="457"/>
      <point x="321" y="367"/>
      <point x="321" y="334" type="curve" smooth="yes"/>
      <point x="321" y="218"/>
      <point x="233" y="209"/>
    </contour>
  </outline>
</glyph>
<glyph name="colon" format="2">
  <advance width="270"/>
  <unicode hex="003A"/>
  <outline>
    <contour>
      <point x="167" y="324" type="curve" smooth="yes"/>
      <point x="140" y="324"/>
      <point x="120" y="310"/>
      <point x="120" y="291" type="curve" smooth="yes"/>
      <point x="120" y="271"/>
      <point x="143" y="259"/>
      <point x="167" y="259" type="curve" smooth="yes"/>
      <point x="190" y="259"/>
      <point x="214" y="268"/>
      <point x="214" y="291" type="curve" smooth="yes"/>
      <point x="214" y="313"/>
      <point x="189" y="324"/>
    </contour>
    <contour>
      <point x="167" y="124" type="curve" smooth="yes"/>
      <point x="140" y="124"/>
      <point x="120" y="110"/>
      <point x="120" y="91" type="curve" smooth="yes"/>
      <point x="120" y="71"/>
      <point x="143" y="59"/>
      <point x="167" y="59" type="curve" smooth="yes"/>
      <point x="190" y="59"/>
      <point x="214" y="68"/>
      <point x="214" y="91" type="curve" smooth="yes"/>
      <point x="214" y="113"/>
      <point x="189" y="124"/>
    </contour>
  </outline>
</glyph>
<glyph name="semicolon" format="2">
  <advance width="270"/>
  <unicode hex="003B"/>
  <outline>
    <contour>
      <point x="167" y="284" type="curve" smooth="yes"/>
      <point x="140" y="284"/>
      <point x="120" y="270"/>
      <point x="120" y="251" type="curve" smooth="yes"/>
      <point x="120" y="231"/>
      <point x="143" y="219"/>
      <point x="167" y="219" type="curve" smooth="yes"/>
      <point x="190" y="219"/>
      <point x="214" y="228"/>
      <point x="214" y="251" type="curve" smooth="yes"/>
      <point x="214" y="273"/>
      <point x="189" y="284"/>
    </contour>
    <contour>
      <point x="169" y="86" type="curve" smooth="yes"/>
      <point x="139" y="86"/>
      <point x="126" y="69"/>
      <point x="121" y="62" type="curve"/>
      <point x="146" y="27"/>
      <point x="159" y="6"/>
      <point x="159" y="-2" type="curve" smooth="yes"/>
      <point x="159" y="-34"/>
      <point x="107" y="-89"/>
      <point x="99" y="-97" type="curve"/>
      <point x="111" y="-128" type="line"/>
      <point x="182" y="-44"/>
      <point x="217" y="10"/>
      <point x="217" y="33" type="curve" smooth="yes"/>
      <point x="217" y="64"/>
      <point x="204" y="86"/>
    </contour>
  </outline>
</glyph>
<glyph name="less" format="2">
  <advance width="329"/>
  <unicode hex="003C"/>
  <outline>
    <contour>
      <point x="306" y="320" type="curve"/>
      <point x="297" y="329" type="line"/>
      <point x="33" y="230" type="line"/>
      <point x="29" y="220"/>
      <point x="24" y="203"/>
      <point x="22" y="194" type="curve"/>
      <point x="31" y="185" type="line"/>
      <point x="296" y="283" type="line"/>
      <point x="299" y="292"/>
      <point x="304" y="309"/>
    </contour>
    <contour>
      <point x="306" y="117" type="curve"/>
      <point x="300" y="131" type="line"/>
      <point x="33" y="230" type="line"/>
      <point x="29" y="220"/>
      <point x="24" y="203"/>
      <point x="22" y="194" type="curve"/>
      <point x="31" y="185" type="line"/>
      <point x="276" y="93" type="line"/>
      <point x="291" y="102"/>
      <point x="296" y="108"/>
    </contour>
  </outline>
</glyph>
<glyph name="equal" format="2">
  <advance width="329"/>
  <unicode hex="003D"/>
  <outline>
    <contour>
      <point x="306" y="270" type="curve"/>
      <point x="297" y="280" type="line"/>
      <point x="33" y="280" type="line"/>
      <point x="29" y="270"/>
      <point x="24" y="258"/>
      <point x="22" y="249" type="curve"/>
      <point x="31" y="239" type="line"/>
      <point x="296" y="239" type="line"/>
      <point x="299" y="248"/>
      <point x="304" y="261"/>
    </contour>
    <contour>
      <point x="306" y="161" type="curve"/>
      <point x="297" y="170" type="line"/>
      <point x="33" y="170" type="line"/>
      <point x="29" y="160"/>
      <point x="24" y="149"/>
      <point x="22" y="139" type="curve"/>
      <point x="31" y="130" type="line"/>
      <point x="296" y="130" type="line"/>
      <point x="299" y="139"/>
      <point x="304" y="150"/>
    </contour>
  </outline>
</glyph>
<glyph name="greater" format="2">
  <advance width="317"/>
  <unicode hex="003E"/>
  <outline>
    <contour>
      <point x="296" y="219" type="curve"/>
      <point x="287" y="229" type="line"/>
      <point x="52" y="315" type="line"/>
      <point x="42" y="308"/>
      <point x="30" y="298"/>
      <point x="20" y="290" type="curve"/>
      <point x="27" y="276" type="line"/>
      <point x="221" y="204" type="line"/>
      <point x="31" y="134" type="line"/>
      <point x="28" y="126"/>
      <point x="23" y="106"/>
      <point x="20" y="97" type="curve"/>
      <point x="29" y="87" type="line"/>
      <point x="285" y="181" type="line"/>
      <point x="289" y="192"/>
      <point x="294" y="209"/>
    </contour>
  </outline>
</glyph>
<glyph name="question" format="2">
  <advance width="314"/>
  <unicode hex="003F"/>
  <outline>
    <contour>
      <point x="288" y="406" type="curve" smooth="yes"/>
      <point x="288" y="471"/>
      <point x="248" y="516"/>
      <point x="177" y="516" type="curve" smooth="yes"/>
      <point x="97" y="516"/>
      <point x="26" y="466"/>
      <point x="26" y="401" type="curve" smooth="yes"/>
      <point x="26" y="397"/>
      <point x="26" y="391"/>
      <point x="26" y="388" type="curve"/>
      <point x="37" y="376" type="line"/>
      <point x="57" y="378"/>
      <point x="83" y="384"/>
      <point x="98" y="392" type="curve"/>
      <point x="96" y="399"/>
      <point x="94" y="407"/>
      <point x="94" y="413" type="curve" smooth="yes"/>
      <point x="94" y="449"/>
      <point x="121" y="480"/>
      <point x="151" y="480" type="curve" smooth="yes"/>
      <point x="194" y="480"/>
      <point x="219" y="447"/>
      <point x="219" y="390" type="curve" smooth="yes"/>
      <point x="219" y="325"/>
      <point x="124" y="254"/>
      <point x="124" y="176" type="curve" smooth="yes"/>
      <point x="124" y="175"/>
      <point x="124" y="173"/>
      <point x="124" y="171" type="curve"/>
      <point x="127" y="132" type="line"/>
      <point x="136" y="123" type="line"/>
      <point x="149" y="127"/>
      <point x="157" y="131"/>
      <point x="165" y="138" type="curve"/>
      <point x="167" y="171" type="line" smooth="yes"/>
      <point x="173" y="264"/>
      <point x="288" y="301"/>
    </contour>
    <contour>
      <point x="196" y="43" type="curve" smooth="yes"/>
      <point x="196" y="71"/>
      <point x="180" y="85"/>
      <point x="156" y="85" type="curve" smooth="yes"/>
      <point x="127" y="85"/>
      <point x="102" y="60"/>
      <point x="102" y="27" type="curve" smooth="yes"/>
      <point x="102" y="0"/>
      <point x="117" y="-13"/>
      <point x="142" y="-13" type="curve" smooth="yes"/>
      <point x="172" y="-13"/>
      <point x="196" y="9"/>
    </contour>
  </outline>
</glyph>
<glyph name="at" format="2">
  <advance width="605"/>
  <unicode hex="0040"/>
  <outline>
    <contour>
      <point x="579" y="201" type="curve"/>
      <point x="579" y="388"/>
      <point x="483" y="488"/>
      <point x="338" y="488" type="curve" smooth="yes"/>
      <point x="166" y="488"/>
      <point x="25" y="336"/>
      <point x="25" y="170" type="curve" smooth="yes"/>
      <point x="25" y="-17"/>
      <point x="144" y="-137"/>
      <point x="312" y="-137" type="curve" smooth="yes"/>
      <point x="417" y="-137"/>
      <point x="495" y="-87"/>
      <point x="531" y="-50" type="curve"/>
      <point x="521" y="-30" type="line"/>
      <point x="491" y="-54"/>
      <point x="413" y="-93"/>
      <point x="330" y="-93" type="curve" smooth="yes"/>
      <point x="198" y="-93"/>
      <point x="80" y="15"/>
      <point x="80" y="191" type="curve" smooth="yes"/>
      <point x="80" y="324"/>
      <point x="174" y="444"/>
      <point x="324" y="444" type="curve" smooth="yes"/>
      <point x="447" y="444"/>
      <point x="535" y="351"/>
      <point x="535" y="187" type="curve" smooth="yes"/>
      <point x="535" y="105"/>
      <point x="490" y="39"/>
      <point x="465" y="39" type="curve" smooth="yes"/>
      <point x="442" y="39"/>
      <point x="426" y="60"/>
      <point x="426" y="104" type="curve" smooth="yes"/>
      <point x="426" y="264" type="line" smooth="yes"/>
      <point x="426" y="294"/>
      <point x="432" y="325"/>
      <point x="437" y="340" type="curve"/>
      <point x="425" y="351" type="line"/>
      <point x="412" y="336"/>
      <point x="399" y="325"/>
      <point x="386" y="317" type="curve"/>
      <point x="360" y="346"/>
      <point x="347" y="351"/>
      <point x="325" y="351" type="curve" smooth="yes"/>
      <point x="230" y="351"/>
      <point x="168" y="246"/>
      <point x="168" y="162" type="curve" smooth="yes"/>
      <point x="168" y="53"/>
      <point x="226" y="-10"/>
      <point x="276" y="-10" type="curve" smooth="yes"/>
      <point x="314" y="-10"/>
      <point x="333" y="3"/>
      <point x="373" y="59" type="curve"/>
      <point x="380" y="8"/>
      <point x="399" y="-10"/>
      <point x="423" y="-10" type="curve" smooth="yes"/>
      <point x="485" y="-10"/>
      <point x="579" y="74"/>
    </contour>
    <contour>
      <point x="371" y="267" type="curve"/>
      <point x="371" y="91" type="line"/>
      <point x="334" y="47"/>
      <point x="321" y="36"/>
      <point x="302" y="36" type="curve" smooth="yes"/>
      <point x="267" y="36"/>
      <point x="223" y="90"/>
      <point x="223" y="173" type="curve" smooth="yes"/>
      <point x="223" y="265"/>
      <point x="260" y="311"/>
      <point x="314" y="311" type="curve" smooth="yes"/>
      <point x="343" y="311"/>
      <point x="357" y="294"/>
    </contour>
  </outline>
</glyph>
<glyph name="A" format="2">
  <advance width="433"/>
  <unicode hex="0041"/>
  <anchor x="212" y="0" name="H"/>
  <anchor x="212" y="477" name="U"/>
  <outline>
    <contour>
      <point x="134" y="153" type="line"/>
      <point x="275" y="153" type="line"/>
      <point x="313" y="42" type="line" smooth="yes"/>
      <point x="318" y="26"/>
      <point x="305" y="20"/>
      <point x="269" y="18" type="curve"/>
      <point x="269" y="0" type="line"/>
      <point x="425" y="0" type="line"/>
      <point x="425" y="18" type="line"/>
      <point x="395" y="21"/>
      <point x="385" y="29"/>
      <point x="380" y="42" type="curve" smooth="yes"/>
      <point x="234" y="459" type="line"/>
      <point x="218" y="452"/>
      <point x="195" y="441"/>
      <point x="181" y="427" type="curve"/>
      <point x="54" y="42" type="line" smooth="yes"/>
      <point x="49" y="28"/>
      <point x="31" y="24"/>
      <point x="0" y="18" type="curve"/>
      <point x="0" y="0" type="line"/>
      <point x="147" y="0" type="line"/>
      <point x="147" y="18" type="line"/>
      <point x="109" y="22"/>
      <point x="92" y="27"/>
      <point x="97" y="42" type="curve" smooth="yes"/>
    </contour>
    <contour>
      <point x="263" y="188" type="line"/>
      <point x="145" y="188" type="line"/>
      <point x="202" y="361" type="line"/>
    </contour>
  </outline>
</glyph>
<glyph name="B" format="2">
  <advance width="404"/>
  <unicode hex="0042"/>
  <outline>
    <contour>
      <point x="367" y="124" type="curve"/>
      <point x="367" y="188"/>
      <point x="320" y="240"/>
      <point x="258" y="252" type="curve"/>
      <point x="302" y="268"/>
      <point x="328" y="305"/>
      <point x="328" y="355" type="curve" smooth="yes"/>
      <point x="328" y="414"/>
      <point x="268" y="449"/>
      <point x="170" y="449" type="curve" smooth="yes"/>
      <point x="118" y="449"/>
      <point x="51" y="439"/>
      <point x="12" y="428" type="curve"/>
      <point x="16" y="404" type="line"/>
      <point x="55" y="412"/>
      <point x="113" y="418"/>
      <point x="150" y="418" type="curve" smooth="yes"/>
      <point x="236" y="418"/>
      <point x="263" y="385"/>
      <point x="263" y="338" type="curve" smooth="yes"/>
      <point x="263" y="298"/>
      <point x="243" y="254"/>
      <point x="142" y="254" type="curve" smooth="yes"/>
      <point x="110" y="254" type="line"/>
      <point x="113" y="217" type="line"/>
      <point x="134" y="221"/>
      <point x="155" y="225"/>
      <point x="186" y="225" type="curve" smooth="yes"/>
      <point x="267" y="225"/>
      <point x="298" y="165"/>
      <point x="298" y="114" type="curve" smooth="yes"/>
      <point x="298" y="61"/>
      <point x="258" y="27"/>
      <point x="191" y="27" type="curve" smooth="yes"/>
      <point x="170" y="27"/>
      <point x="143" y="29"/>
      <point x="129" y="36" type="curve"/>
      <point x="42" y="0" type="line"/>
      <point x="88" y="-2"/>
      <point x="158" y="-4"/>
      <point x="201" y="-4" type="curve"/>
      <point x="301" y="-4"/>
      <point x="367" y="44"/>
    </contour>
    <contour>
      <point x="16" y="0" type="line"/>
      <point x="180" y="0" type="line"/>
      <point x="180" y="17" type="line"/>
      <point x="146" y="23"/>
      <point x="132" y="33"/>
      <point x="132" y="38" type="curve" smooth="yes"/>
      <point x="132" y="429" type="line"/>
      <point x="66" y="422" type="line"/>
      <point x="66" y="39" type="line" smooth="yes"/>
      <point x="66" y="33"/>
      <point x="47" y="24"/>
      <point x="16" y="18" type="curve"/>
    </contour>
  </outline>
</glyph>
<glyph name="C" format="2">
  <advance width="402"/>
  <unicode hex="0043"/>
  <anchor x="213" y="0" name="H"/>
  <anchor x="224" y="501" name="U"/>
  <outline>
    <contour>
      <point x="372" y="77" type="curve"/>
      <point x="371" y="80"/>
      <point x="364" y="91"/>
      <point x="359" y="93" type="curve"/>
      <point x="305" y="48"/>
      <point x="261" y="32"/>
      <point x="235" y="32" type="curve" smooth="yes"/>
      <point x="165" y="32"/>
      <point x="82" y="98"/>
      <point x="82" y="228" type="curve" smooth="yes"/>
      <point x="82" y="380"/>
      <point x="166" y="432"/>
      <point x="216" y="432" type="curve" smooth="yes"/>
      <point x="261" y="432"/>
      <point x="295" y="415"/>
      <point x="320" y="392" type="curve"/>
      <point x="332" y="390" type="line"/>
      <point x="344" y="402"/>
      <point x="371" y="431"/>
      <point x="365" y="435" type="curve" smooth="yes"/>
      <point x="340" y="455"/>
      <point x="299" y="472"/>
      <point x="247" y="472" type="curve" smooth="yes"/>
      <point x="127" y="472"/>
      <point x="25" y="370"/>
      <point x="25" y="214" type="curve" smooth="yes"/>
      <point x="25" y="72"/>
      <point x="118" y="-10"/>
      <point x="209" y="-10" type="curve" smooth="yes"/>
      <point x="259" y="-10"/>
      <point x="310" y="10"/>
    </contour>
  </outline>
</glyph>
<glyph name="D" format="2">
  <advance width="444"/>
  <unicode hex="0044"/>
  <anchor x="201" y="501" name="U"/>
  <outline>
    <contour>
      <point x="18" y="0" type="line"/>
      <point x="30" y="0" type="line" smooth="yes"/>
      <point x="100" y="0"/>
      <point x="126" y="0"/>
      <point x="183" y="0" type="curve" smooth="yes"/>
      <point x="204" y="0" type="line" smooth="yes"/>
      <point x="291" y="0"/>
      <point x="411" y="64"/>
      <point x="411" y="247" type="curve" smooth="yes"/>
      <point x="411" y="389"/>
      <point x="325" y="472"/>
      <point x="189" y="472" type="curve" smooth="yes"/>
      <point x="131" y="472"/>
      <point x="57" y="462"/>
      <point x="15" y="450" type="curve"/>
      <point x="18" y="427" type="line"/>
      <point x="34" y="430"/>
      <point x="52" y="432"/>
      <point x="71" y="435" type="curve"/>
      <point x="71" y="38" type="line" smooth="yes"/>
      <point x="71" y="31"/>
      <point x="51" y="22"/>
      <point x="18" y="15" type="curve"/>
    </contour>
    <contour>
      <point x="196" y="30" type="curve" smooth="yes"/>
      <point x="165" y="30"/>
      <point x="130" y="34"/>
      <point x="130" y="56" type="curve" smooth="yes"/>
      <point x="130" y="440" type="line"/>
      <point x="141" y="441"/>
      <point x="153" y="441"/>
      <point x="165" y="441" type="curve" smooth="yes"/>
      <point x="283" y="441"/>
      <point x="348" y="362"/>
      <point x="348" y="233" type="curve" smooth="yes"/>
      <point x="348" y="95"/>
      <point x="264" y="30"/>
    </contour>
  </outline>
</glyph>
<glyph name="E" format="2">
  <advance width="372"/>
  <unicode hex="0045"/>
  <anchor x="183" y="0" name="H"/>
  <anchor x="183" y="501" name="U"/>
  <outline>
    <contour>
      <point x="325" y="452" type="curve"/>
      <point x="313" y="461" type="line"/>
      <point x="121" y="461" type="line"/>
      <point x="110" y="428" type="line"/>
      <point x="264" y="428" type="line" smooth="yes"/>
      <point x="281" y="428"/>
      <point x="291" y="414"/>
      <point x="294" y="369" type="curve"/>
      <point x="310" y="369" type="line"/>
      <point x="316" y="388"/>
      <point x="324" y="427"/>
    </contour>
    <contour>
      <point x="287" y="258" type="curve"/>
      <point x="278" y="269" type="line"/>
      <point x="113" y="269" type="line"/>
      <point x="105" y="238" type="line"/>
      <point x="181" y="238" type="line" smooth="yes"/>
      <point x="222" y="238"/>
      <point x="239" y="232"/>
      <point x="254" y="218" type="curve"/>
      <point x="264" y="225"/>
      <point x="279" y="245"/>
    </contour>
    <contour>
      <point x="349" y="89" type="curve"/>
      <point x="333" y="95" type="line"/>
      <point x="312" y="38"/>
      <point x="296" y="32"/>
      <point x="251" y="32" type="curve" smooth="yes"/>
      <point x="204" y="32" type="line" smooth="yes"/>
      <point x="140" y="32"/>
      <point x="130" y="42"/>
      <point x="130" y="56" type="curve" smooth="yes"/>
      <point x="130" y="431" type="line" smooth="yes"/>
      <point x="130" y="437"/>
      <point x="150" y="442"/>
      <point x="183" y="445" type="curve"/>
      <point x="183" y="461" type="line"/>
      <point x="18" y="461" type="line"/>
      <point x="18" y="445" type="line"/>
      <point x="53" y="438"/>
      <point x="71" y="428"/>
      <point x="71" y="422" type="curve" smooth="yes"/>
      <point x="71" y="38" type="line" smooth="yes"/>
      <point x="71" y="31"/>
      <point x="51" y="22"/>
      <point x="18" y="15" type="curve"/>
      <point x="18" y="0" type="line"/>
      <point x="334" y="0" type="line"/>
      <point x="338" y="14"/>
      <point x="345" y="47"/>
    </contour>
  </outline>
</glyph>
<glyph name="F" format="2">
  <advance width="358"/>
  <unicode hex="0046"/>
  <anchor x="173" y="501" name="U"/>
  <outline>
    <contour>
      <point x="328" y="452" type="curve"/>
      <point x="317" y="461" type="line"/>
      <point x="121" y="461" type="line"/>
      <point x="110" y="428" type="line"/>
      <point x="266" y="428" type="line" smooth="yes"/>
      <point x="285" y="428"/>
      <point x="295" y="414"/>
      <point x="296" y="369" type="curve"/>
      <point x="314" y="369" type="line"/>
      <point x="320" y="388"/>
      <point x="327" y="427"/>
    </contour>
    <contour>
      <point x="277" y="258" type="curve"/>
      <point x="266" y="269" type="line"/>
      <point x="103" y="269" type="line"/>
      <point x="94" y="238" type="line"/>
      <point x="171" y="238" type="line" smooth="yes"/>
      <point x="211" y="238"/>
      <point x="228" y="232"/>
      <point x="243" y="218" type="curve"/>
      <point x="253" y="225"/>
      <point x="268" y="245"/>
    </contour>
    <contour>
      <point x="18" y="0" type="line"/>
      <point x="194" y="0" type="line"/>
      <point x="194" y="15" type="line"/>
      <point x="146" y="24"/>
      <point x="130" y="32"/>
      <point x="130" y="38" type="curve" smooth="yes"/>
      <point x="130" y="431" type="line" smooth="yes"/>
      <point x="130" y="437"/>
      <point x="157" y="442"/>
      <point x="183" y="445" type="curve"/>
      <point x="183" y="461" type="line"/>
      <point x="18" y="461" type="line"/>
      <point x="18" y="445" type="line"/>
      <point x="53" y="438"/>
      <point x="71" y="428"/>
      <point x="71" y="422" type="curve" smooth="yes"/>
      <point x="71" y="38" type="line" smooth="yes"/>
      <point x="71" y="31"/>
      <point x="51" y="22"/>
      <point x="18" y="15" type="curve"/>
    </contour>
  </outline>
</glyph>
<glyph name="G" format="2">
  <advance width="420"/>
  <unicode hex="0047"/>
  <anchor x="217" y="0" name="H"/>
  <anchor x="225" y="477" name="U"/>
  <outline>
    <contour>
      <point x="404" y="196" type="curve"/>
      <point x="404" y="214" type="line"/>
      <point x="239" y="214" type="line"/>
      <point x="239" y="196" type="line"/>
      <point x="294" y="186"/>
      <point x="306" y="177"/>
      <point x="306" y="167" type="curve" smooth="yes"/>
      <point x="306" y="34" type="line" smooth="yes"/>
      <point x="306" y="27"/>
      <point x="368" y="55"/>
      <point x="368" y="55" type="curve"/>
      <point x="368" y="167" type="line" smooth="yes"/>
      <point x="368" y="178"/>
      <point x="378" y="189"/>
    </contour>
    <contour>
      <point x="369" y="414" type="curve"/>
      <point x="339" y="437"/>
      <point x="289" y="449"/>
      <point x="258" y="449" type="curve" smooth="yes"/>
      <point x="127" y="449"/>
      <point x="22" y="357"/>
      <point x="22" y="202" type="curve" smooth="yes"/>
      <point x="22" y="59"/>
      <point x="121" y="-10"/>
      <point x="217" y="-10" type="curve" smooth="yes"/>
      <point x="259" y="-10"/>
      <point x="299" y="-1"/>
      <point x="368" y="55" type="curve"/>
      <point x="366" y="58"/>
      <point x="339" y="70"/>
      <point x="333" y="73" type="curve"/>
      <point x="309" y="50"/>
      <point x="275" y="35"/>
      <point x="228" y="35" type="curve" smooth="yes"/>
      <point x="159" y="35"/>
      <point x="88" y="94"/>
      <point x="88" y="222" type="curve" smooth="yes"/>
      <point x="88" y="367"/>
      <point x="177" y="409"/>
      <point x="212" y="409" type="curve" smooth="yes"/>
      <point x="255" y="409"/>
      <point x="288" y="400"/>
      <point x="319" y="366" type="curve"/>
      <point x="334" y="363" type="line"/>
      <point x="346" y="373"/>
      <point x="376" y="409"/>
    </contour>
  </outline>
</glyph>
<glyph name="H" format="2">
  <advance width="490"/>
  <unicode hex="0048"/>
  <anchor x="98" y="0" name="H"/>
  <anchor x="241" y="501" name="U"/>
  <outline>
    <contour>
      <point x="300" y="0" type="line"/>
      <point x="465" y="0" type="line"/>
      <point x="465" y="15" type="line"/>
      <point x="429" y="22"/>
      <point x="411" y="32"/>
      <point x="411" y="38" type="curve" smooth="yes"/>
      <point x="411" y="422" type="line" smooth="yes"/>
      <point x="411" y="429"/>
      <point x="432" y="438"/>
      <point x="465" y="445" type="curve"/>
      <point x="465" y="461" type="line"/>
      <point x="300" y="461" type="line"/>
      <point x="300" y="445" type="line"/>
      <point x="335" y="438"/>
      <point x="353" y="428"/>
      <point x="353" y="422" type="curve" smooth="yes"/>
      <point x="353" y="38" type="line" smooth="yes"/>
      <point x="353" y="31"/>
      <point x="333" y="22"/>
      <point x="300" y="15" type="curve"/>
    </contour>
    <contour>
      <point x="119" y="225" type="line"/>
      <point x="360" y="225" type="line"/>
      <point x="360" y="258" type="line"/>
      <point x="119" y="258" type="line"/>
    </contour>
    <contour>
      <point x="18" y="0" type="line"/>
      <point x="183" y="0" type="line"/>
      <point x="183" y="15" type="line"/>
      <point x="147" y="22"/>
      <point x="130" y="32"/>
      <point x="130" y="38" type="curve" smooth="yes"/>
      <point x="130" y="422" type="line" smooth="yes"/>
      <point x="130" y="429"/>
      <point x="150" y="438"/>
      <point x="183" y="445" type="curve"/>
      <point x="183" y="461" type="line"/>
      <point x="18" y="461" type="line"/>
      <point x="18" y="445" type="line"/>
      <point x="53" y="438"/>
      <point x="71" y="428"/>
      <point x="71" y="422" type="curve" smooth="yes"/>
      <point x="71" y="38" type="line" smooth="yes"/>
      <point x="71" y="31"/>
      <point x="51" y="22"/>
      <point x="18" y="15" type="curve"/>
    </contour>
  </outline>
</glyph>
<glyph name="I" format="2">
  <advance width="219"/>
  <unicode hex="0049"/>
  <anchor x="106" y="0" name="H"/>
  <anchor x="106" y="477" name="U"/>
  <outline>
    <contour>
      <point x="23" y="0" type="line"/>
      <point x="189" y="0" type="line"/>
      <point x="189" y="18" type="line"/>
      <point x="155" y="24"/>
      <point x="139" y="34"/>
      <point x="139" y="39" type="curve" smooth="yes"/>
      <point x="139" y="399" type="line" smooth="yes"/>
      <point x="139" y="405"/>
      <point x="157" y="414"/>
      <point x="189" y="420" type="curve"/>
      <point x="189" y="439" type="line"/>
      <point x="23" y="439" type="line"/>
      <point x="23" y="420" type="line"/>
      <point x="57" y="414"/>
      <point x="73" y="404"/>
      <point x="73" y="399" type="curve" smooth="yes"/>
      <point x="73" y="39" type="line" smooth="yes"/>
      <point x="73" y="33"/>
      <point x="54" y="24"/>
      <point x="23" y="18" type="curve"/>
    </contour>
  </outline>
</glyph>
<glyph name="J" format="2">
  <advance width="228"/>
  <unicode hex="004A"/>
  <anchor x="120" y="501" name="U"/>
  <outline>
    <contour>
      <point x="203" y="445" type="curve"/>
      <point x="203" y="461" type="line"/>
      <point x="20" y="461" type="line"/>
      <point x="20" y="445" type="line"/>
      <point x="78" y="437"/>
      <point x="91" y="428"/>
      <point x="91" y="422" type="curve" smooth="yes"/>
      <point x="91" y="48" type="line" smooth="yes"/>
      <point x="91" y="-65"/>
      <point x="56" y="-94"/>
      <point x="30" y="-94" type="curve" smooth="yes"/>
      <point x="12" y="-94"/>
      <point x="0" y="-91"/>
      <point x="-27" y="-73" type="curve"/>
      <point x="-40" y="-78"/>
      <point x="-69" y="-101"/>
      <point x="-69" y="-109" type="curve" smooth="yes"/>
      <point x="-69" y="-118"/>
      <point x="-38" y="-139"/>
      <point x="-9" y="-139" type="curve" smooth="yes"/>
      <point x="9" y="-139"/>
      <point x="51" y="-126"/>
      <point x="77" y="-105" type="curve" smooth="yes"/>
      <point x="115" y="-74"/>
      <point x="150" y="-40"/>
      <point x="150" y="75" type="curve" smooth="yes"/>
      <point x="150" y="422" type="line" smooth="yes"/>
      <point x="150" y="429"/>
      <point x="170" y="438"/>
    </contour>
  </outline>
</glyph>
<glyph name="K" format="2">
  <advance width="433"/>
  <unicode hex="004B"/>
  <anchor x="100" y="0" name="H"/>
  <anchor x="216" y="501" name="U"/>
  <outline>
    <contour>
      <point x="406" y="445" type="curve"/>
      <point x="406" y="461" type="line"/>
      <point x="252" y="461" type="line"/>
      <point x="252" y="445" type="line"/>
      <point x="291" y="442"/>
      <point x="302" y="439"/>
      <point x="279" y="413" type="curve" smooth="yes"/>
      <point x="128" y="235" type="line"/>
      <point x="174" y="235" type="line"/>
      <point x="344" y="422" type="line" smooth="yes"/>
      <point x="359" y="439"/>
      <point x="375" y="441"/>
    </contour>
    <contour>
      <point x="429" y="13" type="curve"/>
      <point x="427" y="29" type="line"/>
      <point x="402" y="26"/>
      <point x="377" y="27"/>
      <point x="360" y="46" type="curve" smooth="yes"/>
      <point x="167" y="264" type="line"/>
      <point x="128" y="235" type="line"/>
      <point x="312" y="10" type="line" smooth="yes"/>
      <point x="322" y="-1"/>
      <point x="332" y="-5"/>
      <point x="347" y="-5" type="curve" smooth="yes"/>
      <point x="370" y="-5"/>
      <point x="401" y="4"/>
    </contour>
    <contour>
      <point x="18" y="0" type="line"/>
      <point x="183" y="0" type="line"/>
      <point x="183" y="15" type="line"/>
      <point x="147" y="22"/>
      <point x="130" y="32"/>
      <point x="130" y="38" type="curve" smooth="yes"/>
      <point x="130" y="422" type="line" smooth="yes"/>
      <point x="130" y="429"/>
      <point x="150" y="438"/>
      <point x="183" y="445" type="curve"/>
      <point x="183" y="461" type="line"/>
      <point x="18" y="461" type="line"/>
      <point x="18" y="445" type="line"/>
      <point x="53" y="438"/>
      <point x="71" y="428"/>
      <point x="71" y="422" type="curve" smooth="yes"/>
      <point x="71" y="38" type="line" smooth="yes"/>
      <point x="71" y="31"/>
      <point x="51" y="22"/>
      <point x="18" y="15" type="curve"/>
    </contour>
  </outline>
</glyph>
<glyph name="L" format="2">
  <advance width="357"/>
  <unicode hex="004C"/>
  <anchor x="182" y="0" name="H"/>
  <anchor x="171" y="501" name="U"/>
  <outline>
    <contour>
      <point x="345" y="89" type="curve"/>
      <point x="329" y="95" type="line"/>
      <point x="309" y="38"/>
      <point x="295" y="32"/>
      <point x="250" y="32" type="curve" smooth="yes"/>
      <point x="198" y="32" type="line" smooth="yes"/>
      <point x="144" y="32"/>
      <point x="130" y="42"/>
      <point x="130" y="60" type="curve" smooth="yes"/>
      <point x="130" y="422" type="line" smooth="yes"/>
      <point x="130" y="429"/>
      <point x="150" y="438"/>
      <point x="183" y="445" type="curve"/>
      <point x="183" y="461" type="line"/>
      <point x="18" y="461" type="line"/>
      <point x="18" y="445" type="line"/>
      <point x="53" y="438"/>
      <point x="71" y="428"/>
      <point x="71" y="422" type="curve" smooth="yes"/>
      <point x="71" y="38" type="line" smooth="yes"/>
      <point x="71" y="31"/>
      <point x="51" y="22"/>
      <point x="18" y="15" type="curve"/>
      <point x="18" y="0" type="line"/>
      <point x="330" y="0" type="line"/>
      <point x="334" y="14"/>
      <point x="342" y="47"/>
    </contour>
  </outline>
</glyph>
<glyph name="M" format="2">
  <advance width="604"/>
  <unicode hex="004D"/>
  <anchor x="494" y="0" name="H"/>
  <anchor x="298" y="501" name="U"/>
  <outline>
    <contour>
      <point x="408" y="0" type="line"/>
      <point x="574" y="0" type="line"/>
      <point x="574" y="15" type="line"/>
      <point x="539" y="22"/>
      <point x="521" y="32"/>
      <point x="521" y="38" type="curve" smooth="yes"/>
      <point x="518" y="444" type="line"/>
      <point x="461" y="423" type="line"/>
      <point x="465" y="38" type="line" smooth="yes"/>
      <point x="465" y="31"/>
      <point x="441" y="22"/>
      <point x="408" y="15" type="curve"/>
    </contour>
    <contour>
      <point x="567" y="445" type="curve"/>
      <point x="567" y="461" type="line"/>
      <point x="462" y="461" type="line" smooth="yes"/>
      <point x="453" y="461"/>
      <point x="451" y="459"/>
      <point x="439" y="430" type="curve" smooth="yes"/>
      <point x="297" y="95" type="line" smooth="yes"/>
      <point x="291" y="80"/>
      <point x="288" y="61"/>
      <point x="299" y="0" type="curve"/>
      <point x="301" y="0" type="line"/>
      <point x="466" y="391" type="line" smooth="yes"/>
      <point x="476" y="416"/>
      <point x="534" y="445"/>
    </contour>
    <contour>
      <point x="301" y="96" type="curve" smooth="yes"/>
      <point x="153" y="430" type="line" smooth="yes"/>
      <point x="142" y="457"/>
      <point x="139" y="461"/>
      <point x="130" y="461" type="curve" smooth="yes"/>
      <point x="25" y="461" type="line"/>
      <point x="25" y="445" type="line"/>
      <point x="52" y="445"/>
      <point x="97" y="432"/>
      <point x="116" y="388" type="curve" smooth="yes"/>
      <point x="283" y="0" type="line"/>
      <point x="299" y="0" type="line"/>
      <point x="312" y="61"/>
      <point x="307" y="81"/>
    </contour>
    <contour>
      <point x="21" y="0" type="line"/>
      <point x="170" y="0" type="line"/>
      <point x="170" y="15" type="line"/>
      <point x="135" y="22"/>
      <point x="117" y="32"/>
      <point x="117" y="38" type="curve" smooth="yes"/>
      <point x="121" y="447" type="line"/>
      <point x="78" y="437" type="line"/>
      <point x="75" y="38" type="line" smooth="yes"/>
      <point x="75" y="31"/>
      <point x="55" y="22"/>
      <point x="21" y="15" type="curve"/>
    </contour>
  </outline>
</glyph>
<glyph name="N" format="2">
  <advance width="486"/>
  <unicode hex="004E"/>
  <anchor x="383" y="0" name="H"/>
  <anchor x="243" y="501" name="U"/>
  <outline>
    <contour>
      <point x="468" y="445" type="curve"/>
      <point x="468" y="461" type="line"/>
      <point x="318" y="461" type="line"/>
      <point x="318" y="445" type="line"/>
      <point x="357" y="440"/>
      <point x="371" y="428"/>
      <point x="371" y="422" type="curve" smooth="yes"/>
      <point x="371" y="26" type="line"/>
      <point x="415" y="11" type="line"/>
      <point x="415" y="422" type="line" smooth="yes"/>
      <point x="415" y="429"/>
      <point x="433" y="440"/>
    </contour>
    <contour>
      <point x="415" y="-10" type="curve"/>
      <point x="415" y="43" type="line"/>
      <point x="415" y="43"/>
      <point x="382" y="85"/>
      <point x="372" y="99" type="curve" smooth="yes"/>
      <point x="131" y="432" type="line" smooth="yes"/>
      <point x="112" y="458"/>
      <point x="110" y="461"/>
      <point x="95" y="461" type="curve" smooth="yes"/>
      <point x="18" y="461" type="line"/>
      <point x="18" y="445" type="line"/>
      <point x="43" y="441"/>
      <point x="67" y="431"/>
      <point x="87" y="402" type="curve" smooth="yes"/>
      <point x="372" y="7" type="line" smooth="yes"/>
      <point x="377" y="0"/>
      <point x="391" y="-8"/>
    </contour>
    <contour>
      <point x="18" y="0" type="line"/>
      <point x="168" y="0" type="line"/>
      <point x="168" y="15" type="line"/>
      <point x="130" y="20"/>
      <point x="115" y="32"/>
      <point x="115" y="38" type="curve" smooth="yes"/>
      <point x="115" y="447" type="line"/>
      <point x="71" y="437" type="line"/>
      <point x="71" y="38" type="line" smooth="yes"/>
      <point x="71" y="31"/>
      <point x="54" y="20"/>
      <point x="18" y="15" type="curve"/>
    </contour>
  </outline>
</glyph>
<glyph name="O" format="2">
  <advance width="433"/>
  <unicode hex="004F"/>
  <anchor x="206" y="0" name="H"/>
  <anchor x="217" y="477" name="U"/>
  <outline>
    <contour>
      <point x="203" y="-10" type="curve" smooth="yes"/>
      <point x="312" y="-10"/>
      <point x="404" y="99"/>
      <point x="404" y="225" type="curve" smooth="yes"/>
      <point x="404" y="339"/>
      <point x="341" y="449"/>
      <point x="223" y="449" type="curve" smooth="yes"/>
      <point x="110" y="449"/>
      <point x="23" y="340"/>
      <point x="23" y="213" type="curve" smooth="yes"/>
      <point x="23" y="96"/>
      <point x="89" y="-10"/>
    </contour>
    <contour>
      <point x="215" y="33" type="curve" smooth="yes"/>
      <point x="146" y="33"/>
      <point x="88" y="119"/>
      <point x="88" y="223" type="curve" smooth="yes"/>
      <point x="88" y="337"/>
      <point x="133" y="408"/>
      <point x="211" y="408" type="curve" smooth="yes"/>
      <point x="287" y="408"/>
      <point x="339" y="315"/>
      <point x="339" y="219" type="curve" smooth="yes"/>
      <point x="339" y="96"/>
      <point x="287" y="33"/>
    </contour>
  </outline>
</glyph>
<glyph name="P" format="2">
  <advance width="392"/>
  <unicode hex="0050"/>
  <anchor x="187" y="501" name="U"/>
  <outline>
    <contour>
      <point x="359" y="342" type="curve"/>
      <point x="359" y="426"/>
      <point x="291" y="472"/>
      <point x="186" y="472" type="curve" smooth="yes"/>
      <point x="127" y="472"/>
      <point x="62" y="463"/>
      <point x="15" y="450" type="curve"/>
      <point x="18" y="427" type="line"/>
      <point x="65" y="436"/>
      <point x="114" y="441"/>
      <point x="165" y="441" type="curve" smooth="yes"/>
      <point x="241" y="441"/>
      <point x="302" y="407"/>
      <point x="302" y="327" type="curve" smooth="yes"/>
      <point x="302" y="258"/>
      <point x="243" y="223"/>
      <point x="198" y="223" type="curve" smooth="yes"/>
      <point x="181" y="223"/>
      <point x="162" y="225"/>
      <point x="142" y="234" type="curve"/>
      <point x="150" y="206" type="line"/>
      <point x="167" y="199"/>
      <point x="187" y="195"/>
      <point x="209" y="195" type="curve" smooth="yes"/>
      <point x="266" y="195"/>
      <point x="359" y="241"/>
    </contour>
    <contour>
      <point x="18" y="0" type="line"/>
      <point x="194" y="0" type="line"/>
      <point x="194" y="15" type="line"/>
      <point x="143" y="24"/>
      <point x="130" y="32"/>
      <point x="130" y="38" type="curve" smooth="yes"/>
      <point x="130" y="443" type="line"/>
      <point x="71" y="443" type="line"/>
      <point x="71" y="38" type="line" smooth="yes"/>
      <point x="71" y="31"/>
      <point x="51" y="22"/>
      <point x="18" y="15" type="curve"/>
    </contour>
  </outline>
</glyph>
<glyph name="Q" format="2">
  <advance width="450"/>
  <unicode hex="0051"/>
  <anchor x="221" y="501" name="U"/>
  <outline>
    <contour>
      <point x="416" y="236" type="curve"/>
      <point x="416" y="356"/>
      <point x="352" y="472"/>
      <point x="231" y="472" type="curve" smooth="yes"/>
      <point x="116" y="472"/>
      <point x="25" y="357"/>
      <point x="25" y="224" type="curve" smooth="yes"/>
      <point x="25" y="95"/>
      <point x="102" y="-10"/>
      <point x="210" y="-10" type="curve" smooth="yes"/>
      <point x="321" y="-10"/>
      <point x="416" y="104"/>
    </contour>
    <contour>
      <point x="469" y="-42" type="curve"/>
      <point x="459" y="-30" type="line"/>
      <point x="430" y="-51"/>
      <point x="417" y="-58"/>
      <point x="405" y="-58" type="curve" smooth="yes"/>
      <point x="360" y="-58"/>
      <point x="302" y="2"/>
      <point x="246" y="17" type="curve" smooth="yes"/>
      <point x="234" y="21"/>
      <point x="183" y="7"/>
      <point x="183" y="7" type="curve"/>
      <point x="257" y="-5"/>
      <point x="327" y="-111"/>
      <point x="403" y="-111" type="curve" smooth="yes"/>
      <point x="418" y="-111"/>
      <point x="446" y="-85"/>
    </contour>
    <contour>
      <point x="359" y="230" type="curve"/>
      <point x="359" y="101"/>
      <point x="302" y="32"/>
      <point x="221" y="32" type="curve" smooth="yes"/>
      <point x="146" y="32"/>
      <point x="82" y="125"/>
      <point x="82" y="234" type="curve" smooth="yes"/>
      <point x="82" y="354"/>
      <point x="134" y="430"/>
      <point x="221" y="430" type="curve" smooth="yes"/>
      <point x="304" y="430"/>
      <point x="359" y="331"/>
    </contour>
  </outline>
</glyph>
<glyph name="R" format="2">
  <advance width="411"/>
  <unicode hex="0052"/>
  <anchor x="99" y="0" name="H"/>
  <anchor x="185" y="477" name="U"/>
  <outline>
    <contour>
      <point x="335" y="344" type="curve"/>
      <point x="335" y="404"/>
      <point x="284" y="449"/>
      <point x="170" y="449" type="curve" smooth="yes"/>
      <point x="107" y="449"/>
      <point x="58" y="439"/>
      <point x="12" y="428" type="curve"/>
      <point x="16" y="403" type="line"/>
      <point x="64" y="411"/>
      <point x="115" y="418"/>
      <point x="156" y="418" type="curve" smooth="yes"/>
      <point x="238" y="418"/>
      <point x="270" y="381"/>
      <point x="270" y="333" type="curve" smooth="yes"/>
      <point x="270" y="273"/>
      <point x="233" y="240"/>
      <point x="163" y="240" type="curve" smooth="yes"/>
      <point x="151" y="240"/>
      <point x="142" y="241"/>
      <point x="126" y="243" type="curve"/>
      <point x="128" y="212" type="line"/>
      <point x="142" y="208"/>
      <point x="156" y="207"/>
      <point x="169" y="207" type="curve" smooth="yes"/>
      <point x="261" y="207"/>
      <point x="335" y="254"/>
    </contour>
    <contour>
      <point x="409" y="14" type="curve"/>
      <point x="405" y="33" type="line"/>
      <point x="373" y="30"/>
      <point x="358" y="33"/>
      <point x="344" y="53" type="curve" smooth="yes"/>
      <point x="225" y="236" type="line"/>
      <point x="183" y="213" type="line"/>
      <point x="290" y="14" type="line" smooth="yes"/>
      <point x="296" y="3"/>
      <point x="311" y="-4"/>
      <point x="324" y="-4" type="curve" smooth="yes"/>
      <point x="342" y="-4"/>
      <point x="378" y="4"/>
    </contour>
    <contour>
      <point x="16" y="0" type="line"/>
      <point x="182" y="0" type="line"/>
      <point x="182" y="18" type="line"/>
      <point x="148" y="24"/>
      <point x="132" y="34"/>
      <point x="132" y="39" type="curve" smooth="yes"/>
      <point x="132" y="423" type="line"/>
      <point x="66" y="423" type="line"/>
      <point x="66" y="39" type="line" smooth="yes"/>
      <point x="66" y="33"/>
      <point x="47" y="24"/>
      <point x="16" y="18" type="curve"/>
    </contour>
  </outline>
</glyph>
<glyph name="S" format="2">
  <advance width="357"/>
  <unicode hex="0053"/>
  <anchor x="175" y="0" name="H"/>
  <anchor x="183" y="501" name="U"/>
  <outline>
    <contour>
      <point x="272" y="390" type="line"/>
      <point x="284" y="400"/>
      <point x="308" y="432"/>
      <point x="301" y="438" type="curve"/>
      <point x="283" y="458"/>
      <point x="236" y="472"/>
      <point x="192" y="472" type="curve" smooth="yes"/>
      <point x="85" y="472"/>
      <point x="46" y="399"/>
      <point x="46" y="354" type="curve" smooth="yes"/>
      <point x="46" y="212"/>
      <point x="274" y="237"/>
      <point x="274" y="118" type="curve" smooth="yes"/>
      <point x="274" y="72"/>
      <point x="225" y="32"/>
      <point x="181" y="32" type="curve" smooth="yes"/>
      <point x="131" y="32"/>
      <point x="85" y="59"/>
      <point x="62" y="116" type="curve"/>
      <point x="47" y="118" type="line"/>
      <point x="40" y="92"/>
      <point x="41" y="28"/>
      <point x="47" y="24" type="curve" smooth="yes"/>
      <point x="82" y="2"/>
      <point x="128" y="-10"/>
      <point x="161" y="-10" type="curve" smooth="yes"/>
      <point x="271" y="-10"/>
      <point x="324" y="72"/>
      <point x="324" y="138" type="curve" smooth="yes"/>
      <point x="324" y="282"/>
      <point x="94" y="279"/>
      <point x="94" y="371" type="curve" smooth="yes"/>
      <point x="94" y="399"/>
      <point x="116" y="435"/>
      <point x="171" y="435" type="curve" smooth="yes"/>
      <point x="198" y="435"/>
      <point x="232" y="424"/>
      <point x="259" y="392" type="curve"/>
    </contour>
  </outline>
</glyph>
<glyph name="T" format="2">
  <advance width="413"/>
  <unicode hex="0054"/>
  <anchor x="201" y="0" name="H"/>
  <anchor x="199" y="501" name="U"/>
  <outline>
    <contour>
      <point x="396" y="452" type="curve"/>
      <point x="385" y="461" type="line"/>
      <point x="200" y="461" type="line"/>
      <point x="189" y="428" type="line"/>
      <point x="335" y="428" type="line" smooth="yes"/>
      <point x="355" y="428"/>
      <point x="359" y="411"/>
      <point x="369" y="366" type="curve"/>
      <point x="385" y="366" type="line"/>
      <point x="391" y="396"/>
      <point x="395" y="427"/>
    </contour>
    <contour>
      <point x="62" y="428" type="curve" smooth="yes"/>
      <point x="255" y="428" type="line"/>
      <point x="245" y="461" type="line"/>
      <point x="15" y="461" type="line"/>
      <point x="10" y="435"/>
      <point x="5" y="399"/>
      <point x="3" y="371" type="curve"/>
      <point x="19" y="364" type="line"/>
      <point x="41" y="421"/>
      <point x="47" y="428"/>
    </contour>
    <contour>
      <point x="112" y="0" type="line"/>
      <point x="291" y="0" type="line"/>
      <point x="291" y="15" type="line"/>
      <point x="246" y="24"/>
      <point x="231" y="35"/>
      <point x="231" y="42" type="curve" smooth="yes"/>
      <point x="231" y="431" type="line" smooth="yes"/>
      <point x="231" y="437"/>
      <point x="250" y="438"/>
      <point x="283" y="445" type="curve"/>
      <point x="283" y="461" type="line"/>
      <point x="119" y="461" type="line"/>
      <point x="119" y="445" type="line"/>
      <point x="154" y="438"/>
      <point x="172" y="436"/>
      <point x="172" y="431" type="curve" smooth="yes"/>
      <point x="172" y="42" type="line" smooth="yes"/>
      <point x="172" y="35"/>
      <point x="157" y="24"/>
      <point x="112" y="15" type="curve"/>
    </contour>
  </outline>
</glyph>
<glyph name="U" format="2">
  <advance width="470"/>
  <unicode hex="0055"/>
  <outline>
    <contour>
      <point x="449" y="420" type="curve"/>
      <point x="449" y="439" type="line"/>
      <point x="299" y="439" type="line"/>
      <point x="299" y="420" type="line"/>
      <point x="332" y="414"/>
      <point x="348" y="404"/>
      <point x="348" y="399" type="curve" smooth="yes"/>
      <point x="348" y="170" type="line" smooth="yes"/>
      <point x="348" y="101"/>
      <point x="316" y="33"/>
      <point x="250" y="33" type="curve" smooth="yes"/>
      <point x="170" y="33"/>
      <point x="132" y="84"/>
      <point x="132" y="174" type="curve" smooth="yes"/>
      <point x="132" y="399" type="line" smooth="yes"/>
      <point x="132" y="405"/>
      <point x="150" y="414"/>
      <point x="182" y="420" type="curve"/>
      <point x="182" y="439" type="line"/>
      <point x="16" y="439" type="line"/>
      <point x="16" y="420" type="line"/>
      <point x="50" y="414"/>
      <point x="66" y="404"/>
      <point x="66" y="399" type="curve" smooth="yes"/>
      <point x="66" y="154" type="line" smooth="yes"/>
      <point x="66" y="41"/>
      <point x="138" y="-10"/>
      <point x="234" y="-10" type="curve" smooth="yes"/>
      <point x="334" y="-10"/>
      <point x="399" y="60"/>
      <point x="399" y="182" type="curve" smooth="yes"/>
      <point x="399" y="399" type="line" smooth="yes"/>
      <point x="399" y="405"/>
      <point x="417" y="414"/>
    </contour>
  </outline>
</glyph>
<glyph name="V" format="2">
  <advance width="467"/>
  <unicode hex="0056"/>
  <outline>
    <contour>
      <point x="454" y="420" type="curve"/>
      <point x="454" y="439" type="line"/>
      <point x="307" y="439" type="line"/>
      <point x="307" y="420" type="line"/>
      <point x="345" y="416"/>
      <point x="360" y="411"/>
      <point x="355" y="397" type="curve" smooth="yes"/>
      <point x="242" y="80" type="line"/>
      <point x="122" y="398" type="line" smooth="yes"/>
      <point x="117" y="411"/>
      <point x="129" y="418"/>
      <point x="166" y="420" type="curve"/>
      <point x="166" y="439" type="line"/>
      <point x="6" y="439" type="line"/>
      <point x="6" y="420" type="line"/>
      <point x="35" y="417"/>
      <point x="50" y="410"/>
      <point x="54" y="397" type="curve" smooth="yes"/>
      <point x="209" y="-10" type="line"/>
      <point x="225" y="-6"/>
      <point x="260" y="2"/>
      <point x="267" y="23" type="curve" smooth="yes"/>
      <point x="400" y="397" type="line"/>
      <point x="404" y="410"/>
      <point x="422" y="415"/>
    </contour>
  </outline>
</glyph>
<glyph name="W" format="2">
  <advance width="637"/>
  <unicode hex="0057"/>
  <anchor x="315" y="501" name="U"/>
  <outline>
    <contour>
      <point x="623" y="445" type="curve"/>
      <point x="623" y="461" type="line"/>
      <point x="468" y="461" type="line"/>
      <point x="468" y="445" type="line"/>
      <point x="500" y="440"/>
      <point x="526" y="434"/>
      <point x="524" y="422" type="curve"/>
      <point x="455" y="91" type="line"/>
      <point x="326" y="461" type="line"/>
      <point x="306" y="461" type="line"/>
      <point x="187" y="91" type="line"/>
      <point x="114" y="420" type="line" smooth="yes"/>
      <point x="112" y="430"/>
      <point x="116" y="440"/>
      <point x="164" y="445" type="curve"/>
      <point x="164" y="461" type="line"/>
      <point x="7" y="461" type="line"/>
      <point x="7" y="445" type="line"/>
      <point x="42" y="439"/>
      <point x="55" y="432"/>
      <point x="57" y="420" type="curve" smooth="yes"/>
      <point x="153" y="-10" type="line"/>
      <point x="172" y="-6"/>
      <point x="201" y="0"/>
      <point x="208" y="21" type="curve" smooth="yes"/>
      <point x="313" y="345" type="line"/>
      <point x="432" y="-10" type="line"/>
      <point x="447" y="-7"/>
      <point x="479" y="0"/>
      <point x="483" y="21" type="curve" smooth="yes"/>
      <point x="567" y="422" type="line" smooth="yes"/>
      <point x="569" y="430"/>
      <point x="580" y="436"/>
    </contour>
  </outline>
</glyph>
<glyph name="X" format="2">
  <advance width="461"/>
  <unicode hex="0058"/>
  <anchor x="230" y="501" name="U"/>
  <outline>
    <contour>
      <point x="432" y="445" type="curve"/>
      <point x="432" y="461" type="line"/>
      <point x="266" y="461" type="line"/>
      <point x="266" y="445" type="line"/>
      <point x="309" y="442"/>
      <point x="327" y="436"/>
      <point x="314" y="414" type="curve" smooth="yes"/>
      <point x="211" y="249" type="line"/>
      <point x="229" y="195" type="line"/>
      <point x="365" y="414" type="line" smooth="yes"/>
      <point x="377" y="435"/>
      <point x="396" y="441"/>
    </contour>
    <contour>
      <point x="284" y="0" type="line"/>
      <point x="450" y="0" type="line"/>
      <point x="450" y="15" type="line"/>
      <point x="421" y="19"/>
      <point x="406" y="25"/>
      <point x="392" y="46" type="curve" smooth="yes"/>
      <point x="140" y="414" type="line" smooth="yes"/>
      <point x="126" y="436"/>
      <point x="138" y="441"/>
      <point x="180" y="445" type="curve"/>
      <point x="180" y="461" type="line"/>
      <point x="15" y="461" type="line"/>
      <point x="15" y="445" type="line"/>
      <point x="47" y="440"/>
      <point x="57" y="436"/>
      <point x="72" y="414" type="curve" smooth="yes"/>
      <point x="323" y="46" type="line" smooth="yes"/>
      <point x="336" y="26"/>
      <point x="327" y="20"/>
      <point x="284" y="15" type="curve"/>
    </contour>
    <contour>
      <point x="128" y="46" type="curve" smooth="yes"/>
      <point x="231" y="211" type="line"/>
      <point x="218" y="275" type="line"/>
      <point x="78" y="46" type="line" smooth="yes"/>
      <point x="65" y="26"/>
      <point x="42" y="17"/>
      <point x="11" y="15" type="curve"/>
      <point x="11" y="0" type="line"/>
      <point x="176" y="0" type="line"/>
      <point x="176" y="15" type="line"/>
      <point x="131" y="18"/>
      <point x="115" y="24"/>
    </contour>
  </outline>
</glyph>
<glyph name="Y" format="2">
  <advance width="445"/>
  <unicode hex="0059"/>
  <anchor x="221" y="501" name="U"/>
  <outline>
    <contour>
      <point x="430" y="445" type="curve"/>
      <point x="430" y="461" type="line"/>
      <point x="285" y="461" type="line"/>
      <point x="285" y="445" type="line"/>
      <point x="323" y="440"/>
      <point x="333" y="434"/>
      <point x="326" y="421" type="curve" smooth="yes"/>
      <point x="228" y="249" type="line"/>
      <point x="194" y="319"/>
      <point x="145" y="403"/>
      <point x="108" y="450" type="curve" smooth="yes"/>
      <point x="101" y="460"/>
      <point x="90" y="465"/>
      <point x="80" y="465" type="curve" smooth="yes"/>
      <point x="60" y="465"/>
      <point x="28" y="461"/>
      <point x="0" y="457" type="curve"/>
      <point x="1" y="441" type="line"/>
      <point x="42" y="441"/>
      <point x="52" y="432"/>
      <point x="61" y="421" type="curve"/>
      <point x="98" y="371"/>
      <point x="165" y="260"/>
      <point x="199" y="179" type="curve"/>
      <point x="239" y="179" type="line"/>
      <point x="373" y="421" type="line" smooth="yes"/>
      <point x="380" y="433"/>
      <point x="397" y="439"/>
    </contour>
    <contour>
      <point x="131" y="0" type="line"/>
      <point x="311" y="0" type="line"/>
      <point x="311" y="15" type="line"/>
      <point x="265" y="24"/>
      <point x="250" y="35"/>
      <point x="250" y="42" type="curve" smooth="yes"/>
      <point x="250" y="233" type="line"/>
      <point x="191" y="233" type="line"/>
      <point x="191" y="42" type="line" smooth="yes"/>
      <point x="191" y="35"/>
      <point x="176" y="24"/>
      <point x="131" y="15" type="curve"/>
    </contour>
  </outline>
</glyph>
<glyph name="Z" format="2">
  <advance width="378"/>
  <unicode hex="005A"/>
  <anchor x="196" y="477" name="U"/>
  <outline>
    <contour>
      <point x="351" y="109" type="curve"/>
      <point x="329" y="114" type="line"/>
      <point x="311" y="57"/>
      <point x="301" y="38"/>
      <point x="281" y="38" type="curve" smooth="yes"/>
      <point x="106" y="38" type="line"/>
      <point x="348" y="423" type="line"/>
      <point x="338" y="439" type="line"/>
      <point x="117" y="439" type="line" smooth="yes"/>
      <point x="90" y="439"/>
      <point x="76" y="439"/>
      <point x="51" y="445" type="curve"/>
      <point x="40" y="333" type="line"/>
      <point x="63" y="328" type="line"/>
      <point x="73" y="376"/>
      <point x="96" y="401"/>
      <point x="111" y="401" type="curve" smooth="yes"/>
      <point x="263" y="401" type="line"/>
      <point x="19" y="16" type="line"/>
      <point x="30" y="0" type="line"/>
      <point x="347" y="0" type="line"/>
      <point x="348" y="27"/>
      <point x="350" y="79"/>
    </contour>
  </outline>
</glyph>
<glyph name="bracketleft" format="2">
  <advance width="230"/>
  <unicode hex="005B"/>
  <outline>
    <contour>
      <point x="216" y="-91" type="curve"/>
      <point x="203" y="-80" type="line"/>
      <point x="102" y="-80" type="line"/>
      <point x="102" y="543" type="line"/>
      <point x="205" y="543" type="line"/>
      <point x="208" y="549"/>
      <point x="213" y="564"/>
      <point x="215" y="576" type="curve"/>
      <point x="203" y="585" type="line"/>
      <point x="51" y="585" type="line"/>
      <point x="51" y="-122" type="line"/>
      <point x="205" y="-122" type="line"/>
      <point x="209" y="-114"/>
      <point x="213" y="-100"/>
    </contour>
  </outline>
</glyph>
<glyph name="backslash" format="2">
  <advance width="335"/>
  <unicode hex="005C"/>
  <outline>
    <contour>
      <point x="304" y="-116" type="curve"/>
      <point x="317" y="-107" type="line"/>
      <point x="74" y="540" type="line"/>
      <point x="62" y="548"/>
      <point x="44" y="554"/>
      <point x="31" y="558" type="curve"/>
      <point x="17" y="549" type="line"/>
      <point x="260" y="-98" type="line"/>
      <point x="268" y="-104"/>
      <point x="293" y="-113"/>
    </contour>
  </outline>
</glyph>
<glyph name="bracketright" format="2">
  <advance width="230"/>
  <unicode hex="005D"/>
  <outline>
    <contour>
      <point x="27" y="-122" type="line"/>
      <point x="179" y="-122" type="line"/>
      <point x="179" y="585" type="line"/>
      <point x="24" y="585" type="line"/>
      <point x="21" y="577"/>
      <point x="16" y="563"/>
      <point x="14" y="553" type="curve"/>
      <point x="27" y="543" type="line"/>
      <point x="128" y="543" type="line"/>
      <point x="128" y="-80" type="line"/>
      <point x="24" y="-80" type="line"/>
      <point x="21" y="-86"/>
      <point x="16" y="-100"/>
      <point x="15" y="-112" type="curve"/>
    </contour>
  </outline>
</glyph>
<glyph name="asciicircum" format="2">
  <advance width="369"/>
  <unicode hex="005E"/>
  <anchor x="184" y="618" name="U"/>
  <outline>
    <contour>
      <point x="332" y="232" type="curve"/>
      <point x="203" y="567" type="line"/>
      <point x="189" y="561"/>
      <point x="166" y="546"/>
      <point x="154" y="535" type="curve"/>
      <point x="36" y="216" type="line"/>
      <point x="45" y="206" type="line"/>
      <point x="54" y="211"/>
      <point x="74" y="222"/>
      <point x="84" y="232" type="curve"/>
      <point x="176" y="481" type="line"/>
      <point x="279" y="216" type="line"/>
      <point x="293" y="206" type="line"/>
      <point x="309" y="214"/>
      <point x="320" y="221"/>
    </contour>
  </outline>
</glyph>
<glyph name="underscore" format="2">
  <advance width="280"/>
  <unicode hex="005F"/>
  <outline>
    <contour>
      <point x="292" y="-55" type="curve"/>
      <point x="283" y="-45" type="line"/>
      <point x="2" y="-45" type="line"/>
      <point x="-1" y="-54"/>
      <point x="-7" y="-69"/>
      <point x="-10" y="-79" type="curve"/>
      <point x="0" y="-89" type="line"/>
      <point x="280" y="-89" type="line"/>
      <point x="283" y="-80"/>
      <point x="289" y="-64"/>
    </contour>
  </outline>
</glyph>
<glyph name="grave" format="2">
  <advance width="239"/>
  <unicode hex="0060"/>
  <anchor x="119" y="516" name="U"/>
  <outline>
    <contour>
      <point x="160" y="394" type="curve"/>
      <point x="72" y="545" type="line"/>
      <point x="60" y="544"/>
      <point x="28" y="538"/>
      <point x="19" y="536" type="curve"/>
      <point x="10" y="521" type="line"/>
      <point x="139" y="383" type="line"/>
      <point x="148" y="385"/>
      <point x="156" y="391"/>
    </contour>
  </outline>
</glyph>
<glyph name="a" format="2">
  <advance width="344"/>
  <unicode hex="0061"/>
  <anchor x="163" y="0" name="H"/>
  <anchor x="175" y="384" name="U"/>
  <outline>
    <contour>
      <point x="339" y="30" type="curve"/>
      <point x="333" y="46" type="line"/>
      <point x="314" y="38"/>
      <point x="304" y="36"/>
      <point x="297" y="36" type="curve" smooth="yes"/>
      <point x="288" y="36"/>
      <point x="283" y="44"/>
      <point x="283" y="65" type="curve" smooth="yes"/>
      <point x="283" y="271" type="line" smooth="yes"/>
      <point x="283" y="321"/>
      <point x="252" y="351"/>
      <point x="199" y="351" type="curve" smooth="yes"/>
      <point x="137" y="351"/>
      <point x="61" y="307"/>
      <point x="39" y="258" type="curve"/>
      <point x="44" y="244" type="line"/>
      <point x="56" y="241"/>
      <point x="108" y="255"/>
      <point x="106" y="265" type="curve" smooth="yes"/>
      <point x="104" y="294"/>
      <point x="135" y="314"/>
      <point x="166" y="314" type="curve" smooth="yes"/>
      <point x="214" y="316"/>
      <point x="228" y="290"/>
      <point x="228" y="257" type="curve" smooth="yes"/>
      <point x="228" y="60" type="line" smooth="yes"/>
      <point x="228" y="16"/>
      <point x="239" y="-10"/>
      <point x="257" y="-10" type="curve" smooth="yes"/>
      <point x="270" y="-10"/>
      <point x="297" y="1"/>
    </contour>
    <contour>
      <point x="231" y="178" type="curve"/>
      <point x="231" y="206" type="line"/>
      <point x="116" y="189"/>
      <point x="86" y="170"/>
      <point x="62" y="146" type="curve" smooth="yes"/>
      <point x="44" y="128"/>
      <point x="29" y="105"/>
      <point x="29" y="68" type="curve" smooth="yes"/>
      <point x="29" y="11"/>
      <point x="72" y="-10"/>
      <point x="107" y="-10" type="curve" smooth="yes"/>
      <point x="140" y="-10"/>
      <point x="188" y="9"/>
      <point x="234" y="59" type="curve"/>
      <point x="231" y="86" type="line"/>
      <point x="193" y="52"/>
      <point x="158" y="36"/>
      <point x="128" y="36" type="curve" smooth="yes"/>
      <point x="116" y="36"/>
      <point x="89" y="45"/>
      <point x="89" y="83" type="curve" smooth="yes"/>
      <point x="89" y="106"/>
      <point x="98" y="123"/>
      <point x="110" y="136" type="curve" smooth="yes"/>
      <point x="126" y="153"/>
      <point x="147" y="165"/>
    </contour>
  </outline>
</glyph>
<glyph name="b" format="2">
  <advance width="380"/>
  <unicode hex="0062"/>
  <anchor x="175" y="0" name="H"/>
  <anchor x="190" y="593" name="U"/>
  <outline>
    <contour>
      <point x="347" y="180" type="curve"/>
      <point x="347" y="287"/>
      <point x="299" y="351"/>
      <point x="233" y="351" type="curve" smooth="yes"/>
      <point x="205" y="351"/>
      <point x="154" y="324"/>
      <point x="106" y="266" type="curve"/>
      <point x="106" y="555" type="line"/>
      <point x="102" y="559"/>
      <point x="97" y="563"/>
      <point x="92" y="567" type="curve"/>
      <point x="64" y="552"/>
      <point x="35" y="545"/>
      <point x="3" y="538" type="curve"/>
      <point x="3" y="523" type="line"/>
      <point x="43" y="518"/>
      <point x="51" y="517"/>
      <point x="51" y="474" type="curve" smooth="yes"/>
      <point x="51" y="35" type="line"/>
      <point x="104" y="5"/>
      <point x="153" y="-10"/>
      <point x="171" y="-10" type="curve" smooth="yes"/>
      <point x="279" y="-10"/>
      <point x="347" y="95"/>
    </contour>
    <contour>
      <point x="298" y="149" type="curve"/>
      <point x="298" y="93"/>
      <point x="266" y="36"/>
      <point x="207" y="36" type="curve" smooth="yes"/>
      <point x="190" y="36"/>
      <point x="145" y="45"/>
      <point x="106" y="74" type="curve"/>
      <point x="106" y="223" type="line"/>
      <point x="147" y="284"/>
      <point x="190" y="302"/>
      <point x="207" y="302" type="curve" smooth="yes"/>
      <point x="254" y="302"/>
      <point x="298" y="246"/>
    </contour>
  </outline>
</glyph>
<glyph name="c" format="2">
  <advance width="316"/>
  <unicode hex="0063"/>
  <outline>
    <contour>
      <point x="299" y="66" type="curve"/>
      <point x="283" y="83" type="line"/>
      <point x="232" y="41"/>
      <point x="216" y="39"/>
      <point x="190" y="39" type="curve" smooth="yes"/>
      <point x="136" y="39"/>
      <point x="88" y="88"/>
      <point x="88" y="165" type="curve" smooth="yes"/>
      <point x="88" y="253"/>
      <point x="131" y="294"/>
      <point x="177" y="294" type="curve" smooth="yes"/>
      <point x="222" y="294"/>
      <point x="245" y="268"/>
      <point x="255" y="242" type="curve"/>
      <point x="272" y="238" type="line"/>
      <point x="280" y="251"/>
      <point x="296" y="295"/>
      <point x="294" y="307" type="curve"/>
      <point x="279" y="323"/>
      <point x="238" y="334"/>
      <point x="207" y="334" type="curve" smooth="yes"/>
      <point x="103" y="334"/>
      <point x="26" y="254"/>
      <point x="26" y="154" type="curve" smooth="yes"/>
      <point x="26" y="51"/>
      <point x="93" y="-10"/>
      <point x="163" y="-10" type="curve" smooth="yes"/>
      <point x="207" y="-10"/>
      <point x="238" y="-4"/>
    </contour>
  </outline>
</glyph>
<glyph name="d" format="2">
  <advance width="390"/>
  <unicode hex="0064"/>
  <anchor x="204" y="0" name="H"/>
  <anchor x="192" y="618" name="U"/>
  <outline>
    <contour>
      <point x="384" y="30" type="curve"/>
      <point x="380" y="46" type="line"/>
      <point x="350" y="35"/>
      <point x="340" y="33"/>
      <point x="336" y="38" type="curve" smooth="yes"/>
      <point x="331" y="45"/>
      <point x="327" y="58"/>
      <point x="327" y="93" type="curve" smooth="yes"/>
      <point x="327" y="556" type="line"/>
      <point x="316" y="567" type="line"/>
      <point x="291" y="559"/>
      <point x="259" y="548"/>
      <point x="219" y="543" type="curve"/>
      <point x="219" y="529" type="line"/>
      <point x="271" y="525"/>
      <point x="272" y="520"/>
      <point x="272" y="466" type="curve" smooth="yes"/>
      <point x="272" y="99" type="line" smooth="yes"/>
      <point x="272" y="17"/>
      <point x="284" y="-10"/>
      <point x="303" y="-10" type="curve" smooth="yes"/>
      <point x="317" y="-10"/>
      <point x="339" y="0"/>
    </contour>
    <contour>
      <point x="299" y="95" type="curve"/>
      <point x="297" y="98"/>
      <point x="292" y="105"/>
      <point x="286" y="108" type="curve"/>
      <point x="251" y="75"/>
      <point x="216" y="36"/>
      <point x="178" y="36" type="curve" smooth="yes"/>
      <point x="138" y="36"/>
      <point x="84" y="90"/>
      <point x="84" y="173" type="curve" smooth="yes"/>
      <point x="84" y="265"/>
      <point x="128" y="311"/>
      <point x="190" y="311" type="curve" smooth="yes"/>
      <point x="227" y="311"/>
      <point x="260" y="293"/>
      <point x="275" y="262" type="curve"/>
      <point x="291" y="272"/>
      <point x="296" y="278"/>
      <point x="296" y="307" type="curve"/>
      <point x="258" y="345"/>
      <point x="231" y="351"/>
      <point x="201" y="351" type="curve" smooth="yes"/>
      <point x="99" y="351"/>
      <point x="29" y="246"/>
      <point x="29" y="162" type="curve" smooth="yes"/>
      <point x="29" y="53"/>
      <point x="98" y="-10"/>
      <point x="152" y="-10" type="curve" smooth="yes"/>
      <point x="213" y="-10"/>
      <point x="250" y="30"/>
    </contour>
  </outline>
</glyph>
<glyph name="e" format="2">
  <advance width="346"/>
  <unicode hex="0065"/>
  <anchor x="183" y="0" name="H"/>
  <anchor x="186" y="384" name="U"/>
  <outline>
    <contour>
      <point x="317" y="203" type="curve"/>
      <point x="317" y="266"/>
      <point x="287" y="351"/>
      <point x="191" y="351" type="curve" smooth="yes"/>
      <point x="165" y="351"/>
      <point x="131" y="337"/>
      <point x="110" y="322" type="curve" smooth="yes"/>
      <point x="59" y="287"/>
      <point x="29" y="224"/>
      <point x="29" y="158" type="curve" smooth="yes"/>
      <point x="29" y="55"/>
      <point x="95" y="-10"/>
      <point x="170" y="-10" type="curve" smooth="yes"/>
      <point x="220" y="-10"/>
      <point x="249" y="0"/>
      <point x="314" y="71" type="curve"/>
      <point x="312" y="75"/>
      <point x="307" y="83"/>
      <point x="301" y="86" type="curve"/>
      <point x="246" y="41"/>
      <point x="223" y="36"/>
      <point x="192" y="36" type="curve" smooth="yes"/>
      <point x="125" y="36"/>
      <point x="84" y="105"/>
      <point x="84" y="182" type="curve" smooth="yes"/>
      <point x="84" y="257"/>
      <point x="123" y="313"/>
      <point x="181" y="313" type="curve" smooth="yes"/>
      <point x="245" y="313"/>
      <point x="257" y="251"/>
      <point x="257" y="225" type="curve" smooth="yes"/>
      <point x="257" y="215"/>
      <point x="254" y="212"/>
      <point x="243" y="212" type="curve" smooth="yes"/>
      <point x="67" y="212" type="line"/>
      <point x="66" y="179" type="line"/>
      <point x="276" y="179" type="line"/>
      <point x="292" y="185"/>
      <point x="308" y="194"/>
    </contour>
  </outline>
</glyph>
<glyph name="f" format="2">
  <advance width="233"/>
  <unicode hex="0066"/>
  <anchor x="100" y="0" name="H"/>
  <anchor x="153" y="593" name="U"/>
  <outline>
    <contour>
      <point x="299" y="532" type="curve"/>
      <point x="299" y="540"/>
      <point x="260" y="567"/>
      <point x="230" y="567" type="curve" smooth="yes"/>
      <point x="211" y="567"/>
      <point x="172" y="555"/>
      <point x="146" y="533" type="curve" smooth="yes"/>
      <point x="107" y="502"/>
      <point x="73" y="467"/>
      <point x="73" y="351" type="curve" smooth="yes"/>
      <point x="73" y="340" type="line"/>
      <point x="45" y="340" type="line"/>
      <point x="16" y="316" type="line"/>
      <point x="24" y="305" type="line"/>
      <point x="73" y="305" type="line"/>
      <point x="73" y="37" type="line" smooth="yes"/>
      <point x="73" y="31"/>
      <point x="55" y="21"/>
      <point x="21" y="15" type="curve"/>
      <point x="21" y="0" type="line"/>
      <point x="204" y="0" type="line"/>
      <point x="204" y="15" type="line"/>
      <point x="147" y="26"/>
      <point x="128" y="31"/>
      <point x="128" y="37" type="curve" smooth="yes"/>
      <point x="128" y="305" type="line"/>
      <point x="167" y="305"/>
      <point x="186" y="298"/>
      <point x="197" y="292" type="curve"/>
      <point x="206" y="297"/>
      <point x="224" y="316"/>
      <point x="233" y="329" type="curve"/>
      <point x="222" y="340" type="line"/>
      <point x="128" y="340" type="line"/>
      <point x="128" y="372" type="line" smooth="yes"/>
      <point x="128" y="492"/>
      <point x="165" y="521"/>
      <point x="190" y="521" type="curve" smooth="yes"/>
      <point x="203" y="521"/>
      <point x="229" y="512"/>
      <point x="252" y="491" type="curve"/>
      <point x="266" y="498"/>
      <point x="299" y="524"/>
    </contour>
  </outline>
</glyph>
<glyph name="g" format="2">
  <advance width="355"/>
  <unicode hex="0067"/>
  <anchor x="177" y="-163" name="H"/>
  <anchor x="177" y="366" name="U"/>
  <outline>
    <contour>
      <point x="346" y="-40" type="curve" smooth="yes"/>
      <point x="346" y="-2"/>
      <point x="318" y="29"/>
      <point x="214" y="41" type="curve"/>
      <point x="141" y="50"/>
      <point x="128" y="59"/>
      <point x="128" y="70" type="curve" smooth="yes"/>
      <point x="128" y="73"/>
      <point x="139" y="94"/>
      <point x="180" y="122" type="curve"/>
      <point x="126" y="116" type="line"/>
      <point x="72" y="81"/>
      <point x="59" y="59"/>
      <point x="59" y="49" type="curve" smooth="yes"/>
      <point x="59" y="27"/>
      <point x="93" y="5"/>
      <point x="185" y="-5" type="curve" smooth="yes"/>
      <point x="265" y="-15"/>
      <point x="284" y="-33"/>
      <point x="284" y="-56" type="curve" smooth="yes"/>
      <point x="284" y="-99"/>
      <point x="248" y="-132"/>
      <point x="188" y="-132" type="curve" smooth="yes"/>
      <point x="124" y="-132"/>
      <point x="71" y="-101"/>
      <point x="71" y="-65" type="curve" smooth="yes"/>
      <point x="71" y="-49"/>
      <point x="77" y="-28"/>
      <point x="148" y="10" type="curve"/>
      <point x="146" y="19"/>
      <point x="116" y="21"/>
      <point x="116" y="21" type="curve"/>
      <point x="25" y="-25"/>
      <point x="8" y="-53"/>
      <point x="8" y="-78" type="curve" smooth="yes"/>
      <point x="8" y="-146"/>
      <point x="99" y="-173"/>
      <point x="167" y="-173" type="curve" smooth="yes"/>
      <point x="251" y="-173"/>
      <point x="346" y="-113"/>
    </contour>
    <contour>
      <point x="352" y="323" type="curve"/>
      <point x="344" y="334" type="line"/>
      <point x="323" y="326"/>
      <point x="286" y="313"/>
      <point x="229" y="309" type="curve"/>
      <point x="244" y="281" type="line"/>
      <point x="284" y="279"/>
      <point x="307" y="282"/>
      <point x="332" y="286" type="curve"/>
      <point x="342" y="298"/>
      <point x="348" y="311"/>
    </contour>
    <contour>
      <point x="297" y="223" type="curve" smooth="yes"/>
      <point x="297" y="283"/>
      <point x="244" y="334"/>
      <point x="173" y="334" type="curve" smooth="yes"/>
      <point x="101" y="334"/>
      <point x="33" y="278"/>
      <point x="33" y="209" type="curve" smooth="yes"/>
      <point x="33" y="145"/>
      <point x="86" y="102"/>
      <point x="157" y="102" type="curve" smooth="yes"/>
      <point x="228" y="102"/>
      <point x="297" y="152"/>
    </contour>
    <contour>
      <point x="238" y="209" type="curve" smooth="yes"/>
      <point x="238" y="164"/>
      <point x="207" y="141"/>
      <point x="180" y="141" type="curve" smooth="yes"/>
      <point x="119" y="141"/>
      <point x="92" y="181"/>
      <point x="92" y="229" type="curve" smooth="yes"/>
      <point x="92" y="275"/>
      <point x="127" y="298"/>
      <point x="150" y="298" type="curve" smooth="yes"/>
      <point x="207" y="298"/>
      <point x="238" y="257"/>
    </contour>
  </outline>
</glyph>
<glyph name="h" format="2">
  <advance width="401"/>
  <unicode hex="0068"/>
  <anchor x="95" y="0" name="H"/>
  <anchor x="204" y="565" name="U"/>
  <outline>
    <contour>
      <point x="232" y="0" type="line"/>
      <point x="391" y="0" type="line"/>
      <point x="391" y="18" type="line"/>
      <point x="354" y="27"/>
      <point x="343" y="33"/>
      <point x="343" y="39" type="curve" smooth="yes"/>
      <point x="343" y="254" type="line" smooth="yes"/>
      <point x="343" y="310"/>
      <point x="306" y="334"/>
      <point x="266" y="334" type="curve" smooth="yes"/>
      <point x="230" y="334"/>
      <point x="173" y="303"/>
      <point x="129" y="249" type="curve"/>
      <point x="129" y="527" type="line"/>
      <point x="115" y="540" type="line"/>
      <point x="86" y="526"/>
      <point x="62" y="520"/>
      <point x="18" y="512" type="curve"/>
      <point x="18" y="495" type="line"/>
      <point x="63" y="490"/>
      <point x="66" y="487"/>
      <point x="66" y="449" type="curve" smooth="yes"/>
      <point x="66" y="39" type="line" smooth="yes"/>
      <point x="66" y="32"/>
      <point x="49" y="26"/>
      <point x="18" y="18" type="curve"/>
      <point x="18" y="0" type="line"/>
      <point x="177" y="0" type="line"/>
      <point x="177" y="18" type="line"/>
      <point x="147" y="24"/>
      <point x="129" y="32"/>
      <point x="129" y="39" type="curve" smooth="yes"/>
      <point x="129" y="201" type="line"/>
      <point x="167" y="255"/>
      <point x="207" y="283"/>
      <point x="237" y="283" type="curve" smooth="yes"/>
      <point x="267" y="283"/>
      <point x="280" y="270"/>
      <point x="280" y="213" type="curve" smooth="yes"/>
      <point x="280" y="39" type="line" smooth="yes"/>
      <point x="280" y="33"/>
      <point x="266" y="27"/>
      <point x="232" y="18" type="curve"/>
    </contour>
  </outline>
</glyph>
<glyph name="i" format="2">
  <advance width="200"/>
  <unicode hex="0069"/>
  <anchor x="102" y="0" name="H"/>
  <anchor x="102" y="366" name="U"/>
  <outline>
    <contour>
      <point x="145" y="439" type="curve" smooth="yes"/>
      <point x="145" y="463"/>
      <point x="131" y="474"/>
      <point x="109" y="474" type="curve" smooth="yes"/>
      <point x="84" y="474"/>
      <point x="63" y="453"/>
      <point x="63" y="425" type="curve" smooth="yes"/>
      <point x="63" y="402"/>
      <point x="76" y="390"/>
      <point x="99" y="390" type="curve" smooth="yes"/>
      <point x="125" y="390"/>
      <point x="145" y="411"/>
    </contour>
    <contour>
      <point x="23" y="0" type="line"/>
      <point x="182" y="0" type="line"/>
      <point x="182" y="18" type="line"/>
      <point x="148" y="24"/>
      <point x="134" y="34"/>
      <point x="134" y="39" type="curve" smooth="yes"/>
      <point x="134" y="334" type="line"/>
      <point x="118" y="334" type="line"/>
      <point x="92" y="323"/>
      <point x="56" y="313"/>
      <point x="23" y="307" type="curve"/>
      <point x="23" y="290" type="line"/>
      <point x="71" y="285"/>
      <point x="71" y="278"/>
      <point x="71" y="231" type="curve" smooth="yes"/>
      <point x="71" y="39" type="line" smooth="yes"/>
      <point x="71" y="33"/>
      <point x="54" y="24"/>
      <point x="23" y="18" type="curve"/>
    </contour>
  </outline>
</glyph>
<glyph name="j" format="2">
  <advance width="194"/>
  <unicode hex="006A"/>
  <anchor x="102" y="384" name="U"/>
  <outline>
    <contour>
      <point x="140" y="461" type="curve" smooth="yes"/>
      <point x="140" y="484"/>
      <point x="130" y="496"/>
      <point x="109" y="496" type="curve" smooth="yes"/>
      <point x="86" y="496"/>
      <point x="67" y="474"/>
      <point x="67" y="446" type="curve" smooth="yes"/>
      <point x="67" y="424"/>
      <point x="76" y="411"/>
      <point x="98" y="411" type="curve" smooth="yes"/>
      <point x="122" y="411"/>
      <point x="140" y="434"/>
    </contour>
    <contour>
      <point x="130" y="36" type="curve" smooth="yes"/>
      <point x="130" y="351" type="line"/>
      <point x="116" y="351" type="line"/>
      <point x="86" y="338"/>
      <point x="64" y="329"/>
      <point x="23" y="322" type="curve"/>
      <point x="23" y="307" type="line"/>
      <point x="74" y="302"/>
      <point x="75" y="295"/>
      <point x="75" y="245" type="curve" smooth="yes"/>
      <point x="75" y="15" type="line" smooth="yes"/>
      <point x="75" y="-102"/>
      <point x="44" y="-133"/>
      <point x="16" y="-133" type="curve" smooth="yes"/>
      <point x="-1" y="-133"/>
      <point x="-18" y="-130"/>
      <point x="-34" y="-117" type="curve"/>
      <point x="-48" y="-123"/>
      <point x="-80" y="-149"/>
      <point x="-80" y="-157" type="curve" smooth="yes"/>
      <point x="-80" y="-165"/>
      <point x="-49" y="-183"/>
      <point x="-19" y="-183" type="curve" smooth="yes"/>
      <point x="-1" y="-183"/>
      <point x="34" y="-167"/>
      <point x="60" y="-146" type="curve" smooth="yes"/>
      <point x="99" y="-114"/>
      <point x="130" y="-76"/>
    </contour>
  </outline>
</glyph>
<glyph name="k" format="2">
  <advance width="365"/>
  <unicode hex="006B"/>
  <anchor x="91" y="0" name="H"/>
  <anchor x="188" y="593" name="U"/>
  <outline>
    <contour>
      <point x="353" y="324" type="curve"/>
      <point x="353" y="340" type="line"/>
      <point x="214" y="340" type="line"/>
      <point x="214" y="324" type="line"/>
      <point x="239" y="324"/>
      <point x="262" y="320"/>
      <point x="229" y="292" type="curve" smooth="yes"/>
      <point x="115" y="192" type="line"/>
      <point x="143" y="181" type="line"/>
      <point x="294" y="302" type="line" smooth="yes"/>
      <point x="314" y="318"/>
      <point x="331" y="322"/>
    </contour>
    <contour>
      <point x="10" y="0" type="line"/>
      <point x="157" y="0" type="line"/>
      <point x="157" y="15" type="line"/>
      <point x="121" y="27"/>
      <point x="117" y="30"/>
      <point x="117" y="38" type="curve" smooth="yes"/>
      <point x="117" y="555" type="line"/>
      <point x="103" y="567" type="line"/>
      <point x="79" y="553"/>
      <point x="44" y="545"/>
      <point x="10" y="538" type="curve"/>
      <point x="10" y="523" type="line"/>
      <point x="53" y="518"/>
      <point x="62" y="517"/>
      <point x="62" y="474" type="curve" smooth="yes"/>
      <point x="62" y="38" type="line" smooth="yes"/>
      <point x="62" y="29"/>
      <point x="43" y="24"/>
      <point x="10" y="15" type="curve"/>
    </contour>
    <contour>
      <point x="365" y="6" type="curve"/>
      <point x="363" y="22" type="line"/>
      <point x="335" y="20"/>
      <point x="320" y="24"/>
      <point x="307" y="40" type="curve" smooth="yes"/>
      <point x="154" y="220" type="line"/>
      <point x="116" y="192" type="line"/>
      <point x="256" y="15" type="line" smooth="yes"/>
      <point x="267" y="1"/>
      <point x="277" y="-3"/>
      <point x="298" y="-3" type="curve" smooth="yes"/>
      <point x="308" y="-3"/>
      <point x="337" y="0"/>
    </contour>
  </outline>
</glyph>
<glyph name="l" format="2">
  <advance width="203"/>
  <unicode hex="006C"/>
  <anchor x="104" y="0" name="H"/>
  <anchor x="104" y="618" name="U"/>
  <outline>
    <contour>
      <point x="21" y="0" type="line"/>
      <point x="186" y="0" type="line"/>
      <point x="186" y="15" type="line"/>
      <point x="146" y="22"/>
      <point x="131" y="30"/>
      <point x="131" y="38" type="curve" smooth="yes"/>
      <point x="131" y="555" type="line"/>
      <point x="118" y="567" type="line"/>
      <point x="88" y="551"/>
      <point x="60" y="545"/>
      <point x="25" y="538" type="curve"/>
      <point x="25" y="523" type="line"/>
      <point x="66" y="518"/>
      <point x="76" y="517"/>
      <point x="76" y="474" type="curve" smooth="yes"/>
      <point x="76" y="38" type="line" smooth="yes"/>
      <point x="76" y="30"/>
      <point x="64" y="23"/>
      <point x="21" y="15" type="curve"/>
    </contour>
  </outline>
</glyph>
<glyph name="m" format="2">
  <advance width="583"/>
  <unicode hex="006D"/>
  <anchor x="493" y="0" name="H"/>
  <anchor x="296" y="366" name="U"/>
  <outline>
    <contour>
      <point x="416" y="0" type="line"/>
      <point x="574" y="0" type="line"/>
      <point x="574" y="18" type="line"/>
      <point x="537" y="27"/>
      <point x="524" y="33"/>
      <point x="524" y="39" type="curve" smooth="yes"/>
      <point x="524" y="254" type="line" smooth="yes"/>
      <point x="524" y="310"/>
      <point x="490" y="334"/>
      <point x="445" y="334" type="curve" smooth="yes"/>
      <point x="411" y="334"/>
      <point x="368" y="309"/>
      <point x="325" y="255" type="curve"/>
      <point x="324" y="262" type="line" smooth="yes"/>
      <point x="323" y="313"/>
      <point x="292" y="334"/>
      <point x="248" y="334" type="curve" smooth="yes"/>
      <point x="215" y="334"/>
      <point x="172" y="310"/>
      <point x="127" y="254" type="curve"/>
      <point x="123" y="321" type="line"/>
      <point x="110" y="334" type="line"/>
      <point x="83" y="322"/>
      <point x="57" y="313"/>
      <point x="18" y="307" type="curve"/>
      <point x="18" y="290" type="line"/>
      <point x="63" y="285"/>
      <point x="66" y="282"/>
      <point x="66" y="245" type="curve" smooth="yes"/>
      <point x="66" y="39" type="line" smooth="yes"/>
      <point x="66" y="32"/>
      <point x="49" y="26"/>
      <point x="18" y="18" type="curve"/>
      <point x="18" y="0" type="line"/>
      <point x="176" y="0" type="line"/>
      <point x="176" y="18" type="line"/>
      <point x="146" y="24"/>
      <point x="129" y="32"/>
      <point x="129" y="39" type="curve" smooth="yes"/>
      <point x="129" y="210" type="line"/>
      <point x="166" y="259"/>
      <point x="198" y="286"/>
      <point x="226" y="286" type="curve" smooth="yes"/>
      <point x="254" y="286"/>
      <point x="264" y="274"/>
      <point x="264" y="217" type="curve" smooth="yes"/>
      <point x="264" y="39" type="line" smooth="yes"/>
      <point x="264" y="33"/>
      <point x="251" y="27"/>
      <point x="218" y="18" type="curve"/>
      <point x="218" y="0" type="line"/>
      <point x="374" y="0" type="line"/>
      <point x="374" y="18" type="line"/>
      <point x="337" y="27"/>
      <point x="326" y="33"/>
      <point x="326" y="39" type="curve" smooth="yes"/>
      <point x="326" y="210" type="line"/>
      <point x="360" y="258"/>
      <point x="396" y="286"/>
      <point x="423" y="286" type="curve" smooth="yes"/>
      <point x="450" y="286"/>
      <point x="462" y="274"/>
      <point x="462" y="217" type="curve" smooth="yes"/>
      <point x="462" y="39" type="line" smooth="yes"/>
      <point x="462" y="33"/>
      <point x="449" y="27"/>
      <point x="416" y="18" type="curve"/>
    </contour>
  </outline>
</glyph>
<glyph name="n" format="2">
  <advance width="413"/>
  <unicode hex="006E"/>
  <anchor x="324" y="0" name="H"/>
  <anchor x="211" y="384" name="U"/>
  <outline>
    <contour>
      <point x="245" y="0" type="line"/>
      <point x="402" y="0" type="line"/>
      <point x="402" y="15" type="line"/>
      <point x="364" y="25"/>
      <point x="351" y="31"/>
      <point x="351" y="38" type="curve" smooth="yes"/>
      <point x="351" y="271" type="line" smooth="yes"/>
      <point x="351" y="326"/>
      <point x="312" y="351"/>
      <point x="270" y="351" type="curve" smooth="yes"/>
      <point x="232" y="351"/>
      <point x="167" y="312"/>
      <point x="124" y="247" type="curve"/>
      <point x="120" y="338" type="line"/>
      <point x="108" y="351" type="line"/>
      <point x="80" y="338"/>
      <point x="53" y="327"/>
      <point x="20" y="322" type="curve"/>
      <point x="20" y="307" type="line"/>
      <point x="69" y="302"/>
      <point x="71" y="298"/>
      <point x="71" y="260" type="curve" smooth="yes"/>
      <point x="71" y="38" type="line" smooth="yes"/>
      <point x="71" y="30"/>
      <point x="52" y="24"/>
      <point x="20" y="15" type="curve"/>
      <point x="20" y="0" type="line"/>
      <point x="177" y="0" type="line"/>
      <point x="177" y="15" type="line"/>
      <point x="146" y="22"/>
      <point x="126" y="30"/>
      <point x="126" y="38" type="curve" smooth="yes"/>
      <point x="126" y="201" type="line"/>
      <point x="173" y="276"/>
      <point x="219" y="303"/>
      <point x="249" y="303" type="curve" smooth="yes"/>
      <point x="284" y="303"/>
      <point x="296" y="291"/>
      <point x="296" y="231" type="curve" smooth="yes"/>
      <point x="296" y="38" type="line" smooth="yes"/>
      <point x="296" y="31"/>
      <point x="280" y="24"/>
      <point x="245" y="15" type="curve"/>
    </contour>
  </outline>
</glyph>
<glyph name="o" format="2">
  <advance width="364"/>
  <unicode hex="006F"/>
  <anchor x="189" y="0" name="H"/>
  <anchor x="189" y="366" name="U"/>
  <outline>
    <contour>
      <point x="338" y="169" type="curve" smooth="yes"/>
      <point x="338" y="264"/>
      <point x="279" y="334"/>
      <point x="189" y="334" type="curve" smooth="yes"/>
      <point x="97" y="334"/>
      <point x="26" y="247"/>
      <point x="26" y="154" type="curve" smooth="yes"/>
      <point x="26" y="59"/>
      <point x="85" y="-10"/>
      <point x="175" y="-10" type="curve" smooth="yes"/>
      <point x="262" y="-10"/>
      <point x="338" y="76"/>
    </contour>
    <contour>
      <point x="272" y="156" type="curve" smooth="yes"/>
      <point x="272" y="78"/>
      <point x="247" y="29"/>
      <point x="185" y="29" type="curve" smooth="yes"/>
      <point x="142" y="29"/>
      <point x="91" y="91"/>
      <point x="91" y="164" type="curve" smooth="yes"/>
      <point x="91" y="238"/>
      <point x="112" y="294"/>
      <point x="179" y="294" type="curve" smooth="yes"/>
      <point x="226" y="294"/>
      <point x="272" y="230"/>
    </contour>
  </outline>
</glyph>
<glyph name="p" format="2">
  <advance width="397"/>
  <unicode hex="0070"/>
  <anchor x="98" y="-176" name="H"/>
  <anchor x="193" y="384" name="U"/>
  <outline>
    <contour>
      <point x="228" y="-10" type="curve" smooth="yes"/>
      <point x="299" y="-10"/>
      <point x="368" y="95"/>
      <point x="368" y="180" type="curve" smooth="yes"/>
      <point x="368" y="287"/>
      <point x="319" y="351"/>
      <point x="252" y="351" type="curve" smooth="yes"/>
      <point x="224" y="351"/>
      <point x="172" y="324"/>
      <point x="124" y="266" type="curve"/>
      <point x="120" y="338" type="line"/>
      <point x="108" y="351" type="line"/>
      <point x="79" y="338"/>
      <point x="53" y="329"/>
      <point x="20" y="322" type="curve"/>
      <point x="20" y="307" type="line"/>
      <point x="66" y="305"/>
      <point x="71" y="296"/>
      <point x="71" y="260" type="curve" smooth="yes"/>
      <point x="71" y="-137" type="line" smooth="yes"/>
      <point x="71" y="-145"/>
      <point x="52" y="-152"/>
      <point x="20" y="-160" type="curve"/>
      <point x="20" y="-175" type="line"/>
      <point x="188" y="-175" type="line"/>
      <point x="188" y="-160" type="line"/>
      <point x="142" y="-153"/>
      <point x="126" y="-145"/>
      <point x="126" y="-137" type="curve" smooth="yes"/>
      <point x="126" y="35" type="line"/>
      <point x="160" y="5"/>
      <point x="199" y="-10"/>
    </contour>
    <contour>
      <point x="228" y="305" type="curve" smooth="yes"/>
      <point x="275" y="305"/>
      <point x="318" y="241"/>
      <point x="318" y="156" type="curve" smooth="yes"/>
      <point x="318" y="78"/>
      <point x="279" y="36"/>
      <point x="227" y="36" type="curve" smooth="yes"/>
      <point x="201" y="36"/>
      <point x="169" y="45"/>
      <point x="126" y="78" type="curve"/>
      <point x="126" y="223" type="line"/>
      <point x="169" y="286"/>
      <point x="210" y="305"/>
    </contour>
  </outline>
</glyph>
<glyph name="q" format="2">
  <advance width="375"/>
  <unicode hex="0071"/>
  <outline>
    <contour>
      <point x="199" y="-167" type="line"/>
      <point x="369" y="-167" type="line"/>
      <point x="369" y="-148" type="line"/>
      <point x="333" y="-142"/>
      <point x="321" y="-134"/>
      <point x="321" y="-127" type="curve" smooth="yes"/>
      <point x="321" y="247" type="line" smooth="yes"/>
      <point x="321" y="289"/>
      <point x="332" y="323"/>
      <point x="332" y="323" type="curve"/>
      <point x="320" y="334" type="line"/>
      <point x="309" y="323"/>
      <point x="273" y="298"/>
      <point x="258" y="293" type="curve"/>
      <point x="258" y="-127" type="line" smooth="yes"/>
      <point x="258" y="-135"/>
      <point x="243" y="-142"/>
      <point x="199" y="-148" type="curve"/>
    </contour>
    <contour>
      <point x="284" y="85" type="curve"/>
      <point x="282" y="88"/>
      <point x="276" y="100"/>
      <point x="270" y="103" type="curve"/>
      <point x="238" y="72"/>
      <point x="208" y="41"/>
      <point x="174" y="41" type="curve" smooth="yes"/>
      <point x="135" y="41"/>
      <point x="88" y="89"/>
      <point x="88" y="169" type="curve" smooth="yes"/>
      <point x="88" y="253"/>
      <point x="132" y="293"/>
      <point x="182" y="293" type="curve" smooth="yes"/>
      <point x="214" y="293"/>
      <point x="247" y="275"/>
      <point x="261" y="246" type="curve"/>
      <point x="276" y="255"/>
      <point x="281" y="265"/>
      <point x="281" y="292" type="curve"/>
      <point x="245" y="329"/>
      <point x="220" y="334"/>
      <point x="192" y="334" type="curve" smooth="yes"/>
      <point x="170" y="334"/>
      <point x="140" y="324"/>
      <point x="113" y="309" type="curve" smooth="yes"/>
      <point x="81" y="290"/>
      <point x="26" y="236"/>
      <point x="26" y="154" type="curve" smooth="yes"/>
      <point x="26" y="51"/>
      <point x="91" y="-10"/>
      <point x="144" y="-10" type="curve" smooth="yes"/>
      <point x="201" y="-10"/>
      <point x="234" y="24"/>
    </contour>
  </outline>
</glyph>
<glyph name="r" format="2">
  <advance width="296"/>
  <unicode hex="0072"/>
  <anchor x="98" y="0" name="H"/>
  <anchor x="164" y="384" name="U"/>
  <outline>
    <contour>
      <point x="281" y="338" type="curve" smooth="yes"/>
      <point x="264" y="348"/>
      <point x="245" y="351"/>
      <point x="229" y="351" type="curve" smooth="yes"/>
      <point x="187" y="351"/>
      <point x="151" y="309"/>
      <point x="125" y="255" type="curve"/>
      <point x="120" y="338" type="line"/>
      <point x="108" y="351" type="line"/>
      <point x="83" y="338"/>
      <point x="51" y="329"/>
      <point x="20" y="322" type="curve"/>
      <point x="20" y="307" type="line"/>
      <point x="47" y="306"/>
      <point x="56" y="304"/>
      <point x="62" y="297" type="curve" smooth="yes"/>
      <point x="67" y="293"/>
      <point x="71" y="283"/>
      <point x="71" y="251" type="curve" smooth="yes"/>
      <point x="71" y="38" type="line" smooth="yes"/>
      <point x="71" y="30"/>
      <point x="52" y="23"/>
      <point x="20" y="15" type="curve"/>
      <point x="20" y="0" type="line"/>
      <point x="188" y="0" type="line"/>
      <point x="188" y="15" type="line"/>
      <point x="142" y="22"/>
      <point x="126" y="30"/>
      <point x="126" y="38" type="curve" smooth="yes"/>
      <point x="126" y="181" type="line"/>
      <point x="149" y="264"/>
      <point x="188" y="300"/>
      <point x="209" y="300" type="curve" smooth="yes"/>
      <point x="228" y="300"/>
      <point x="244" y="287"/>
      <point x="250" y="247" type="curve"/>
      <point x="266" y="247" type="line"/>
      <point x="278" y="273"/>
      <point x="291" y="332"/>
    </contour>
  </outline>
</glyph>
<glyph name="s" format="2">
  <advance width="289"/>
  <unicode hex="0073"/>
  <anchor x="140" y="0" name="H"/>
  <anchor x="145" y="384" name="U"/>
  <outline>
    <contour>
      <point x="256" y="103" type="curve" smooth="yes"/>
      <point x="256" y="158"/>
      <point x="209" y="182"/>
      <point x="166" y="204" type="curve" smooth="yes"/>
      <point x="111" y="233"/>
      <point x="85" y="247"/>
      <point x="85" y="274" type="curve" smooth="yes"/>
      <point x="85" y="294"/>
      <point x="105" y="318"/>
      <point x="137" y="318" type="curve" smooth="yes"/>
      <point x="161" y="318"/>
      <point x="187" y="306"/>
      <point x="210" y="271" type="curve"/>
      <point x="224" y="268" type="line"/>
      <point x="231" y="276"/>
      <point x="249" y="317"/>
      <point x="243" y="323" type="curve" smooth="yes"/>
      <point x="223" y="340"/>
      <point x="177" y="351"/>
      <point x="146" y="351" type="curve" smooth="yes"/>
      <point x="91" y="351"/>
      <point x="38" y="317"/>
      <point x="38" y="256" type="curve" smooth="yes"/>
      <point x="38" y="209"/>
      <point x="77" y="185"/>
      <point x="117" y="164" type="curve" smooth="yes"/>
      <point x="182" y="130"/>
      <point x="208" y="116"/>
      <point x="208" y="83" type="curve" smooth="yes"/>
      <point x="208" y="48"/>
      <point x="183" y="25"/>
      <point x="148" y="25" type="curve" smooth="yes"/>
      <point x="98" y="25"/>
      <point x="59" y="58"/>
      <point x="57" y="99" type="curve"/>
      <point x="41" y="103" type="line"/>
      <point x="34" y="81"/>
      <point x="32" y="19"/>
      <point x="38" y="15" type="curve" smooth="yes"/>
      <point x="71" y="-2"/>
      <point x="107" y="-10"/>
      <point x="130" y="-10" type="curve" smooth="yes"/>
      <point x="158" y="-10"/>
      <point x="256" y="0"/>
    </contour>
  </outline>
</glyph>
<glyph name="t" format="2">
  <advance width="251"/>
  <unicode hex="0074"/>
  <anchor x="123" y="0" name="H"/>
  <anchor x="123" y="460" name="U"/>
  <outline>
    <contour>
      <point x="242" y="45" type="curve"/>
      <point x="230" y="65" type="line"/>
      <point x="193" y="46"/>
      <point x="171" y="40"/>
      <point x="155" y="40" type="curve" smooth="yes"/>
      <point x="130" y="40"/>
      <point x="120" y="57"/>
      <point x="120" y="110" type="curve" smooth="yes"/>
      <point x="120" y="287" type="line"/>
      <point x="140" y="287" type="line" smooth="yes"/>
      <point x="173" y="287"/>
      <point x="196" y="281"/>
      <point x="207" y="275" type="curve"/>
      <point x="216" y="280"/>
      <point x="234" y="299"/>
      <point x="242" y="313" type="curve"/>
      <point x="231" y="324" type="line"/>
      <point x="120" y="324" type="line"/>
      <point x="120" y="437" type="line"/>
      <point x="108" y="447" type="line"/>
      <point x="57" y="405" type="line"/>
      <point x="57" y="324" type="line"/>
      <point x="32" y="324" type="line"/>
      <point x="5" y="298" type="line"/>
      <point x="13" y="287" type="line"/>
      <point x="57" y="287" type="line"/>
      <point x="57" y="79" type="line" smooth="yes"/>
      <point x="57" y="14"/>
      <point x="87" y="-10"/>
      <point x="122" y="-10" type="curve" smooth="yes"/>
      <point x="146" y="-10"/>
      <point x="191" y="7"/>
    </contour>
  </outline>
</glyph>
<glyph name="u" format="2">
  <advance width="386"/>
  <unicode hex="0075"/>
  <anchor x="189" y="0" name="H"/>
  <anchor x="193" y="366" name="U"/>
  <outline>
    <contour>
      <point x="381" y="32" type="curve"/>
      <point x="376" y="51" type="line"/>
      <point x="352" y="41"/>
      <point x="341" y="39"/>
      <point x="335" y="43" type="curve" smooth="yes"/>
      <point x="329" y="47"/>
      <point x="327" y="63"/>
      <point x="327" y="92" type="curve" smooth="yes"/>
      <point x="327" y="320" type="line"/>
      <point x="316" y="334" type="line"/>
      <point x="288" y="326"/>
      <point x="254" y="316"/>
      <point x="217" y="312" type="curve"/>
      <point x="217" y="295" type="line"/>
      <point x="260" y="293"/>
      <point x="265" y="287"/>
      <point x="265" y="245" type="curve" smooth="yes"/>
      <point x="265" y="91" type="line"/>
      <point x="225" y="51"/>
      <point x="195" y="37"/>
      <point x="169" y="37" type="curve" smooth="yes"/>
      <point x="138" y="37"/>
      <point x="120" y="54"/>
      <point x="120" y="117" type="curve" smooth="yes"/>
      <point x="120" y="320" type="line"/>
      <point x="109" y="334" type="line"/>
      <point x="76" y="322"/>
      <point x="51" y="316"/>
      <point x="13" y="312" type="curve"/>
      <point x="13" y="295" type="line"/>
      <point x="55" y="291"/>
      <point x="57" y="289"/>
      <point x="57" y="245" type="curve" smooth="yes"/>
      <point x="57" y="97" type="line" smooth="yes"/>
      <point x="57" y="10"/>
      <point x="99" y="-10"/>
      <point x="142" y="-10" type="curve" smooth="yes"/>
      <point x="171" y="-10"/>
      <point x="207" y="0"/>
      <point x="265" y="54" type="curve"/>
      <point x="268" y="6"/>
      <point x="280" y="-10"/>
      <point x="297" y="-10" type="curve" smooth="yes"/>
      <point x="308" y="-10"/>
      <point x="347" y="9"/>
    </contour>
  </outline>
</glyph>
<glyph name="v" format="2">
  <advance width="369"/>
  <unicode hex="0076"/>
  <anchor x="182" y="0" name="H"/>
  <anchor x="196" y="384" name="U"/>
  <outline>
    <contour>
      <point x="362" y="324" type="curve"/>
      <point x="362" y="340" type="line"/>
      <point x="243" y="340" type="line"/>
      <point x="243" y="324" type="line"/>
      <point x="279" y="319"/>
      <point x="287" y="314"/>
      <point x="281" y="299" type="curve" smooth="yes"/>
      <point x="197" y="65" type="line"/>
      <point x="107" y="299" type="line" smooth="yes"/>
      <point x="101" y="315"/>
      <point x="110" y="320"/>
      <point x="148" y="324" type="curve"/>
      <point x="148" y="340" type="line"/>
      <point x="7" y="340" type="line"/>
      <point x="7" y="324" type="line"/>
      <point x="31" y="319"/>
      <point x="42" y="312"/>
      <point x="47" y="299" type="curve" smooth="yes"/>
      <point x="168" y="-10" type="line"/>
      <point x="181" y="-8"/>
      <point x="210" y="0"/>
      <point x="218" y="21" type="curve" smooth="yes"/>
      <point x="321" y="299" type="line" smooth="yes"/>
      <point x="327" y="314"/>
      <point x="332" y="317"/>
    </contour>
  </outline>
</glyph>
<glyph name="w" format="2">
  <advance width="529"/>
  <unicode hex="0077"/>
  <anchor x="274" y="384" name="U"/>
  <outline>
    <contour>
      <point x="521" y="324" type="curve"/>
      <point x="521" y="340" type="line"/>
      <point x="402" y="340" type="line"/>
      <point x="402" y="324" type="line"/>
      <point x="436" y="319"/>
      <point x="448" y="313"/>
      <point x="445" y="302" type="curve" smooth="yes"/>
      <point x="382" y="69" type="line"/>
      <point x="287" y="340" type="line"/>
      <point x="281" y="340"/>
      <point x="264" y="340"/>
      <point x="264" y="340" type="curve"/>
      <point x="261" y="254" type="line"/>
      <point x="354" y="-10" type="line"/>
      <point x="366" y="-8"/>
      <point x="398" y="0"/>
      <point x="404" y="21" type="curve" smooth="yes"/>
      <point x="485" y="302" type="line" smooth="yes"/>
      <point x="488" y="313"/>
      <point x="491" y="317"/>
    </contour>
    <contour>
      <point x="191" y="21" type="curve" smooth="yes"/>
      <point x="289" y="302" type="line"/>
      <point x="281" y="340" type="line"/>
      <point x="281" y="340"/>
      <point x="268" y="340"/>
      <point x="261" y="340" type="curve"/>
      <point x="171" y="69" type="line"/>
      <point x="102" y="302" type="line" smooth="yes"/>
      <point x="99" y="311"/>
      <point x="101" y="320"/>
      <point x="148" y="324" type="curve"/>
      <point x="148" y="340" type="line"/>
      <point x="7" y="340" type="line"/>
      <point x="7" y="324" type="line"/>
      <point x="31" y="319"/>
      <point x="45" y="311"/>
      <point x="47" y="302" type="curve"/>
      <point x="143" y="-10" type="line"/>
      <point x="156" y="-8"/>
      <point x="184" y="0"/>
    </contour>
  </outline>
</glyph>
<glyph name="x" format="2">
  <advance width="363"/>
  <unicode hex="0078"/>
  <outline>
    <contour>
      <point x="350" y="305" type="curve"/>
      <point x="350" y="324" type="line"/>
      <point x="217" y="324" type="line"/>
      <point x="217" y="305" type="line"/>
      <point x="246" y="303"/>
      <point x="256" y="298"/>
      <point x="240" y="275" type="curve" smooth="yes"/>
      <point x="173" y="181" type="line"/>
      <point x="196" y="155" type="line"/>
      <point x="283" y="274" type="line" smooth="yes"/>
      <point x="296" y="291"/>
      <point x="312" y="303"/>
    </contour>
    <contour>
      <point x="208" y="0" type="line"/>
      <point x="358" y="0" type="line"/>
      <point x="358" y="18" type="line"/>
      <point x="328" y="22"/>
      <point x="313" y="36"/>
      <point x="303" y="50" type="curve"/>
      <point x="140" y="275" type="line" smooth="yes"/>
      <point x="124" y="297"/>
      <point x="136" y="303"/>
      <point x="165" y="305" type="curve"/>
      <point x="165" y="324" type="line"/>
      <point x="9" y="324" type="line"/>
      <point x="9" y="305" type="line"/>
      <point x="46" y="303"/>
      <point x="56" y="291"/>
      <point x="68" y="274" type="curve" smooth="yes"/>
      <point x="232" y="48" type="line" smooth="yes"/>
      <point x="251" y="23"/>
      <point x="231" y="20"/>
      <point x="208" y="18" type="curve"/>
    </contour>
    <contour>
      <point x="107" y="48" type="curve" smooth="yes"/>
      <point x="178" y="146" type="line"/>
      <point x="156" y="174" type="line"/>
      <point x="65" y="50" type="line" smooth="yes"/>
      <point x="55" y="36"/>
      <point x="42" y="24"/>
      <point x="6" y="18" type="curve"/>
      <point x="6" y="0" type="line"/>
      <point x="139" y="0" type="line"/>
      <point x="139" y="18" type="line"/>
      <point x="117" y="20"/>
      <point x="89" y="23"/>
    </contour>
  </outline>
</glyph>
<glyph name="y" format="2">
  <advance width="369"/>
  <unicode hex="0079"/>
  <anchor x="194" y="384" name="U"/>
  <outline>
    <contour>
      <point x="362" y="324" type="curve"/>
      <point x="362" y="340" type="line"/>
      <point x="239" y="340" type="line"/>
      <point x="239" y="324" type="line"/>
      <point x="276" y="319"/>
      <point x="287" y="315"/>
      <point x="281" y="299" type="curve" smooth="yes"/>
      <point x="197" y="66" type="line"/>
      <point x="107" y="299" type="line" smooth="yes"/>
      <point x="101" y="316"/>
      <point x="110" y="320"/>
      <point x="148" y="324" type="curve"/>
      <point x="148" y="340" type="line"/>
      <point x="7" y="340" type="line"/>
      <point x="7" y="324" type="line"/>
      <point x="31" y="319"/>
      <point x="42" y="313"/>
      <point x="47" y="299" type="curve" smooth="yes"/>
      <point x="168" y="-8" type="line"/>
      <point x="157" y="-33" type="line" smooth="yes"/>
      <point x="139" y="-75"/>
      <point x="109" y="-114"/>
      <point x="91" y="-120" type="curve" smooth="yes"/>
      <point x="73" y="-127"/>
      <point x="48" y="-127"/>
      <point x="25" y="-114" type="curve"/>
      <point x="9" y="-123"/>
      <point x="-17" y="-157"/>
      <point x="-17" y="-163" type="curve" smooth="yes"/>
      <point x="-17" y="-172"/>
      <point x="9" y="-183"/>
      <point x="46" y="-183" type="curve" smooth="yes"/>
      <point x="95" y="-183"/>
      <point x="159" y="-138"/>
      <point x="199" y="-30" type="curve" smooth="yes"/>
      <point x="321" y="300" type="line" smooth="yes"/>
      <point x="327" y="314"/>
      <point x="332" y="317"/>
    </contour>
  </outline>
</glyph>
<glyph name="z" format="2">
  <advance width="318"/>
  <unicode hex="007A"/>
  <anchor x="165" y="0" name="H"/>
  <anchor x="175" y="384" name="U"/>
  <outline>
    <contour>
      <point x="303" y="90" type="curve"/>
      <point x="286" y="94" type="line"/>
      <point x="275" y="50"/>
      <point x="265" y="32"/>
      <point x="253" y="32" type="curve" smooth="yes"/>
      <point x="98" y="32" type="line"/>
      <point x="302" y="324" type="line"/>
      <point x="294" y="340" type="line"/>
      <point x="114" y="340" type="line" smooth="yes"/>
      <point x="83" y="340"/>
      <point x="71" y="340"/>
      <point x="50" y="346" type="curve"/>
      <point x="43" y="257" type="line"/>
      <point x="61" y="252" type="line"/>
      <point x="71" y="297"/>
      <point x="88" y="307"/>
      <point x="104" y="307" type="curve" smooth="yes"/>
      <point x="231" y="307" type="line"/>
      <point x="27" y="16" type="line"/>
      <point x="37" y="0" type="line"/>
      <point x="299" y="0" type="line"/>
      <point x="302" y="17"/>
      <point x="303" y="60"/>
    </contour>
  </outline>
</glyph>
<glyph name="braceleft" format="2">
  <advance width="243"/>
  <unicode hex="007B"/>
  <outline>
    <contour>
      <point x="231" y="538" type="curve"/>
      <point x="220" y="558" type="line"/>
      <point x="148" y="526"/>
      <point x="99" y="481"/>
      <point x="99" y="418" type="curve" smooth="yes"/>
      <point x="99" y="363"/>
      <point x="114" y="355"/>
      <point x="114" y="300" type="curve" smooth="yes"/>
      <point x="114" y="266"/>
      <point x="87" y="236"/>
      <point x="33" y="222" type="curve"/>
      <point x="39" y="200" type="line"/>
      <point x="53" y="202"/>
      <point x="49" y="202"/>
      <point x="62" y="202" type="curve" smooth="yes"/>
      <point x="95" y="202"/>
      <point x="114" y="184"/>
      <point x="114" y="147" type="curve" smooth="yes"/>
      <point x="114" y="91"/>
      <point x="99" y="76"/>
      <point x="99" y="23" type="curve" smooth="yes"/>
      <point x="99" y="-43"/>
      <point x="137" y="-78"/>
      <point x="218" y="-109" type="curve"/>
      <point x="227" y="-85" type="line"/>
      <point x="178" y="-57"/>
      <point x="168" y="-33"/>
      <point x="168" y="13" type="curve" smooth="yes"/>
      <point x="168" y="57"/>
      <point x="182" y="80"/>
      <point x="182" y="134" type="curve" smooth="yes"/>
      <point x="182" y="185"/>
      <point x="164" y="219"/>
      <point x="117" y="227" type="curve"/>
      <point x="156" y="244"/>
      <point x="182" y="283"/>
      <point x="182" y="321" type="curve" smooth="yes"/>
      <point x="182" y="374"/>
      <point x="168" y="386"/>
      <point x="168" y="438" type="curve" smooth="yes"/>
      <point x="168" y="482"/>
      <point x="195" y="515"/>
    </contour>
  </outline>
</glyph>
<glyph name="bar" format="2">
  <advance width="183"/>
  <unicode hex="007C"/>
  <outline>
    <contour>
      <point x="117" y="-164" type="curve"/>
      <point x="117" y="603" type="line"/>
      <point x="104" y="611" type="line"/>
      <point x="89" y="607"/>
      <point x="79" y="601"/>
      <point x="65" y="593" type="curve"/>
      <point x="65" y="-174" type="line"/>
      <point x="78" y="-183" type="line"/>
      <point x="90" y="-179"/>
      <point x="108" y="-171"/>
    </contour>
  </outline>
</glyph>
<glyph name="braceright" format="2">
  <advance width="243"/>
  <unicode hex="007D"/>
  <outline>
    <contour>
      <point x="210" y="225" type="curve"/>
      <point x="204" y="248" type="line"/>
      <point x="190" y="245"/>
      <point x="194" y="245"/>
      <point x="181" y="245" type="curve" smooth="yes"/>
      <point x="148" y="245"/>
      <point x="129" y="263"/>
      <point x="129" y="301" type="curve" smooth="yes"/>
      <point x="129" y="357"/>
      <point x="143" y="372"/>
      <point x="143" y="425" type="curve" smooth="yes"/>
      <point x="143" y="492"/>
      <point x="106" y="527"/>
      <point x="25" y="557" type="curve"/>
      <point x="15" y="533" type="line"/>
      <point x="64" y="506"/>
      <point x="75" y="482"/>
      <point x="75" y="434" type="curve" smooth="yes"/>
      <point x="75" y="390"/>
      <point x="61" y="367"/>
      <point x="61" y="314" type="curve" smooth="yes"/>
      <point x="61" y="262"/>
      <point x="79" y="228"/>
      <point x="126" y="220" type="curve"/>
      <point x="86" y="202"/>
      <point x="61" y="165"/>
      <point x="61" y="126" type="curve" smooth="yes"/>
      <point x="61" y="73"/>
      <point x="75" y="62"/>
      <point x="75" y="10" type="curve" smooth="yes"/>
      <point x="75" y="-33"/>
      <point x="48" y="-66"/>
      <point x="11" y="-89" type="curve"/>
      <point x="23" y="-109" type="line"/>
      <point x="94" y="-78"/>
      <point x="143" y="-32"/>
      <point x="143" y="30" type="curve" smooth="yes"/>
      <point x="143" y="85"/>
      <point x="129" y="92"/>
      <point x="129" y="147" type="curve" smooth="yes"/>
      <point x="129" y="182"/>
      <point x="156" y="211"/>
    </contour>
  </outline>
</glyph>
<glyph name="asciitilde" format="2">
  <advance width="365"/>
  <unicode hex="007E"/>
  <outline>
    <contour>
      <point x="347" y="283" type="curve"/>
      <point x="328" y="292" type="line"/>
      <point x="308" y="252"/>
      <point x="287" y="234"/>
      <point x="264" y="234" type="curve" smooth="yes"/>
      <point x="224" y="234"/>
      <point x="173" y="292"/>
      <point x="128" y="292" type="curve" smooth="yes"/>
      <point x="82" y="292"/>
      <point x="38" y="231"/>
      <point x="17" y="183" type="curve"/>
      <point x="37" y="173" type="line"/>
      <point x="57" y="214"/>
      <point x="77" y="233"/>
      <point x="101" y="233" type="curve" smooth="yes"/>
      <point x="143" y="233"/>
      <point x="195" y="174"/>
      <point x="236" y="174" type="curve" smooth="yes"/>
      <point x="283" y="174"/>
      <point x="327" y="235"/>
    </contour>
  </outline>
</glyph>
<glyph name="exclamdown" format="2">
  <advance width="203"/>
  <unicode hex="00A1"/>
  <outline>
    <contour>
      <point x="143" y="310" type="curve"/>
      <point x="143" y="336"/>
      <point x="132" y="351"/>
      <point x="107" y="351" type="curve" smooth="yes"/>
      <point x="78" y="351"/>
      <point x="56" y="325"/>
      <point x="56" y="292" type="curve" smooth="yes"/>
      <point x="56" y="265"/>
      <point x="68" y="250"/>
      <point x="93" y="250" type="curve" smooth="yes"/>
      <point x="120" y="250"/>
      <point x="143" y="277"/>
    </contour>
    <contour>
      <point x="135" y="-176" type="curve"/>
      <point x="117" y="201" type="line"/>
      <point x="108" y="208" type="line"/>
      <point x="95" y="204"/>
      <point x="90" y="201"/>
      <point x="80" y="194" type="curve"/>
      <point x="62" y="-198" type="line"/>
      <point x="78" y="-206" type="line"/>
      <point x="95" y="-201"/>
      <point x="116" y="-188"/>
    </contour>
  </outline>
</glyph>
<glyph name="cent" format="2">
  <advance width="351"/>
  <unicode hex="00A2"/>
  <outline>
    <contour>
      <point x="206" y="-2" type="curve"/>
      <point x="206" y="447" type="line"/>
      <point x="197" y="455" type="line"/>
      <point x="182" y="452"/>
      <point x="187" y="453"/>
      <point x="173" y="444" type="curve"/>
      <point x="173" y="-5" type="line"/>
      <point x="183" y="-15" type="line"/>
      <point x="194" y="-11"/>
      <point x="198" y="-10"/>
    </contour>
    <contour>
      <point x="316" y="128" type="curve"/>
      <point x="302" y="143" type="line"/>
      <point x="249" y="96"/>
      <point x="233" y="95"/>
      <point x="205" y="95" type="curve" smooth="yes"/>
      <point x="146" y="95"/>
      <point x="93" y="141"/>
      <point x="93" y="225" type="curve" smooth="yes"/>
      <point x="93" y="316"/>
      <point x="140" y="355"/>
      <point x="191" y="355" type="curve" smooth="yes"/>
      <point x="242" y="355"/>
      <point x="268" y="327"/>
      <point x="277" y="310" type="curve"/>
      <point x="290" y="306" type="line"/>
      <point x="299" y="319"/>
      <point x="313" y="354"/>
      <point x="311" y="365" type="curve"/>
      <point x="294" y="384"/>
      <point x="257" y="395"/>
      <point x="224" y="395" type="curve" smooth="yes"/>
      <point x="120" y="395"/>
      <point x="38" y="318"/>
      <point x="38" y="214" type="curve" smooth="yes"/>
      <point x="38" y="105"/>
      <point x="108" y="47"/>
      <point x="179" y="47" type="curve" smooth="yes"/>
      <point x="224" y="47"/>
      <point x="252" y="53"/>
    </contour>
  </outline>
</glyph>
<glyph name="sterling" format="2">
  <advance width="351"/>
  <unicode hex="00A3"/>
  <outline>
    <contour>
      <point x="315" y="426" type="curve"/>
      <point x="269" y="449"/>
      <point x="250" y="452"/>
      <point x="224" y="452" type="curve" smooth="yes"/>
      <point x="108" y="452"/>
      <point x="60" y="361"/>
      <point x="72" y="211" type="curve" smooth="yes"/>
      <point x="83" y="57"/>
      <point x="70" y="45"/>
      <point x="23" y="6" type="curve"/>
      <point x="31" y="-10" type="line"/>
      <point x="103" y="34"/>
      <point x="248" y="-36"/>
      <point x="313" y="0" type="curve"/>
      <point x="317" y="14"/>
      <point x="325" y="50"/>
      <point x="328" y="93" type="curve"/>
      <point x="313" y="99" type="line"/>
      <point x="292" y="42"/>
      <point x="275" y="38"/>
      <point x="230" y="36" type="curve" smooth="yes"/>
      <point x="176" y="35"/>
      <point x="161" y="42"/>
      <point x="94" y="36" type="curve"/>
      <point x="122" y="75"/>
      <point x="143" y="142"/>
      <point x="134" y="217" type="curve" smooth="yes"/>
      <point x="113" y="399"/>
      <point x="158" y="416"/>
      <point x="197" y="416" type="curve" smooth="yes"/>
      <point x="246" y="416"/>
      <point x="276" y="390"/>
      <point x="283" y="329" type="curve"/>
      <point x="301" y="329" type="line"/>
      <point x="306" y="348"/>
      <point x="314" y="401"/>
    </contour>
    <contour>
      <point x="225" y="196" type="line"/>
      <point x="234" y="221" type="line"/>
      <point x="225" y="229" type="line"/>
      <point x="31" y="229" type="line"/>
      <point x="28" y="221"/>
      <point x="25" y="212"/>
      <point x="23" y="205" type="curve"/>
      <point x="31" y="196" type="line"/>
    </contour>
  </outline>
</glyph>
<glyph name="currency" format="2">
  <advance width="343"/>
  <unicode hex="00A4"/>
  <outline>
    <contour>
      <point x="126" y="255" type="curve"/>
      <point x="139" y="268"/>
      <point x="155" y="274"/>
      <point x="172" y="274" type="curve" smooth="yes"/>
      <point x="189" y="274"/>
      <point x="204" y="268"/>
      <point x="217" y="255" type="curve" smooth="yes"/>
      <point x="230" y="243"/>
      <point x="236" y="226"/>
      <point x="236" y="209" type="curve" smooth="yes"/>
      <point x="236" y="193"/>
      <point x="230" y="177"/>
      <point x="217" y="164" type="curve" smooth="yes"/>
      <point x="205" y="151"/>
      <point x="189" y="145"/>
      <point x="172" y="145" type="curve" smooth="yes"/>
      <point x="155" y="145"/>
      <point x="139" y="151"/>
      <point x="126" y="164" type="curve" smooth="yes"/>
      <point x="113" y="177"/>
      <point x="107" y="193"/>
      <point x="107" y="209" type="curve" smooth="yes"/>
      <point x="107" y="226"/>
      <point x="114" y="243"/>
    </contour>
    <contour>
      <point x="101" y="281" type="curve"/>
      <point x="81" y="261"/>
      <point x="71" y="235"/>
      <point x="71" y="209" type="curve" smooth="yes"/>
      <point x="71" y="183"/>
      <point x="80" y="158"/>
      <point x="100" y="138" type="curve" smooth="yes"/>
      <point x="120" y="118"/>
      <point x="146" y="109"/>
      <point x="172" y="109" type="curve" smooth="yes"/>
      <point x="198" y="109"/>
      <point x="224" y="118"/>
      <point x="243" y="138" type="curve" smooth="yes"/>
      <point x="263" y="157"/>
      <point x="273" y="183"/>
      <point x="273" y="209" type="curve" smooth="yes"/>
      <point x="273" y="235"/>
      <point x="262" y="261"/>
      <point x="243" y="281" type="curve" smooth="yes"/>
      <point x="223" y="301"/>
      <point x="198" y="311"/>
      <point x="172" y="311" type="curve" smooth="yes"/>
      <point x="146" y="311"/>
      <point x="121" y="301"/>
    </contour>
    <contour>
      <point x="130" y="142" type="line"/>
      <point x="118" y="168" type="line"/>
      <point x="105" y="167" type="line"/>
      <point x="48" y="110" type="line"/>
      <point x="51" y="102"/>
      <point x="56" y="93"/>
      <point x="60" y="86" type="curve"/>
      <point x="72" y="86" type="line"/>
    </contour>
    <contour>
      <point x="102" y="254" type="line"/>
      <point x="128" y="266" type="line"/>
      <point x="127" y="279" type="line"/>
      <point x="73" y="333" type="line"/>
      <point x="65" y="330"/>
      <point x="56" y="325"/>
      <point x="49" y="321" type="curve"/>
      <point x="48" y="308" type="line"/>
    </contour>
    <contour>
      <point x="270" y="86" type="line"/>
      <point x="295" y="97" type="line"/>
      <point x="295" y="110" type="line"/>
      <point x="241" y="165" type="line"/>
      <point x="233" y="162"/>
      <point x="224" y="157"/>
      <point x="217" y="153" type="curve"/>
      <point x="216" y="140" type="line"/>
    </contour>
    <contour>
      <point x="295" y="308" type="line"/>
      <point x="283" y="333" type="line"/>
      <point x="270" y="333" type="line"/>
      <point x="213" y="275" type="line"/>
      <point x="216" y="268"/>
      <point x="221" y="259"/>
      <point x="225" y="252" type="curve"/>
      <point x="238" y="251" type="line"/>
    </contour>
  </outline>
</glyph>
<glyph name="yen" format="2">
  <advance width="351"/>
  <unicode hex="00A5"/>
  <outline>
    <contour>
      <point x="86" y="0" type="line"/>
      <point x="265" y="0" type="line"/>
      <point x="265" y="15" type="line"/>
      <point x="220" y="24"/>
      <point x="205" y="35"/>
      <point x="205" y="42" type="curve" smooth="yes"/>
      <point x="205" y="159" type="line"/>
      <point x="304" y="159" type="line"/>
      <point x="313" y="184" type="line"/>
      <point x="304" y="192" type="line"/>
      <point x="205" y="192" type="line"/>
      <point x="205" y="211" type="line"/>
      <point x="308" y="401" type="line" smooth="yes"/>
      <point x="315" y="413"/>
      <point x="332" y="418"/>
      <point x="365" y="425" type="curve"/>
      <point x="365" y="440" type="line"/>
      <point x="220" y="440" type="line"/>
      <point x="220" y="425" type="line"/>
      <point x="258" y="420"/>
      <point x="268" y="413"/>
      <point x="261" y="401" type="curve" smooth="yes"/>
      <point x="182" y="262" type="line"/>
      <point x="148" y="332"/>
      <point x="120" y="383"/>
      <point x="84" y="430" type="curve" smooth="yes"/>
      <point x="76" y="439"/>
      <point x="66" y="444"/>
      <point x="55" y="444" type="curve" smooth="yes"/>
      <point x="35" y="444"/>
      <point x="4" y="440"/>
      <point x="-24" y="436" type="curve"/>
      <point x="-23" y="421" type="line"/>
      <point x="17" y="421"/>
      <point x="28" y="411"/>
      <point x="36" y="401" type="curve" smooth="yes"/>
      <point x="70" y="358"/>
      <point x="112" y="284"/>
      <point x="146" y="212" type="curve"/>
      <point x="146" y="192" type="line"/>
      <point x="46" y="192" type="line"/>
      <point x="43" y="185"/>
      <point x="41" y="176"/>
      <point x="38" y="168" type="curve"/>
      <point x="46" y="159" type="line"/>
      <point x="146" y="159" type="line"/>
      <point x="146" y="42" type="line" smooth="yes"/>
      <point x="146" y="35"/>
      <point x="130" y="24"/>
      <point x="86" y="15" type="curve"/>
    </contour>
  </outline>
</glyph>
<glyph name="brokenbar" format="2">
  <advance width="174"/>
  <unicode hex="00A6"/>
  <outline>
    <contour>
      <point x="113" y="260" type="curve"/>
      <point x="113" y="573" type="line"/>
      <point x="100" y="582" type="line"/>
      <point x="85" y="578"/>
      <point x="74" y="572"/>
      <point x="60" y="564" type="curve"/>
      <point x="60" y="250" type="line"/>
      <point x="74" y="241" type="line"/>
      <point x="85" y="245"/>
      <point x="104" y="253"/>
    </contour>
    <contour>
      <point x="113" y="-147" type="curve"/>
      <point x="113" y="162" type="line"/>
      <point x="100" y="171" type="line"/>
      <point x="85" y="167"/>
      <point x="74" y="160"/>
      <point x="60" y="152" type="curve"/>
      <point x="60" y="-157" type="line"/>
      <point x="74" y="-166" type="line"/>
      <point x="85" y="-162"/>
      <point x="104" y="-154"/>
    </contour>
  </outline>
</glyph>
<glyph name="section" format="2">
  <advance width="342"/>
  <unicode hex="00A7"/>
  <outline>
    <contour>
      <point x="155" y="-10" type="curve" smooth="yes"/>
      <point x="187" y="-10"/>
      <point x="282" y="-5"/>
      <point x="282" y="93" type="curve" smooth="yes"/>
      <point x="282" y="145"/>
      <point x="233" y="167"/>
      <point x="193" y="187" type="curve"/>
      <point x="125" y="226"/>
      <point x="95" y="245"/>
      <point x="95" y="287" type="curve" smooth="yes"/>
      <point x="95" y="315"/>
      <point x="116" y="340"/>
      <point x="149" y="344" type="curve"/>
      <point x="128" y="371" type="line"/>
      <point x="80" y="360"/>
      <point x="39" y="315"/>
      <point x="39" y="270" type="curve" smooth="yes"/>
      <point x="39" y="209"/>
      <point x="82" y="177"/>
      <point x="138" y="147" type="curve" smooth="yes"/>
      <point x="180" y="124"/>
      <point x="226" y="108"/>
      <point x="226" y="71" type="curve" smooth="yes"/>
      <point x="226" y="40"/>
      <point x="205" y="26"/>
      <point x="171" y="26" type="curve" smooth="yes"/>
      <point x="126" y="26"/>
      <point x="90" y="61"/>
      <point x="85" y="103" type="curve"/>
      <point x="66" y="107" type="line"/>
      <point x="58" y="82"/>
      <point x="57" y="20"/>
      <point x="63" y="17" type="curve"/>
      <point x="94" y="0"/>
      <point x="131" y="-10"/>
    </contour>
    <contour>
      <point x="227" y="125" type="line"/>
      <point x="257" y="129"/>
      <point x="302" y="167"/>
      <point x="302" y="230" type="curve" smooth="yes"/>
      <point x="302" y="296"/>
      <point x="255" y="322"/>
      <point x="199" y="354" type="curve" smooth="yes"/>
      <point x="147" y="383"/>
      <point x="118" y="400"/>
      <point x="118" y="432" type="curve" smooth="yes"/>
      <point x="118" y="455"/>
      <point x="136" y="469"/>
      <point x="166" y="469" type="curve" smooth="yes"/>
      <point x="191" y="469"/>
      <point x="215" y="451"/>
      <point x="234" y="415" type="curve"/>
      <point x="251" y="412" type="line"/>
      <point x="258" y="422"/>
      <point x="275" y="467"/>
      <point x="269" y="472" type="curve"/>
      <point x="249" y="489"/>
      <point x="206" y="502"/>
      <point x="173" y="502" type="curve" smooth="yes"/>
      <point x="117" y="502"/>
      <point x="62" y="473"/>
      <point x="62" y="415" type="curve" smooth="yes"/>
      <point x="62" y="369"/>
      <point x="100" y="337"/>
      <point x="144" y="313" type="curve" smooth="yes"/>
      <point x="214" y="275"/>
      <point x="247" y="252"/>
      <point x="247" y="208" type="curve" smooth="yes"/>
      <point x="247" y="180"/>
      <point x="224" y="156"/>
      <point x="193" y="155" type="curve"/>
    </contour>
  </outline>
</glyph>
<glyph name="dieresis" format="2">
  <advance width="279"/>
  <unicode hex="00A8"/>
  <anchor x="139" y="491" name="U"/>
  <outline>
    <contour>
      <point x="107" y="440" type="curve"/>
      <point x="107" y="464"/>
      <point x="96" y="476"/>
      <point x="74" y="476" type="curve" smooth="yes"/>
      <point x="50" y="476"/>
      <point x="29" y="453"/>
      <point x="29" y="424" type="curve" smooth="yes"/>
      <point x="29" y="401"/>
      <point x="40" y="388"/>
      <point x="62" y="388" type="curve" smooth="yes"/>
      <point x="87" y="388"/>
      <point x="107" y="411"/>
    </contour>
    <contour>
      <point x="249" y="440" type="curve"/>
      <point x="249" y="464"/>
      <point x="238" y="476"/>
      <point x="216" y="476" type="curve" smooth="yes"/>
      <point x="192" y="476"/>
      <point x="171" y="453"/>
      <point x="171" y="424" type="curve" smooth="yes"/>
      <point x="171" y="401"/>
      <point x="182" y="388"/>
      <point x="204" y="388" type="curve" smooth="yes"/>
      <point x="230" y="388"/>
      <point x="249" y="411"/>
    </contour>
  </outline>
</glyph>
<glyph name="copyright" format="2">
  <advance width="513"/>
  <unicode hex="00A9"/>
  <outline>
    <contour>
      <point x="256" y="-10" type="curve" smooth="yes"/>
      <point x="385" y="-10"/>
      <point x="480" y="94"/>
      <point x="480" y="224" type="curve" smooth="yes"/>
      <point x="480" y="353"/>
      <point x="385" y="457"/>
      <point x="256" y="457" type="curve" smooth="yes"/>
      <point x="127" y="457"/>
      <point x="33" y="353"/>
      <point x="33" y="224" type="curve" smooth="yes"/>
      <point x="33" y="94"/>
      <point x="127" y="-10"/>
    </contour>
    <contour>
      <point x="248" y="77" type="curve" smooth="yes"/>
      <point x="283" y="77"/>
      <point x="316" y="89"/>
      <point x="360" y="133" type="curve"/>
      <point x="349" y="146" type="line"/>
      <point x="312" y="119"/>
      <point x="295" y="114"/>
      <point x="274" y="114" type="curve" smooth="yes"/>
      <point x="234" y="114"/>
      <point x="178" y="152"/>
      <point x="178" y="223" type="curve" smooth="yes"/>
      <point x="178" y="310"/>
      <point x="226" y="338"/>
      <point x="259" y="338" type="curve" smooth="yes"/>
      <point x="289" y="338"/>
      <point x="307" y="319"/>
      <point x="321" y="300" type="curve"/>
      <point x="333" y="298" type="line"/>
      <point x="341" y="306"/>
      <point x="359" y="341"/>
      <point x="356" y="346" type="curve"/>
      <point x="340" y="358"/>
      <point x="310" y="369"/>
      <point x="277" y="369" type="curve" smooth="yes"/>
      <point x="192" y="369"/>
      <point x="125" y="305"/>
      <point x="125" y="214" type="curve" smooth="yes"/>
      <point x="125" y="128"/>
      <point x="187" y="77"/>
    </contour>
    <contour>
      <point x="256" y="23" type="curve" smooth="yes"/>
      <point x="146" y="23"/>
      <point x="66" y="113"/>
      <point x="66" y="224" type="curve" smooth="yes"/>
      <point x="66" y="333"/>
      <point x="146" y="423"/>
      <point x="256" y="423" type="curve" smooth="yes"/>
      <point x="367" y="423"/>
      <point x="446" y="333"/>
      <point x="446" y="224" type="curve" smooth="yes"/>
      <point x="446" y="113"/>
      <point x="367" y="23"/>
    </contour>
  </outline>
</glyph>
<glyph name="ordfeminine" format="2">
  <advance width="191"/>
  <unicode hex="00AA"/>
  <outline>
    <contour>
      <point x="188" y="281" type="curve"/>
      <point x="186" y="290" type="line"/>
      <point x="172" y="284"/>
      <point x="165" y="284"/>
      <point x="162" y="286" type="curve" smooth="yes"/>
      <point x="159" y="289"/>
      <point x="157" y="294"/>
      <point x="157" y="308" type="curve" smooth="yes"/>
      <point x="157" y="380" type="line" smooth="yes"/>
      <point x="157" y="434"/>
      <point x="144" y="452"/>
      <point x="109" y="452" type="curve" smooth="yes"/>
      <point x="83" y="452"/>
      <point x="28" y="424"/>
      <point x="24" y="393" type="curve"/>
      <point x="27" y="386" type="line"/>
      <point x="33" y="384"/>
      <point x="66" y="392"/>
      <point x="65" y="396" type="curve" smooth="yes"/>
      <point x="57" y="417"/>
      <point x="78" y="431"/>
      <point x="92" y="431" type="curve" smooth="yes"/>
      <point x="118" y="431"/>
      <point x="123" y="414"/>
      <point x="123" y="384" type="curve" smooth="yes"/>
      <point x="123" y="309" type="line" smooth="yes"/>
      <point x="123" y="275"/>
      <point x="134" y="260"/>
      <point x="143" y="260" type="curve" smooth="yes"/>
      <point x="150" y="260"/>
      <point x="165" y="266"/>
    </contour>
    <contour>
      <point x="108" y="359" type="curve"/>
      <point x="151" y="370" type="line"/>
      <point x="150" y="385" type="line"/>
      <point x="90" y="369" type="line" smooth="yes"/>
      <point x="40" y="356"/>
      <point x="17" y="332"/>
      <point x="17" y="302" type="curve" smooth="yes"/>
      <point x="17" y="271"/>
      <point x="41" y="260"/>
      <point x="60" y="260" type="curve" smooth="yes"/>
      <point x="78" y="260"/>
      <point x="105" y="270"/>
      <point x="131" y="296" type="curve"/>
      <point x="128" y="312" type="line"/>
      <point x="108" y="294"/>
      <point x="89" y="285"/>
      <point x="72" y="285" type="curve" smooth="yes"/>
      <point x="65" y="285"/>
      <point x="53" y="290"/>
      <point x="53" y="310" type="curve" smooth="yes"/>
      <point x="53" y="331"/>
      <point x="65" y="347"/>
    </contour>
    <contour>
      <point x="18" y="214" type="line"/>
      <point x="177" y="214" type="line"/>
      <point x="177" y="241" type="line"/>
      <point x="18" y="241" type="line"/>
    </contour>
  </outline>
</glyph>
<glyph name="guillemetleft" format="2">
  <advance width="364"/>
  <unicode hex="00AB"/>
  <outline>
    <contour>
      <point x="164" y="157" type="curve"/>
      <point x="296" y="6" type="line"/>
      <point x="312" y="17" type="line"/>
      <point x="228" y="171" type="line"/>
      <point x="227" y="170"/>
      <point x="312" y="323"/>
      <point x="312" y="323" type="curve"/>
      <point x="296" y="334" type="line"/>
      <point x="165" y="184" type="line"/>
      <point x="164" y="183"/>
      <point x="164" y="157"/>
    </contour>
    <contour>
      <point x="29" y="157" type="curve"/>
      <point x="161" y="6" type="line"/>
      <point x="177" y="17" type="line"/>
      <point x="92" y="171" type="line"/>
      <point x="91" y="170"/>
      <point x="177" y="323"/>
      <point x="176" y="323" type="curve"/>
      <point x="161" y="334" type="line"/>
      <point x="30" y="184" type="line"/>
      <point x="29" y="183"/>
      <point x="29" y="157"/>
    </contour>
  </outline>
</glyph>
<glyph name="logicalnot" format="2">
  <advance width="343"/>
  <unicode hex="00AC"/>
  <outline>
    <contour>
      <point x="317" y="81" type="curve"/>
      <point x="317" y="208" type="line"/>
      <point x="306" y="217" type="line"/>
      <point x="306" y="217"/>
      <point x="309" y="217"/>
      <point x="35" y="217" type="curve"/>
      <point x="31" y="208"/>
      <point x="25" y="193"/>
      <point x="22" y="183" type="curve"/>
      <point x="32" y="174" type="line"/>
      <point x="274" y="174" type="line"/>
      <point x="274" y="71" type="line"/>
      <point x="284" y="61" type="line"/>
      <point x="295" y="65"/>
      <point x="308" y="74"/>
    </contour>
  </outline>
</glyph>
<glyph name="registered" format="2">
  <advance width="267"/>
  <unicode hex="00AE"/>
  <outline>
    <contour>
      <point x="254" y="396" type="curve"/>
      <point x="254" y="466"/>
      <point x="203" y="523"/>
      <point x="133" y="523" type="curve" smooth="yes"/>
      <point x="63" y="523"/>
      <point x="12" y="466"/>
      <point x="12" y="396" type="curve" smooth="yes"/>
      <point x="12" y="327"/>
      <point x="63" y="270"/>
      <point x="133" y="270" type="curve" smooth="yes"/>
      <point x="203" y="270"/>
      <point x="254" y="327"/>
    </contour>
    <contour>
      <point x="233" y="396" type="curve"/>
      <point x="233" y="338"/>
      <point x="191" y="291"/>
      <point x="133" y="291" type="curve" smooth="yes"/>
      <point x="75" y="291"/>
      <point x="34" y="338"/>
      <point x="34" y="396" type="curve" smooth="yes"/>
      <point x="34" y="454"/>
      <point x="75" y="502"/>
      <point x="133" y="502" type="curve" smooth="yes"/>
      <point x="191" y="502"/>
      <point x="233" y="454"/>
    </contour>
    <contour>
      <point x="182" y="437" type="curve"/>
      <point x="182" y="457"/>
      <point x="163" y="472"/>
      <point x="127" y="472" type="curve" smooth="yes"/>
      <point x="106" y="472"/>
      <point x="91" y="469"/>
      <point x="77" y="466" type="curve"/>
      <point x="78" y="455" type="line"/>
      <point x="94" y="457"/>
      <point x="109" y="459"/>
      <point x="123" y="459" type="curve" smooth="yes"/>
      <point x="150" y="459"/>
      <point x="160" y="448"/>
      <point x="160" y="434" type="curve" smooth="yes"/>
      <point x="160" y="416"/>
      <point x="149" y="405"/>
      <point x="124" y="405" type="curve" smooth="yes"/>
      <point x="120" y="405"/>
      <point x="116" y="405"/>
      <point x="111" y="406" type="curve"/>
      <point x="112" y="393" type="line"/>
      <point x="117" y="392"/>
      <point x="121" y="391"/>
      <point x="125" y="391" type="curve" smooth="yes"/>
      <point x="157" y="391"/>
      <point x="182" y="408"/>
    </contour>
    <contour>
      <point x="203" y="328" type="curve"/>
      <point x="202" y="336" type="line"/>
      <point x="192" y="335"/>
      <point x="187" y="336"/>
      <point x="183" y="342" type="curve" smooth="yes"/>
      <point x="140" y="402" type="line"/>
      <point x="124" y="395" type="line"/>
      <point x="165" y="329" type="line" smooth="yes"/>
      <point x="166" y="326"/>
      <point x="172" y="322"/>
      <point x="176" y="322" type="curve" smooth="yes"/>
      <point x="182" y="322"/>
      <point x="193" y="325"/>
    </contour>
    <contour>
      <point x="78" y="324" type="line"/>
      <point x="130" y="324" type="line"/>
      <point x="130" y="331" type="line"/>
      <point x="119" y="333"/>
      <point x="114" y="336"/>
      <point x="114" y="338" type="curve" smooth="yes"/>
      <point x="114" y="464" type="line"/>
      <point x="94" y="464" type="line"/>
      <point x="94" y="338" type="line" smooth="yes"/>
      <point x="94" y="336"/>
      <point x="88" y="333"/>
      <point x="78" y="331" type="curve"/>
    </contour>
  </outline>
</glyph>
<glyph name="macron" format="2">
  <advance width="352"/>
  <unicode hex="00AF"/>
  <outline>
    <contour>
      <point x="304" y="449" type="curve"/>
      <point x="295" y="458" type="line"/>
      <point x="64" y="458" type="line"/>
      <point x="59" y="449"/>
      <point x="50" y="429"/>
      <point x="48" y="419" type="curve"/>
      <point x="56" y="409" type="line"/>
      <point x="288" y="409" type="line"/>
      <point x="292" y="418"/>
      <point x="301" y="439"/>
    </contour>
  </outline>
</glyph>
<glyph name="degree" format="2">
  <advance width="255"/>
  <unicode hex="00B0"/>
  <outline>
    <contour>
      <point x="209" y="365" type="curve"/>
      <point x="209" y="401"/>
      <point x="179" y="433"/>
      <point x="141" y="433" type="curve" smooth="yes"/>
      <point x="96" y="433"/>
      <point x="45" y="390"/>
      <point x="45" y="330" type="curve" smooth="yes"/>
      <point x="45" y="292"/>
      <point x="74" y="261"/>
      <point x="114" y="261" type="curve" smooth="yes"/>
      <point x="158" y="261"/>
      <point x="209" y="305"/>
    </contour>
    <contour>
      <point x="166" y="347" type="curve"/>
      <point x="166" y="316"/>
      <point x="145" y="299"/>
      <point x="123" y="299" type="curve" smooth="yes"/>
      <point x="102" y="299"/>
      <point x="89" y="323"/>
      <point x="89" y="348" type="curve" smooth="yes"/>
      <point x="89" y="377"/>
      <point x="109" y="395"/>
      <point x="131" y="395" type="curve" smooth="yes"/>
      <point x="153" y="395"/>
      <point x="166" y="372"/>
    </contour>
  </outline>
</glyph>
<glyph name="plusminus" format="2">
  <advance width="295"/>
  <unicode hex="00B1"/>
  <outline>
    <contour>
      <point x="275" y="245" type="curve"/>
      <point x="265" y="254" type="line"/>
      <point x="32" y="254" type="line"/>
      <point x="28" y="245"/>
      <point x="22" y="231"/>
      <point x="20" y="221" type="curve"/>
      <point x="29" y="212" type="line"/>
      <point x="262" y="212" type="line"/>
      <point x="266" y="220"/>
      <point x="272" y="235"/>
    </contour>
    <contour>
      <point x="169" y="119" type="curve"/>
      <point x="169" y="350" type="line"/>
      <point x="160" y="359" type="line"/>
      <point x="150" y="356"/>
      <point x="134" y="351"/>
      <point x="126" y="348" type="curve"/>
      <point x="126" y="116" type="line"/>
      <point x="135" y="108" type="line"/>
      <point x="145" y="110"/>
      <point x="160" y="115"/>
    </contour>
    <contour>
      <point x="275" y="77" type="curve"/>
      <point x="265" y="86" type="line"/>
      <point x="32" y="86" type="line"/>
      <point x="28" y="77"/>
      <point x="22" y="63"/>
      <point x="20" y="53" type="curve"/>
      <point x="29" y="44" type="line"/>
      <point x="262" y="44" type="line"/>
      <point x="266" y="52"/>
      <point x="272" y="67"/>
    </contour>
  </outline>
</glyph>
<glyph name="twosuperior" format="2">
  <advance width="246"/>
  <unicode hex="00B2"/>
  <anchor x="123" y="516" name="U"/>
  <outline>
    <contour>
      <point x="214" y="227" type="line"/>
      <point x="217" y="290" type="line"/>
      <point x="201" y="292" type="line"/>
      <point x="201" y="292"/>
      <point x="198" y="257"/>
      <point x="175" y="257" type="curve" smooth="yes"/>
      <point x="75" y="257" type="line"/>
      <point x="180" y="362"/>
      <point x="214" y="396"/>
      <point x="214" y="436" type="curve" smooth="yes"/>
      <point x="214" y="479"/>
      <point x="182" y="498"/>
      <point x="137" y="498" type="curve" smooth="yes"/>
      <point x="80" y="498"/>
      <point x="28" y="458"/>
      <point x="28" y="428" type="curve"/>
      <point x="35" y="421" type="line"/>
      <point x="50" y="422"/>
      <point x="64" y="426"/>
      <point x="75" y="432" type="curve"/>
      <point x="75" y="453"/>
      <point x="93" y="474"/>
      <point x="119" y="474" type="curve" smooth="yes"/>
      <point x="154" y="474"/>
      <point x="167" y="457"/>
      <point x="167" y="429" type="curve" smooth="yes"/>
      <point x="167" y="396"/>
      <point x="143" y="364"/>
      <point x="21" y="243" type="curve"/>
      <point x="28" y="227" type="line"/>
    </contour>
  </outline>
</glyph>
<glyph name="threesuperior" format="2">
  <advance width="246"/>
  <unicode hex="00B3"/>
  <anchor x="123" y="516" name="U"/>
  <outline>
    <contour>
      <point x="214" y="310" type="curve"/>
      <point x="214" y="346"/>
      <point x="185" y="376"/>
      <point x="146" y="380" type="curve"/>
      <point x="179" y="390"/>
      <point x="199" y="415"/>
      <point x="199" y="437" type="curve" smooth="yes"/>
      <point x="199" y="467"/>
      <point x="176" y="498"/>
      <point x="123" y="498" type="curve" smooth="yes"/>
      <point x="70" y="498"/>
      <point x="23" y="463"/>
      <point x="23" y="439" type="curve"/>
      <point x="30" y="432" type="line"/>
      <point x="44" y="433"/>
      <point x="61" y="435"/>
      <point x="72" y="440" type="curve"/>
      <point x="68" y="460"/>
      <point x="83" y="474"/>
      <point x="109" y="474" type="curve" smooth="yes"/>
      <point x="140" y="474"/>
      <point x="152" y="453"/>
      <point x="152" y="433" type="curve" smooth="yes"/>
      <point x="152" y="415"/>
      <point x="145" y="392"/>
      <point x="84" y="377" type="curve"/>
      <point x="87" y="360" type="line"/>
      <point x="98" y="362"/>
      <point x="95" y="362"/>
      <point x="105" y="362" type="curve" smooth="yes"/>
      <point x="133" y="362"/>
      <point x="166" y="347"/>
      <point x="166" y="303" type="curve" smooth="yes"/>
      <point x="166" y="266"/>
      <point x="140" y="246"/>
      <point x="100" y="246" type="curve" smooth="yes"/>
      <point x="75" y="246"/>
      <point x="53" y="251"/>
      <point x="22" y="271" type="curve"/>
      <point x="13" y="256" type="line"/>
      <point x="44" y="231"/>
      <point x="77" y="220"/>
      <point x="107" y="220" type="curve" smooth="yes"/>
      <point x="174" y="220"/>
      <point x="214" y="261"/>
    </contour>
  </outline>
</glyph>
<glyph name="acute" format="2">
  <advance width="239"/>
  <unicode hex="00B4"/>
  <anchor x="119" y="516" name="U"/>
  <outline>
    <contour>
      <point x="100" y="383" type="curve"/>
      <point x="226" y="522" type="line"/>
      <point x="218" y="536" type="line"/>
      <point x="207" y="539"/>
      <point x="176" y="544"/>
      <point x="165" y="545" type="curve"/>
      <point x="79" y="393" type="line"/>
      <point x="85" y="389"/>
      <point x="91" y="385"/>
    </contour>
  </outline>
</glyph>
<glyph name="mu" format="2">
  <advance width="404"/>
  <unicode hex="00B5"/>
  <outline>
    <contour>
      <point x="397" y="30" type="curve"/>
      <point x="393" y="46" type="line"/>
      <point x="377" y="40"/>
      <point x="365" y="36"/>
      <point x="354" y="36" type="curve" smooth="yes"/>
      <point x="344" y="36"/>
      <point x="340" y="52"/>
      <point x="340" y="98" type="curve" smooth="yes"/>
      <point x="340" y="112"/>
      <point x="340" y="269"/>
      <point x="340" y="277" type="curve"/>
      <point x="341" y="308"/>
      <point x="344" y="324"/>
      <point x="346" y="337" type="curve"/>
      <point x="336" y="351" type="line"/>
      <point x="316" y="343"/>
      <point x="292" y="335"/>
      <point x="271" y="329" type="curve"/>
      <point x="278" y="320"/>
      <point x="285" y="289"/>
      <point x="285" y="273" type="curve" smooth="yes"/>
      <point x="285" y="262"/>
      <point x="285" y="89"/>
      <point x="285" y="79" type="curve" smooth="yes"/>
      <point x="285" y="31"/>
      <point x="294" y="-11"/>
      <point x="316" y="-11" type="curve" smooth="yes"/>
      <point x="332" y="-11"/>
      <point x="368" y="11"/>
    </contour>
    <contour>
      <point x="307" y="96" type="curve"/>
      <point x="302" y="129" type="line"/>
      <point x="255" y="56"/>
      <point x="221" y="47"/>
      <point x="191" y="47" type="curve" smooth="yes"/>
      <point x="150" y="47"/>
      <point x="124" y="100"/>
      <point x="124" y="134" type="curve" smooth="yes"/>
      <point x="124" y="139"/>
      <point x="124" y="332"/>
      <point x="124" y="335" type="curve"/>
      <point x="120" y="340"/>
      <point x="110" y="351"/>
      <point x="110" y="351" type="curve"/>
      <point x="84" y="338"/>
      <point x="60" y="333"/>
      <point x="22" y="327" type="curve"/>
      <point x="22" y="312" type="line"/>
      <point x="68" y="307"/>
      <point x="69" y="305"/>
      <point x="69" y="267" type="curve" smooth="yes"/>
      <point x="69" y="263"/>
      <point x="69" y="169"/>
      <point x="69" y="161" type="curve" smooth="yes"/>
      <point x="69" y="59"/>
      <point x="127" y="-11"/>
      <point x="179" y="-11" type="curve" smooth="yes"/>
      <point x="213" y="-11"/>
      <point x="260" y="25"/>
    </contour>
    <contour>
      <point x="99" y="168" type="curve"/>
      <point x="96" y="187"/>
      <point x="69" y="225"/>
      <point x="69" y="225" type="curve"/>
      <point x="69" y="199"/>
      <point x="69" y="-161"/>
      <point x="69" y="-172" type="curve"/>
      <point x="83" y="-183" type="line"/>
      <point x="95" y="-177"/>
      <point x="136" y="-161"/>
      <point x="150" y="-157" type="curve"/>
      <point x="124" y="-126"/>
      <point x="99" y="-65"/>
      <point x="99" y="42" type="curve"/>
      <point x="100" y="99"/>
      <point x="95" y="123"/>
    </contour>
  </outline>
</glyph>
<glyph name="paragraph" format="2">
  <advance width="408"/>
  <unicode hex="00B6"/>
  <outline>
    <contour>
      <point x="356" y="439" type="curve"/>
      <point x="356" y="439"/>
      <point x="221" y="449"/>
      <point x="180" y="449" type="curve" smooth="yes"/>
      <point x="82" y="449"/>
      <point x="15" y="394"/>
      <point x="15" y="314" type="curve" smooth="yes"/>
      <point x="15" y="227"/>
      <point x="88" y="182"/>
      <point x="179" y="182" type="curve" smooth="yes"/>
      <point x="226" y="182"/>
      <point x="239" y="195"/>
      <point x="239" y="195" type="curve"/>
      <point x="236" y="218" type="line"/>
      <point x="236" y="218"/>
      <point x="224" y="215"/>
      <point x="194" y="215" type="curve" smooth="yes"/>
      <point x="117" y="215"/>
      <point x="84" y="276"/>
      <point x="84" y="327" type="curve" smooth="yes"/>
      <point x="84" y="379"/>
      <point x="126" y="417"/>
      <point x="178" y="417" type="curve" smooth="yes"/>
      <point x="203" y="417"/>
      <point x="258" y="413"/>
      <point x="303" y="396" type="curve"/>
      <point x="307" y="393"/>
      <point x="356" y="439"/>
    </contour>
    <contour>
      <point x="159" y="-87" type="line"/>
      <point x="381" y="-87" type="line"/>
      <point x="381" y="-68" type="line"/>
      <point x="347" y="-62"/>
      <point x="331" y="-53"/>
      <point x="331" y="-47" type="curve" smooth="yes"/>
      <point x="331" y="399" type="line" smooth="yes"/>
      <point x="331" y="405"/>
      <point x="349" y="414"/>
      <point x="381" y="420" type="curve"/>
      <point x="381" y="439" type="line"/>
      <point x="159" y="439" type="line"/>
      <point x="159" y="420" type="line"/>
      <point x="192" y="414"/>
      <point x="210" y="427"/>
      <point x="210" y="422" type="curve" smooth="yes"/>
      <point x="209" y="-47" type="line" smooth="yes"/>
      <point x="209" y="-53"/>
      <point x="191" y="-62"/>
      <point x="159" y="-68" type="curve"/>
    </contour>
    <contour>
      <point x="284" y="416" type="line"/>
      <point x="284" y="-47" type="line"/>
      <point x="284" y="-52"/>
      <point x="275" y="-56"/>
      <point x="270" y="-57" type="curve"/>
      <point x="265" y="-56"/>
      <point x="256" y="-52"/>
      <point x="256" y="-47" type="curve" smooth="yes"/>
      <point x="256" y="423" type="line"/>
    </contour>
  </outline>
</glyph>
<glyph name="periodcentered" format="2">
  <advance width="118"/>
  <unicode hex="00B7"/>
  <outline>
    <contour>
      <point x="101" y="249" type="curve"/>
      <point x="101" y="275"/>
      <point x="86" y="287"/>
      <point x="64" y="287" type="curve" smooth="yes"/>
      <point x="39" y="287"/>
      <point x="17" y="265"/>
      <point x="17" y="236" type="curve" smooth="yes"/>
      <point x="17" y="211"/>
      <point x="30" y="198"/>
      <point x="53" y="198" type="curve" smooth="yes"/>
      <point x="80" y="198"/>
      <point x="101" y="220"/>
    </contour>
  </outline>
</glyph>
<glyph name="cedilla" format="2">
  <advance width="163"/>
  <unicode hex="00B8"/>
  <outline>
    <contour>
      <point x="147" y="-79" type="curve"/>
      <point x="147" y="-53"/>
      <point x="124" y="-40"/>
      <point x="96" y="-34" type="curve"/>
      <point x="114" y="17" type="line"/>
      <point x="81" y="18" type="line"/>
      <point x="57" y="-59"/>
      <point x="51" y="-72"/>
      <point x="51" y="-72" type="curve"/>
      <point x="76" y="-74"/>
      <point x="88" y="-79"/>
      <point x="88" y="-95" type="curve" smooth="yes"/>
      <point x="88" y="-110"/>
      <point x="70" y="-127"/>
      <point x="24" y="-135" type="curve"/>
      <point x="34" y="-154" type="line"/>
      <point x="109" y="-144"/>
      <point x="147" y="-114"/>
    </contour>
  </outline>
</glyph>
<glyph name="onesuperior" format="2">
  <advance width="246"/>
  <unicode hex="00B9"/>
  <anchor x="131" y="516" name="U"/>
  <outline>
    <contour>
      <point x="43" y="227" type="line"/>
      <point x="215" y="227" type="line"/>
      <point x="215" y="242" type="line"/>
      <point x="163" y="247"/>
      <point x="154" y="256"/>
      <point x="154" y="262" type="curve" smooth="yes"/>
      <point x="154" y="492" type="line"/>
      <point x="145" y="500" type="line"/>
      <point x="123" y="489"/>
      <point x="64" y="470"/>
      <point x="35" y="463" type="curve"/>
      <point x="41" y="448" type="line"/>
      <point x="86" y="456"/>
      <point x="100" y="455"/>
      <point x="104" y="451" type="curve" smooth="yes"/>
      <point x="108" y="447"/>
      <point x="109" y="441"/>
      <point x="109" y="429" type="curve" smooth="yes"/>
      <point x="109" y="262" type="line" smooth="yes"/>
      <point x="109" y="255"/>
      <point x="97" y="247"/>
      <point x="43" y="242" type="curve"/>
    </contour>
  </outline>
</glyph>
<glyph name="ordmasculine" format="2">
  <advance width="211"/>
  <unicode hex="00BA"/>
  <outline>
    <contour>
      <point x="193" y="359" type="curve"/>
      <point x="193" y="413"/>
      <point x="158" y="452"/>
      <point x="111" y="452" type="curve" smooth="yes"/>
      <point x="60" y="452"/>
      <point x="17" y="403"/>
      <point x="17" y="352" type="curve" smooth="yes"/>
      <point x="17" y="299"/>
      <point x="50" y="260"/>
      <point x="99" y="260" type="curve" smooth="yes"/>
      <point x="145" y="260"/>
      <point x="193" y="309"/>
    </contour>
    <contour>
      <point x="22" y="214" type="line"/>
      <point x="188" y="214" type="line"/>
      <point x="188" y="241" type="line"/>
      <point x="22" y="241" type="line"/>
    </contour>
    <contour>
      <point x="158" y="354" type="curve"/>
      <point x="158" y="312"/>
      <point x="138" y="281"/>
      <point x="111" y="281" type="curve" smooth="yes"/>
      <point x="81" y="281"/>
      <point x="52" y="316"/>
      <point x="52" y="357" type="curve" smooth="yes"/>
      <point x="52" y="399"/>
      <point x="70" y="430"/>
      <point x="99" y="430" type="curve" smooth="yes"/>
      <point x="131" y="430"/>
      <point x="158" y="395"/>
    </contour>
  </outline>
</glyph>
<glyph name="guillemetright" format="2">
  <advance width="353"/>
  <unicode hex="00BB"/>
  <outline>
    <contour>
      <point x="193" y="149" type="line"/>
      <point x="193" y="175" type="line"/>
      <point x="63" y="320" type="line"/>
      <point x="47" y="307" type="line"/>
      <point x="124" y="162" type="line"/>
      <point x="47" y="16" type="line"/>
      <point x="63" y="4" type="line"/>
    </contour>
    <contour>
      <point x="327" y="149" type="line"/>
      <point x="326" y="175" type="line"/>
      <point x="197" y="320" type="line"/>
      <point x="180" y="307" type="line"/>
      <point x="257" y="162" type="line"/>
      <point x="180" y="16" type="line"/>
      <point x="197" y="4" type="line"/>
    </contour>
  </outline>
</glyph>
<glyph name="onequarter" format="2">
  <advance width="439"/>
  <unicode hex="00BC"/>
  <outline>
    <contour>
      <point x="119" y="1" type="curve"/>
      <point x="396" y="442" type="line"/>
      <point x="387" y="452" type="line"/>
      <point x="377" y="450"/>
      <point x="364" y="444"/>
      <point x="355" y="440" type="curve"/>
      <point x="76" y="0" type="line"/>
      <point x="85" y="-10" type="line"/>
      <point x="98" y="-7"/>
      <point x="108" y="-4"/>
    </contour>
    <contour>
      <point x="410" y="76" type="curve"/>
      <point x="404" y="82" type="line"/>
      <point x="382" y="82" type="line"/>
      <point x="382" y="212" type="line"/>
      <point x="375" y="218" type="line"/>
      <point x="366" y="215"/>
      <point x="353" y="210"/>
      <point x="341" y="206" type="curve"/>
      <point x="239" y="65" type="line"/>
      <point x="246" y="60" type="line"/>
      <point x="347" y="60" type="line"/>
      <point x="347" y="23" type="line" smooth="yes"/>
      <point x="347" y="19"/>
      <point x="343" y="15"/>
      <point x="307" y="10" type="curve"/>
      <point x="307" y="0" type="line"/>
      <point x="407" y="0" type="line"/>
      <point x="407" y="10" type="line"/>
      <point x="385" y="15"/>
      <point x="382" y="17"/>
      <point x="382" y="21" type="curve" smooth="yes"/>
      <point x="382" y="60" type="line"/>
      <point x="393" y="60" type="line"/>
      <point x="399" y="64"/>
      <point x="404" y="69"/>
    </contour>
    <contour>
      <point x="347" y="179" type="line"/>
      <point x="347" y="82" type="line"/>
      <point x="274" y="82" type="line"/>
    </contour>
    <contour>
      <point x="35" y="233" type="line"/>
      <point x="172" y="233" type="line"/>
      <point x="172" y="245" type="line"/>
      <point x="131" y="250"/>
      <point x="124" y="256"/>
      <point x="124" y="261" type="curve" smooth="yes"/>
      <point x="124" y="446" type="line"/>
      <point x="117" y="452" type="line"/>
      <point x="99" y="443"/>
      <point x="52" y="427"/>
      <point x="29" y="422" type="curve"/>
      <point x="33" y="410" type="line"/>
      <point x="69" y="417"/>
      <point x="80" y="415"/>
      <point x="84" y="412" type="curve" smooth="yes"/>
      <point x="87" y="409"/>
      <point x="87" y="405"/>
      <point x="87" y="395" type="curve" smooth="yes"/>
      <point x="87" y="261" type="line" smooth="yes"/>
      <point x="87" y="256"/>
      <point x="78" y="250"/>
      <point x="35" y="245" type="curve"/>
    </contour>
  </outline>
</glyph>
<glyph name="onehalf" format="2">
  <advance width="427"/>
  <unicode hex="00BD"/>
  <outline>
    <contour>
      <point x="109" y="1" type="curve"/>
      <point x="388" y="420" type="line"/>
      <point x="380" y="430" type="line"/>
      <point x="369" y="428"/>
      <point x="353" y="423"/>
      <point x="344" y="419" type="curve"/>
      <point x="64" y="0" type="line"/>
      <point x="72" y="-10" type="line"/>
      <point x="85" y="-7"/>
      <point x="98" y="-4"/>
    </contour>
    <contour>
      <point x="32" y="222" type="line"/>
      <point x="170" y="222" type="line"/>
      <point x="170" y="234" type="line"/>
      <point x="130" y="239"/>
      <point x="123" y="245"/>
      <point x="123" y="249" type="curve" smooth="yes"/>
      <point x="123" y="424" type="line"/>
      <point x="115" y="430" type="line"/>
      <point x="97" y="422"/>
      <point x="48" y="407"/>
      <point x="26" y="402" type="curve"/>
      <point x="31" y="389" type="line"/>
      <point x="65" y="396"/>
      <point x="76" y="394"/>
      <point x="80" y="392" type="curve" smooth="yes"/>
      <point x="83" y="389"/>
      <point x="83" y="384"/>
      <point x="83" y="375" type="curve" smooth="yes"/>
      <point x="83" y="249" type="line" smooth="yes"/>
      <point x="83" y="245"/>
      <point x="73" y="239"/>
      <point x="32" y="234" type="curve"/>
    </contour>
    <contour>
      <point x="397" y="0" type="line"/>
      <point x="400" y="51" type="line"/>
      <point x="386" y="54" type="line"/>
      <point x="386" y="54"/>
      <point x="384" y="25"/>
      <point x="366" y="25" type="curve" smooth="yes"/>
      <point x="290" y="25" type="line"/>
      <point x="371" y="105"/>
      <point x="397" y="130"/>
      <point x="397" y="161" type="curve" smooth="yes"/>
      <point x="397" y="191"/>
      <point x="372" y="206"/>
      <point x="336" y="206" type="curve" smooth="yes"/>
      <point x="290" y="206"/>
      <point x="250" y="176"/>
      <point x="250" y="153" type="curve"/>
      <point x="255" y="146" type="line"/>
      <point x="267" y="147"/>
      <point x="282" y="151"/>
      <point x="291" y="155" type="curve"/>
      <point x="290" y="171"/>
      <point x="302" y="187"/>
      <point x="322" y="187" type="curve" smooth="yes"/>
      <point x="347" y="187"/>
      <point x="357" y="174"/>
      <point x="357" y="154" type="curve" smooth="yes"/>
      <point x="357" y="129"/>
      <point x="337" y="104"/>
      <point x="244" y="12" type="curve"/>
      <point x="250" y="0" type="line"/>
    </contour>
  </outline>
</glyph>
<glyph name="threequarters" format="2">
  <advance width="439"/>
  <unicode hex="00BE"/>
  <outline>
    <contour>
      <point x="115" y="1" type="curve"/>
      <point x="393" y="442" type="line"/>
      <point x="384" y="452" type="line"/>
      <point x="373" y="450"/>
      <point x="361" y="444"/>
      <point x="351" y="440" type="curve"/>
      <point x="72" y="0" type="line"/>
      <point x="81" y="-10" type="line"/>
      <point x="94" y="-7"/>
      <point x="104" y="-4"/>
    </contour>
    <contour>
      <point x="190" y="300" type="curve" smooth="yes"/>
      <point x="190" y="328"/>
      <point x="166" y="353"/>
      <point x="135" y="356" type="curve"/>
      <point x="161" y="364"/>
      <point x="177" y="384"/>
      <point x="177" y="401" type="curve" smooth="yes"/>
      <point x="177" y="425"/>
      <point x="159" y="450"/>
      <point x="117" y="450" type="curve" smooth="yes"/>
      <point x="74" y="450"/>
      <point x="36" y="422"/>
      <point x="36" y="403" type="curve"/>
      <point x="42" y="397" type="line"/>
      <point x="53" y="398"/>
      <point x="67" y="400"/>
      <point x="76" y="404" type="curve"/>
      <point x="73" y="420"/>
      <point x="84" y="431"/>
      <point x="105" y="431" type="curve" smooth="yes"/>
      <point x="130" y="431"/>
      <point x="139" y="414"/>
      <point x="139" y="398" type="curve" smooth="yes"/>
      <point x="139" y="384"/>
      <point x="134" y="365"/>
      <point x="85" y="353" type="curve"/>
      <point x="88" y="340" type="line"/>
      <point x="96" y="341"/>
      <point x="94" y="341"/>
      <point x="102" y="341" type="curve" smooth="yes"/>
      <point x="125" y="341"/>
      <point x="151" y="329"/>
      <point x="151" y="294" type="curve" smooth="yes"/>
      <point x="151" y="264"/>
      <point x="130" y="249"/>
      <point x="98" y="249" type="curve" smooth="yes"/>
      <point x="78" y="249"/>
      <point x="60" y="253"/>
      <point x="35" y="269" type="curve"/>
      <point x="29" y="257" type="line"/>
      <point x="53" y="236"/>
      <point x="79" y="228"/>
      <point x="104" y="228" type="curve" smooth="yes"/>
      <point x="157" y="228"/>
      <point x="190" y="261"/>
    </contour>
    <contour>
      <point x="410" y="76" type="curve"/>
      <point x="404" y="82" type="line"/>
      <point x="382" y="82" type="line"/>
      <point x="382" y="212" type="line"/>
      <point x="375" y="218" type="line"/>
      <point x="366" y="215"/>
      <point x="353" y="210"/>
      <point x="341" y="206" type="curve"/>
      <point x="239" y="65" type="line"/>
      <point x="246" y="60" type="line"/>
      <point x="347" y="60" type="line"/>
      <point x="347" y="23" type="line" smooth="yes"/>
      <point x="347" y="19"/>
      <point x="343" y="15"/>
      <point x="307" y="10" type="curve"/>
      <point x="307" y="0" type="line"/>
      <point x="407" y="0" type="line"/>
      <point x="407" y="10" type="line"/>
      <point x="385" y="15"/>
      <point x="382" y="17"/>
      <point x="382" y="21" type="curve" smooth="yes"/>
      <point x="382" y="60" type="line"/>
      <point x="393" y="60" type="line"/>
      <point x="399" y="64"/>
      <point x="404" y="69"/>
    </contour>
    <contour>
      <point x="347" y="179" type="line"/>
      <point x="347" y="82" type="line"/>
      <point x="274" y="82" type="line"/>
    </contour>
  </outline>
</glyph>
<glyph name="questiondown" format="2">
  <advance width="314"/>
  <unicode hex="00BF"/>
  <outline>
    <contour>
      <point x="212" y="293" type="curve" smooth="yes"/>
      <point x="212" y="320"/>
      <point x="197" y="334"/>
      <point x="171" y="334" type="curve" smooth="yes"/>
      <point x="142" y="334"/>
      <point x="118" y="310"/>
      <point x="118" y="277" type="curve" smooth="yes"/>
      <point x="118" y="249"/>
      <point x="133" y="235"/>
      <point x="158" y="235" type="curve" smooth="yes"/>
      <point x="187" y="235"/>
      <point x="212" y="260"/>
    </contour>
    <contour>
      <point x="148" y="182" type="curve"/>
      <point x="146" y="148" type="line"/>
      <point x="139" y="56"/>
      <point x="26" y="19"/>
      <point x="26" y="-85" type="curve" smooth="yes"/>
      <point x="26" y="-150"/>
      <point x="65" y="-195"/>
      <point x="136" y="-195" type="curve" smooth="yes"/>
      <point x="217" y="-195"/>
      <point x="288" y="-146"/>
      <point x="288" y="-80" type="curve" smooth="yes"/>
      <point x="288" y="-76"/>
      <point x="288" y="-70"/>
      <point x="287" y="-67" type="curve"/>
      <point x="277" y="-55" type="line"/>
      <point x="256" y="-57"/>
      <point x="230" y="-63"/>
      <point x="215" y="-71" type="curve"/>
      <point x="217" y="-78"/>
      <point x="219" y="-85"/>
      <point x="219" y="-92" type="curve" smooth="yes"/>
      <point x="219" y="-129"/>
      <point x="193" y="-159"/>
      <point x="163" y="-159" type="curve" smooth="yes"/>
      <point x="120" y="-159"/>
      <point x="95" y="-127"/>
      <point x="95" y="-70" type="curve" smooth="yes"/>
      <point x="95" y="-3"/>
      <point x="194" y="68"/>
      <point x="189" y="148" type="curve"/>
      <point x="187" y="188" type="line"/>
      <point x="177" y="196" type="line"/>
      <point x="164" y="193"/>
      <point x="156" y="189"/>
    </contour>
  </outline>
</glyph>
<glyph name="AE" format="2">
  <advance width="584"/>
  <unicode hex="00C6"/>
  <anchor x="338" y="501" name="U"/>
  <outline>
    <contour>
      <point x="562" y="89" type="curve"/>
      <point x="546" y="95" type="line"/>
      <point x="525" y="38"/>
      <point x="510" y="32"/>
      <point x="465" y="32" type="curve" smooth="yes"/>
      <point x="417" y="32" type="line" smooth="yes"/>
      <point x="353" y="32"/>
      <point x="342" y="42"/>
      <point x="342" y="56" type="curve" smooth="yes"/>
      <point x="342" y="238" type="line"/>
      <point x="393" y="238" type="line" smooth="yes"/>
      <point x="435" y="238"/>
      <point x="452" y="232"/>
      <point x="466" y="218" type="curve"/>
      <point x="477" y="225"/>
      <point x="491" y="245"/>
      <point x="500" y="258" type="curve"/>
      <point x="490" y="269" type="line"/>
      <point x="342" y="269" type="line"/>
      <point x="342" y="428" type="line"/>
      <point x="476" y="428" type="line" smooth="yes"/>
      <point x="495" y="428"/>
      <point x="503" y="414"/>
      <point x="506" y="369" type="curve"/>
      <point x="522" y="369" type="line"/>
      <point x="529" y="388"/>
      <point x="536" y="427"/>
      <point x="537" y="452" type="curve"/>
      <point x="526" y="461" type="line"/>
      <point x="395" y="461" type="line"/>
      <point x="333" y="461" type="line"/>
      <point x="139" y="461" type="line"/>
      <point x="139" y="445" type="line"/>
      <point x="187" y="436"/>
      <point x="216" y="431"/>
      <point x="209" y="414" type="curve" smooth="yes"/>
      <point x="57" y="40" type="line" smooth="yes"/>
      <point x="51" y="26"/>
      <point x="32" y="21"/>
      <point x="0" y="15" type="curve"/>
      <point x="0" y="0" type="line"/>
      <point x="152" y="0" type="line"/>
      <point x="152" y="15" type="line"/>
      <point x="112" y="20"/>
      <point x="98" y="26"/>
      <point x="104" y="40" type="curve" smooth="yes"/>
      <point x="184" y="238" type="line"/>
      <point x="283" y="238" type="line"/>
      <point x="283" y="38" type="line" smooth="yes"/>
      <point x="283" y="31"/>
      <point x="264" y="22"/>
      <point x="231" y="15" type="curve"/>
      <point x="231" y="0" type="line"/>
      <point x="546" y="0" type="line"/>
      <point x="550" y="14"/>
      <point x="558" y="47"/>
    </contour>
    <contour>
      <point x="283" y="420" type="curve" smooth="yes"/>
      <point x="283" y="269" type="line"/>
      <point x="197" y="269" type="line"/>
      <point x="254" y="414" type="line" smooth="yes"/>
      <point x="261" y="431"/>
      <point x="283" y="431"/>
    </contour>
  </outline>
</glyph>
<glyph name="Eth" format="2">
  <advance width="444"/>
  <unicode hex="00D0"/>
  <anchor x="210" y="501" name="U"/>
  <outline>
    <component base="D"/>
    <contour>
      <point x="224" y="225" type="line"/>
      <point x="234" y="249" type="line"/>
      <point x="224" y="258" type="line"/>
      <point x="17" y="258" type="line"/>
      <point x="15" y="250"/>
      <point x="12" y="241"/>
      <point x="9" y="234" type="curve"/>
      <point x="17" y="225" type="line"/>
    </contour>
  </outline>
</glyph>
<glyph name="multiply" format="2">
  <advance width="292"/>
  <unicode hex="00D7"/>
  <outline>
    <contour>
      <point x="261" y="98" type="curve"/>
      <point x="261" y="110" type="line"/>
      <point x="67" y="304" type="line"/>
      <point x="57" y="302"/>
      <point x="40" y="297"/>
      <point x="31" y="293" type="curve"/>
      <point x="31" y="280" type="line"/>
      <point x="225" y="86" type="line"/>
      <point x="233" y="88"/>
      <point x="251" y="94"/>
    </contour>
    <contour>
      <point x="31" y="111" type="line"/>
      <point x="31" y="98" type="line"/>
      <point x="41" y="93"/>
      <point x="58" y="88"/>
      <point x="67" y="86" type="curve"/>
      <point x="260" y="279" type="line"/>
      <point x="260" y="292" type="line"/>
      <point x="251" y="297"/>
      <point x="234" y="302"/>
      <point x="224" y="304" type="curve"/>
    </contour>
  </outline>
</glyph>
<glyph name="Oslash" format="2">
  <advance width="450"/>
  <unicode hex="00D8"/>
  <anchor x="221" y="501" name="U"/>
  <outline>
    <contour>
      <point x="416" y="236" type="curve"/>
      <point x="416" y="356"/>
      <point x="352" y="472"/>
      <point x="231" y="472" type="curve" smooth="yes"/>
      <point x="116" y="472"/>
      <point x="25" y="357"/>
      <point x="25" y="224" type="curve" smooth="yes"/>
      <point x="25" y="101"/>
      <point x="93" y="-10"/>
      <point x="210" y="-10" type="curve" smooth="yes"/>
      <point x="321" y="-10"/>
      <point x="416" y="104"/>
    </contour>
    <contour>
      <point x="359" y="230" type="curve"/>
      <point x="359" y="101"/>
      <point x="302" y="32"/>
      <point x="221" y="32" type="curve" smooth="yes"/>
      <point x="146" y="32"/>
      <point x="82" y="125"/>
      <point x="82" y="234" type="curve" smooth="yes"/>
      <point x="82" y="354"/>
      <point x="134" y="430"/>
      <point x="221" y="430" type="curve" smooth="yes"/>
      <point x="304" y="430"/>
      <point x="359" y="331"/>
    </contour>
    <contour>
      <point x="85" y="0" type="curve"/>
      <point x="413" y="468" type="line"/>
      <point x="403" y="480" type="line"/>
      <point x="388" y="477"/>
      <point x="370" y="470"/>
      <point x="357" y="462" type="curve"/>
      <point x="27" y="-7" type="line"/>
      <point x="38" y="-19" type="line"/>
      <point x="50" y="-15"/>
      <point x="76" y="-8"/>
    </contour>
  </outline>
</glyph>
<glyph name="Thorn" format="2">
  <advance width="383"/>
  <unicode hex="00DE"/>
  <anchor x="185" y="477" name="U"/>
  <outline>
    <contour>
      <point x="354" y="233" type="curve"/>
      <point x="354" y="313"/>
      <point x="287" y="356"/>
      <point x="185" y="356" type="curve" smooth="yes"/>
      <point x="141" y="356"/>
      <point x="111" y="353"/>
      <point x="83" y="348" type="curve"/>
      <point x="87" y="319" type="line"/>
      <point x="113" y="322"/>
      <point x="140" y="324"/>
      <point x="165" y="324" type="curve" smooth="yes"/>
      <point x="235" y="324"/>
      <point x="289" y="292"/>
      <point x="289" y="218" type="curve" smooth="yes"/>
      <point x="289" y="153"/>
      <point x="238" y="121"/>
      <point x="196" y="121" type="curve" smooth="yes"/>
      <point x="180" y="121"/>
      <point x="163" y="122"/>
      <point x="144" y="131" type="curve"/>
      <point x="153" y="102" type="line"/>
      <point x="169" y="95"/>
      <point x="189" y="91"/>
      <point x="210" y="91" type="curve" smooth="yes"/>
      <point x="267" y="91"/>
      <point x="354" y="136"/>
    </contour>
    <contour>
      <point x="16" y="0" type="line"/>
      <point x="192" y="0" type="line"/>
      <point x="192" y="18" type="line"/>
      <point x="144" y="26"/>
      <point x="132" y="34"/>
      <point x="132" y="39" type="curve" smooth="yes"/>
      <point x="132" y="399" type="line" smooth="yes"/>
      <point x="132" y="405"/>
      <point x="145" y="412"/>
      <point x="192" y="420" type="curve"/>
      <point x="192" y="439" type="line"/>
      <point x="16" y="439" type="line"/>
      <point x="16" y="420" type="line"/>
      <point x="49" y="414"/>
      <point x="66" y="404"/>
      <point x="66" y="399" type="curve" smooth="yes"/>
      <point x="66" y="39" type="line" smooth="yes"/>
      <point x="66" y="33"/>
      <point x="47" y="24"/>
      <point x="16" y="18" type="curve"/>
    </contour>
  </outline>
</glyph>
<glyph name="germandbls" format="2">
  <advance width="423"/>
  <unicode hex="00DF"/>
  <anchor x="205" y="618" name="U"/>
  <outline>
    <contour>
      <point x="390" y="103" type="curve"/>
      <point x="390" y="224"/>
      <point x="228" y="218"/>
      <point x="228" y="281" type="curve" smooth="yes"/>
      <point x="228" y="340"/>
      <point x="354" y="315"/>
      <point x="354" y="435" type="curve" smooth="yes"/>
      <point x="354" y="489"/>
      <point x="323" y="567"/>
      <point x="239" y="567" type="curve" smooth="yes"/>
      <point x="203" y="567"/>
      <point x="170" y="555"/>
      <point x="143" y="533" type="curve" smooth="yes"/>
      <point x="105" y="502"/>
      <point x="71" y="469"/>
      <point x="71" y="351" type="curve" smooth="yes"/>
      <point x="71" y="37" type="line" smooth="yes"/>
      <point x="71" y="31"/>
      <point x="53" y="21"/>
      <point x="20" y="15" type="curve"/>
      <point x="20" y="0" type="line"/>
      <point x="126" y="0" type="line"/>
      <point x="126" y="372" type="line" smooth="yes"/>
      <point x="126" y="492"/>
      <point x="159" y="521"/>
      <point x="206" y="521" type="curve" smooth="yes"/>
      <point x="272" y="521"/>
      <point x="298" y="460"/>
      <point x="298" y="410" type="curve" smooth="yes"/>
      <point x="298" y="340"/>
      <point x="176" y="365"/>
      <point x="176" y="266" type="curve" smooth="yes"/>
      <point x="176" y="167"/>
      <point x="343" y="180"/>
      <point x="343" y="79" type="curve" smooth="yes"/>
      <point x="343" y="47"/>
      <point x="315" y="25"/>
      <point x="281" y="25" type="curve" smooth="yes"/>
      <point x="243" y="25"/>
      <point x="198" y="46"/>
      <point x="191" y="98" type="curve"/>
      <point x="176" y="103" type="line"/>
      <point x="169" y="93"/>
      <point x="167" y="24"/>
      <point x="171" y="17" type="curve" smooth="yes"/>
      <point x="179" y="5"/>
      <point x="239" y="-10"/>
      <point x="266" y="-10" type="curve" smooth="yes"/>
      <point x="354" y="-10"/>
      <point x="390" y="46"/>
    </contour>
  </outline>
</glyph>
